<?xml version="1.0" encoding="UTF-8"?>
<svg version="1.1" xmlns="http://www.w3.org/2000/svg" width="512" height="512">
<path d="M0 0 C0.73428223 0.34659668 1.46856445 0.69319336 2.22509766 1.05029297 C39.52268299 18.98435047 67.35617342 50.26388115 81.12744141 89.28369141 C85.48098461 102.8364395 88.0537087 116.87322835 88.31640625 131.08984375 C88.33718735 132.03436905 88.35796844 132.97889435 88.37937927 133.95204163 C88.44437354 136.94712573 88.503525 139.94229193 88.5625 142.9375 C88.60573297 144.97722178 88.64934873 147.01693548 88.69335938 149.05664062 C88.80000305 154.03767788 88.9014094 159.0187971 89 164 C89.6609668 164.24016846 90.32193359 164.48033691 91.00292969 164.7277832 C104.1584417 169.7086343 111.93300542 178.9639024 117.6875 191.5625 C124.97293384 210.0346 124.93626943 230.02578293 117.625 248.5 C115.56543655 253.14497288 113.06757629 256.9683283 110 261 C110 261.66 110 262.32 110 263 C118.09040976 267.04520488 127.99327219 267.50807209 136.75390625 265.30859375 C138.99890313 264.37545592 140.95243117 263.30713485 143 262 C143.64839844 261.63390625 144.29679687 261.2678125 144.96484375 260.890625 C163.76176556 248.83081774 173.184278 220.03198067 177.8125 199.4375 C182.33221692 177.49632879 180.58121819 154.91620663 173.671875 133.6875 C173 131 173 131 174 128 C200.8084877 174.41575928 207.60918459 231.764219 193.87792969 283.44433594 C192.69220417 287.66588786 191.38154657 291.83878871 190 296 C189.76023437 296.72364746 189.52046875 297.44729492 189.2734375 298.19287109 C185.75646394 308.58195301 181.1667902 318.33691909 176 328 C175.67773438 328.60585938 175.35546875 329.21171875 175.0234375 329.8359375 C167.79625111 343.29143086 158.89273006 355.38367268 149 367 C147.98099609 368.20462891 147.98099609 368.20462891 146.94140625 369.43359375 C143.24846133 373.70243651 139.42436254 377.5615839 135.109375 381.19921875 C132.79890227 383.17167787 130.59615076 385.24015182 128.375 387.3125 C86.8238909 424.67677979 31.57138042 438.02339927 -23 436 C-58.86939732 433.82832254 -96.10613709 420.35450218 -125 399 C-126.04929687 398.23300781 -127.09859375 397.46601563 -128.1796875 396.67578125 C-135.35480144 391.34236814 -142.05953495 385.58772615 -148.52050781 379.41210938 C-149.5016484 378.4756544 -150.48795247 377.54457769 -151.47949219 376.61914062 C-165.02296929 363.95951602 -175.73255522 349.00030395 -185 333 C-185.3810791 332.34628418 -185.7621582 331.69256836 -186.15478516 331.01904297 C-196.02155573 313.87095725 -203.26846648 295.4405068 -207 276 C-208.546875 276.07927734 -208.546875 276.07927734 -210.125 276.16015625 C-217.50368588 275.8551904 -224.45326985 271.82090018 -229.8125 266.8125 C-242.74378375 252.37099333 -247.67088888 233.60133305 -246.875 214.5 C-245.32605031 197.47935745 -239.76147365 182.67930068 -227 171 C-222.5586979 167.79130597 -218.34866602 165.24846703 -213 164 C-212.9906543 162.87319824 -212.98130859 161.74639648 -212.97167969 160.58544922 C-212.55410148 117.62676672 -212.55410148 117.62676672 -208 101 C-207.79246094 100.23365234 -207.58492187 99.46730469 -207.37109375 98.67773438 C-202.68457621 82.02235616 -195.29583596 65.9259142 -185 52 C-184.42636719 51.21625 -183.85273438 50.4325 -183.26171875 49.625 C-178.84801643 43.78064934 -173.99524762 38.35028174 -169 33 C-167.87658203 31.77796875 -167.87658203 31.77796875 -166.73046875 30.53125 C-125.11029549 -13.0905568 -54.35143708 -25.72265227 0 0 Z " fill="#F1E7C8" transform="translate(276,44)"/>
<path d="M0 0 C6.68656873 3.78637024 11.43984824 8.73988448 13.9453125 16.1015625 C14.51941376 20.56211781 14.50635433 24.98000001 14.4765625 29.47265625 C14.4803894 30.74955826 14.48421631 32.02646027 14.48815918 33.34205627 C14.49087368 36.03466782 14.48558325 38.72581243 14.46679688 41.41821289 C14.44403058 44.84555665 14.45713078 48.2716455 14.48108673 51.69894314 C14.49913401 54.99855713 14.48644416 58.29802578 14.4765625 61.59765625 C14.48465942 62.81666122 14.49275635 64.0356662 14.50109863 65.29161072 C14.40997919 73.63649966 13.2560839 80.15873474 7.796875 86.66015625 C0.86320579 92.51119992 -4.17268083 94.63743277 -13.31640625 94.40234375 C-21.05764859 93.55202184 -25.38293837 89.1617418 -30.390625 83.515625 C-33.50205937 79.00185401 -34.30443223 74.5379803 -34.34521484 69.13134766 C-34.35797455 67.97639801 -34.37073425 66.82144836 -34.38388062 65.63150024 C-34.38610626 64.39701141 -34.38833191 63.16252258 -34.390625 61.890625 C-34.3972818 60.60852142 -34.4039386 59.32641785 -34.41079712 58.00546265 C-34.42273555 55.29722729 -34.42648148 52.58911916 -34.42529297 49.88085938 C-34.4250899 46.42879137 -34.45239338 42.97754772 -34.48683739 39.52567482 C-34.51456383 36.20981398 -34.51325829 32.89410004 -34.515625 29.578125 C-34.52999603 28.34768463 -34.54436707 27.11724426 -34.55917358 25.84951782 C-34.51514726 17.54079275 -33.53454835 12.02340926 -27.87109375 5.640625 C-26.75541016 4.69316406 -26.75541016 4.69316406 -25.6171875 3.7265625 C-24.87597656 3.07945312 -24.13476562 2.43234375 -23.37109375 1.765625 C-16.42365906 -3.22528087 -7.75505918 -3.35947908 0 0 Z " fill="#3F3E3C" transform="translate(218.0546875,193.8984375)"/>
<path d="M0 0 C5.92614423 3.35322752 9.61141453 8.47859499 12.15625 14.703125 C14.50675397 23.88750164 14.59921211 35.53950907 10 44 C7.1678999 48.59809356 4.20980434 53.06146815 -1 55 C-5.55335831 55.66861581 -8.96838387 55.46523865 -13.1875 53.5625 C-19.89139113 47.45451031 -23.55038576 40.45376229 -24.30078125 31.3515625 C-24.33296044 21.11858146 -23.51866298 13.1948906 -17 5 C-11.35765485 -0.35225029 -7.61552254 -2.11677464 0 0 Z " fill="#413F3D" transform="translate(257,117)"/>
<path d="M0 0 C5.53325891 1.87568099 8.92125742 5.51135016 11.9140625 10.421875 C16.65373923 20.38052162 16.88672658 31.39333668 13.3046875 41.78125 C11.02015218 47.63537175 8.46455247 51.15836609 3.3046875 54.78125 C-0.42331145 56.02391632 -3.82314244 56.31027513 -7.6953125 55.78125 C-14.4732532 52.26193464 -18.27434524 47.01650859 -20.9296875 39.98828125 C-23.16688255 30.6171734 -23.17383171 19.44520333 -18.89453125 10.69140625 C-17.13736542 7.89253298 -15.26289458 5.85976883 -12.6953125 3.78125 C-11.7878125 2.9975 -10.8803125 2.21375 -9.9453125 1.40625 C-6.1847652 -0.47402365 -4.08659775 -0.7154986 0 0 Z " fill="#41403D" transform="translate(167.6953125,116.21875)"/>
</svg>
