<?xml version="1.0" encoding="UTF-8"?>
<svg version="1.1" xmlns="http://www.w3.org/2000/svg" width="512" height="512">
<path d="M0 0 C2.42618561 -0.37604749 2.42618561 -0.37604749 5.55041504 -0.37752342 C6.73751823 -0.38534666 7.92462143 -0.39316991 9.14769745 -0.40123022 C11.1212962 -0.39119197 11.1212962 -0.39119197 13.13476562 -0.38095093 C14.53750219 -0.38440457 15.94023604 -0.38916715 17.34296417 -0.39513266 C21.21119254 -0.40771284 25.07920026 -0.40144066 28.94742966 -0.39217401 C33.1138131 -0.3854124 37.28015743 -0.39585033 41.4465332 -0.40411377 C49.61383027 -0.4174843 57.78104483 -0.41455864 65.94834518 -0.40587585 C72.58349029 -0.39911273 79.2186122 -0.39817662 85.85375977 -0.4014473 C87.26792136 -0.40213684 87.26792136 -0.40213684 88.71065187 -0.40284032 C90.62561735 -0.40379946 92.54058282 -0.4047721 94.45554829 -0.4057581 C112.43068661 -0.41432172 130.40577911 -0.40446264 148.38090992 -0.388357 C163.81906707 -0.37495294 179.25715657 -0.37728076 194.6953125 -0.39111328 C212.60420599 -0.40715196 230.51305926 -0.41349765 248.42195892 -0.40427649 C250.33005269 -0.4033208 252.23814646 -0.40237769 254.14624023 -0.4014473 C255.55462937 -0.40075306 255.55462937 -0.40075306 256.99147081 -0.40004479 C263.62200921 -0.39744976 270.25252218 -0.40183693 276.88305664 -0.40888596 C284.95865452 -0.41728217 293.03416486 -0.41506055 301.10975266 -0.39904372 C305.23350596 -0.39113557 309.35711311 -0.3881124 313.48086548 -0.39799118 C317.25092139 -0.40688635 321.02069473 -0.40209168 324.79072475 -0.38605852 C326.81125089 -0.38108384 328.83179643 -0.39095338 330.85230255 -0.40123022 C332.63295734 -0.38949535 332.63295734 -0.38949535 334.44958496 -0.37752342 C335.99607853 -0.37679284 335.99607853 -0.37679284 337.57381439 -0.37604749 C338.77477627 -0.18990398 338.77477627 -0.18990398 340 0 C342.51250637 3.76875955 342.27531207 6.7207831 342.24609566 11.08412457 C342.24840335 11.9216427 342.25071103 12.75916083 342.25308865 13.6220583 C342.25841931 16.45308848 342.24937922 19.28389514 342.24050903 22.11491394 C342.24138047 24.15515503 342.24313032 26.1953959 342.24568737 28.23563558 C342.250177 33.8612634 342.24213509 39.48681561 342.23213124 45.11243379 C342.22352223 51.1717424 342.22641509 57.23104649 342.22793579 63.2903595 C342.22898626 73.79490819 342.22276232 84.29943496 342.21146011 94.80397606 C342.19963415 105.8234996 342.19192986 116.84301327 342.18975449 127.86254311 C342.18961701 128.5471922 342.18947953 129.23184129 342.18933788 129.93723732 C342.18866123 133.41409262 342.18805846 136.89094793 342.18748413 140.36780325 C342.18328107 165.00717179 342.16980013 189.64652741 342.15087891 214.28588867 C342.1325161 238.22566662 342.11834591 262.16544103 342.10986328 286.10522461 C342.10960023 286.84289365 342.10933718 287.58056269 342.10906615 288.34058534 C342.10642916 295.74842602 342.10387752 303.15626672 342.10138843 310.56410745 C342.09631574 325.65531275 342.09067323 340.74651782 342.08468628 355.83772278 C342.08427441 356.87857227 342.08427441 356.87857227 342.08385422 357.94044902 C342.06544668 404.29363815 342.03371402 450.64681973 342 497 C343.28165039 496.97905273 344.56330078 496.95810547 345.88378906 496.93652344 C350.63969751 496.86411334 355.39555724 496.8181964 360.15185547 496.78027344 C362.21020705 496.76016031 364.26850152 496.73286603 366.32666016 496.69824219 C369.28562513 496.64971117 372.24383461 496.62702834 375.203125 496.609375 C376.12305237 496.58872986 377.04297974 496.56808472 377.99078369 496.54681396 C384.34901553 496.54458181 384.34901553 496.54458181 387.58105469 498.80566406 C389.67074367 502.03727531 389.53726585 504.23913907 389 508 C387.41853046 510.18728971 387.41853046 510.18728971 385 512 C381.7506361 512.50139666 381.7506361 512.50139666 377.80351257 512.50336456 C377.0740949 512.50917833 376.34467722 512.51499209 375.59315598 512.52098203 C373.13558399 512.53564359 370.67900116 512.52166884 368.22143555 512.50793457 C366.44716472 512.51254107 364.67289771 512.51889229 362.89863873 512.52684355 C358.0126186 512.54359453 353.1269096 512.53526438 348.24088812 512.52289867 C342.97564391 512.51387404 337.7104544 512.52780502 332.44522095 512.53881836 C322.12650944 512.55663588 311.80791409 512.55274921 301.48919797 512.5411678 C293.10544965 512.53214645 284.72173396 512.53090384 276.33798218 512.53526306 C275.1462737 512.53587599 273.95456521 512.53648893 272.72674435 512.53712043 C270.3060634 512.53839929 267.88538246 512.53969614 265.46470153 512.5410108 C242.74821628 512.55242607 220.03179552 512.53928804 197.31532085 512.51780933 C177.80946545 512.49993751 158.30370525 512.50304135 138.79785156 512.52148438 C116.16449954 512.54287437 93.53120408 512.55132734 70.89784336 512.53903532 C68.48590152 512.53776108 66.07395968 512.5365036 63.66201782 512.53526306 C62.47519321 512.53464596 61.28836859 512.53402886 60.06557959 512.53339306 C51.68867462 512.52993454 43.31180544 512.53577929 34.93490601 512.54518127 C24.7308724 512.55638186 14.52696193 512.55340214 4.3229425 512.5320583 C-0.88663529 512.52152173 -6.09600754 512.51747034 -11.30558395 512.53065491 C-16.07000024 512.54253078 -20.83401951 512.53609604 -25.59839952 512.5147447 C-27.32646489 512.51025816 -29.05456346 512.51259056 -30.78260767 512.52224785 C-33.1233929 512.534331 -35.46280051 512.52202101 -37.80351257 512.50336456 C-39.10606334 512.50271515 -40.4086141 512.50206574 -41.7506361 512.50139666 C-45 512 -45 512 -47.41853046 510.18728971 C-49.72991489 506.99047355 -49.54913606 504.84395241 -49 501 C-47.58105469 498.80566406 -47.58105469 498.80566406 -45 497 C-41.73090583 496.44480387 -38.51056642 496.53514893 -35.203125 496.609375 C-34.25435486 496.61503479 -33.30558472 496.62069458 -32.32806396 496.62652588 C-29.30152664 496.64889391 -26.27617871 496.69909142 -23.25 496.75 C-21.1966317 496.77006443 -19.14324481 496.7883153 -17.08984375 496.8046875 C-12.05943844 496.84876019 -7.02992079 496.91779109 -2 497 C-2.00075944 495.95585015 -2.00151888 494.9117003 -2.00230134 493.83590955 C-2.03562678 447.83651713 -2.06648406 401.83712385 -2.08468628 355.83772278 C-2.08496239 355.1417266 -2.08523851 354.44573043 -2.08552299 353.72864346 C-2.09150828 338.60414728 -2.09704872 323.47965097 -2.10213066 308.35515447 C-2.10462541 300.93851115 -2.10721851 293.52186787 -2.10986328 286.10522461 C-2.1101248 285.3671646 -2.11038632 284.62910458 -2.11065576 283.86867911 C-2.1191842 259.92974955 -2.1342111 235.9908294 -2.15259444 212.05190555 C-2.17144553 187.45930812 -2.18376761 162.86671591 -2.18782998 138.27411138 C-2.18840632 134.80358861 -2.1890576 131.33306585 -2.18975449 127.86254311 C-2.18988933 127.17946904 -2.19002418 126.49639497 -2.19016311 125.79262169 C-2.19253002 114.78026301 -2.20181549 103.76792042 -2.21366407 92.75556832 C-2.2254182 81.69458619 -2.22977872 70.63361636 -2.22700275 59.57262727 C-2.22571641 53.57542293 -2.22774634 47.57826596 -2.23841095 41.58106995 C-2.24809045 36.09808459 -2.24866967 30.6151788 -2.24179779 25.13218991 C-2.24094754 23.14156937 -2.24352936 21.15094401 -2.24976636 19.16033306 C-2.25771557 16.4681643 -2.25351362 13.77628819 -2.24609566 11.08412457 C-2.25134968 10.29945896 -2.25660371 9.51479335 -2.26201695 8.70635 C-2.23824775 4.92593253 -2.15089417 3.22634125 0 0 Z " fill="#CA7B51" transform="translate(86,0)"/>
<path d="M0 0 C2.42618561 -0.37604749 2.42618561 -0.37604749 5.55041504 -0.37752342 C6.73751823 -0.38534666 7.92462143 -0.39316991 9.14769745 -0.40123022 C11.1212962 -0.39119197 11.1212962 -0.39119197 13.13476562 -0.38095093 C14.53750219 -0.38440457 15.94023604 -0.38916715 17.34296417 -0.39513266 C21.21119254 -0.40771284 25.07920026 -0.40144066 28.94742966 -0.39217401 C33.1138131 -0.3854124 37.28015743 -0.39585033 41.4465332 -0.40411377 C49.61383027 -0.4174843 57.78104483 -0.41455864 65.94834518 -0.40587585 C72.58349029 -0.39911273 79.2186122 -0.39817662 85.85375977 -0.4014473 C87.26792136 -0.40213684 87.26792136 -0.40213684 88.71065187 -0.40284032 C90.62561735 -0.40379946 92.54058282 -0.4047721 94.45554829 -0.4057581 C112.43068661 -0.41432172 130.40577911 -0.40446264 148.38090992 -0.388357 C163.81906707 -0.37495294 179.25715657 -0.37728076 194.6953125 -0.39111328 C212.60420599 -0.40715196 230.51305926 -0.41349765 248.42195892 -0.40427649 C250.33005269 -0.4033208 252.23814646 -0.40237769 254.14624023 -0.4014473 C255.55462937 -0.40075306 255.55462937 -0.40075306 256.99147081 -0.40004479 C263.62200921 -0.39744976 270.25252218 -0.40183693 276.88305664 -0.40888596 C284.95865452 -0.41728217 293.03416486 -0.41506055 301.10975266 -0.39904372 C305.23350596 -0.39113557 309.35711311 -0.3881124 313.48086548 -0.39799118 C317.25092139 -0.40688635 321.02069473 -0.40209168 324.79072475 -0.38605852 C326.81125089 -0.38108384 328.83179643 -0.39095338 330.85230255 -0.40123022 C332.63295734 -0.38949535 332.63295734 -0.38949535 334.44958496 -0.37752342 C335.99607853 -0.37679284 335.99607853 -0.37679284 337.57381439 -0.37604749 C338.77477627 -0.18990398 338.77477627 -0.18990398 340 0 C342.51250637 3.76875955 342.27531207 6.7207831 342.24609566 11.08412457 C342.24840335 11.9216427 342.25071103 12.75916083 342.25308865 13.6220583 C342.25841931 16.45308848 342.24937922 19.28389514 342.24050903 22.11491394 C342.24138047 24.15515503 342.24313032 26.1953959 342.24568737 28.23563558 C342.250177 33.8612634 342.24213509 39.48681561 342.23213124 45.11243379 C342.22352223 51.1717424 342.22641509 57.23104649 342.22793579 63.2903595 C342.22898626 73.79490819 342.22276232 84.29943496 342.21146011 94.80397606 C342.19963415 105.8234996 342.19192986 116.84301327 342.18975449 127.86254311 C342.18961701 128.5471922 342.18947953 129.23184129 342.18933788 129.93723732 C342.18866123 133.41409262 342.18805846 136.89094793 342.18748413 140.36780325 C342.18328107 165.00717179 342.16980013 189.64652741 342.15087891 214.28588867 C342.1325161 238.22566662 342.11834591 262.16544103 342.10986328 286.10522461 C342.10960023 286.84289365 342.10933718 287.58056269 342.10906615 288.34058534 C342.10642916 295.74842602 342.10387752 303.15626672 342.10138843 310.56410745 C342.09631574 325.65531275 342.09067323 340.74651782 342.08468628 355.83772278 C342.08427441 356.87857227 342.08427441 356.87857227 342.08385422 357.94044902 C342.06544668 404.2936382 342.03360208 450.64681961 342 497 C333.75 497 325.5 497 317 497 C317 436.28 317 375.56 317 313 C309.41 313 301.82 313 294 313 C291 310 291 310 290.6257782 307.2230072 C290.62640762 306.09874832 290.62703705 304.97448944 290.62768555 303.81616211 C290.62145676 302.54151596 290.61522797 301.26686981 290.60881042 299.95359802 C290.61749758 298.56150929 290.62681546 297.16942436 290.63671875 295.77734375 C290.63723737 294.3515269 290.63671961 292.92570933 290.63520813 291.49989319 C290.63529782 288.51308506 290.64572208 285.52654702 290.66381836 282.53979492 C290.68652624 278.70725411 290.68704571 274.87510726 290.68030071 271.04251766 C290.67696316 268.0991718 290.68358639 265.15591613 290.69342995 262.21258736 C290.69728441 260.79916417 290.69842914 259.38573095 290.6968441 257.97230339 C290.6964742 255.99966054 290.71055389 254.02703081 290.7253418 252.05444336 C290.72994919 250.93098007 290.73455658 249.80751678 290.73930359 248.65000916 C291 246 291 246 293 244 C300.92 244 308.84 244 317 244 C316.67 171.73 316.34 99.46 316 25 C219.64 25 123.28 25 24 25 C23.67 180.76 23.34 336.52 23 497 C14.75 497 6.5 497 -2 497 C-2.03411017 449.94591078 -2.06606671 402.8918209 -2.08468628 355.83772278 C-2.08496239 355.1417266 -2.08523851 354.44573043 -2.08552299 353.72864346 C-2.09150828 338.60414728 -2.09704872 323.47965097 -2.10213066 308.35515447 C-2.10462541 300.93851115 -2.10721851 293.52186787 -2.10986328 286.10522461 C-2.1101248 285.3671646 -2.11038632 284.62910458 -2.11065576 283.86867911 C-2.1191842 259.92974955 -2.1342111 235.9908294 -2.15259444 212.05190555 C-2.17144553 187.45930812 -2.18376761 162.86671591 -2.18782998 138.27411138 C-2.18840632 134.80358861 -2.1890576 131.33306585 -2.18975449 127.86254311 C-2.18988933 127.17946904 -2.19002418 126.49639497 -2.19016311 125.79262169 C-2.19253002 114.78026301 -2.20181549 103.76792042 -2.21366407 92.75556832 C-2.2254182 81.69458619 -2.22977872 70.63361636 -2.22700275 59.57262727 C-2.22571641 53.57542293 -2.22774634 47.57826596 -2.23841095 41.58106995 C-2.24809045 36.09808459 -2.24866967 30.6151788 -2.24179779 25.13218991 C-2.24094754 23.14156937 -2.24352936 21.15094401 -2.24976636 19.16033306 C-2.25771557 16.4681643 -2.25351362 13.77628819 -2.24609566 11.08412457 C-2.25134968 10.29945896 -2.25660371 9.51479335 -2.26201695 8.70635 C-2.23824775 4.92593253 -2.15089417 3.22634125 0 0 Z " fill="#C63627" transform="translate(86,0)"/>
<path d="M0 0 C1.05444966 -0.00935994 1.05444966 -0.00935994 2.13020134 -0.01890898 C4.48574234 -0.03486406 6.84025211 -0.02222582 9.19580078 -0.00964355 C10.88446659 -0.01506359 12.57312768 -0.02218558 14.26177979 -0.03088379 C18.84855979 -0.04913428 23.4349803 -0.04204255 28.02176666 -0.02936745 C32.81920855 -0.0192487 37.61661942 -0.02862999 42.4140625 -0.03491211 C50.47092217 -0.0421918 58.52763524 -0.03259239 66.58447266 -0.0135498 C75.9026788 0.00821956 85.22053487 0.00116842 94.53873253 -0.02085543 C102.53544298 -0.03900027 110.53204797 -0.04157223 118.52877235 -0.03110075 C123.30649174 -0.02486078 128.08404652 -0.024044 132.86175537 -0.0372467 C137.35327309 -0.04879129 141.84433896 -0.04080512 146.3358078 -0.01766968 C147.98538207 -0.01237511 149.63499429 -0.01390914 151.28455353 -0.02272034 C153.53429329 -0.03363058 155.78257975 -0.01996925 158.03222656 0 C159.29173126 0.0015081 160.55123596 0.0030162 161.84890747 0.00457001 C165.01611328 0.50793457 165.01611328 0.50793457 167.42086029 2.15538788 C169.47101444 5.17878503 169.51904215 7.01455444 169.52404785 10.65661621 C169.53532715 11.91845734 169.54660645 13.18029846 169.55822754 14.4803772 C169.55045054 15.87628403 169.54225788 17.27218861 169.53369141 18.66809082 C169.53911229 20.14001152 169.54623476 21.6119268 169.55493164 23.08383179 C169.57317231 27.07973906 169.56609461 31.07523339 169.5534153 35.07114792 C169.54329139 39.25199246 169.55267928 43.43280154 169.55895996 47.61364746 C169.56623816 54.63478954 169.5566442 61.65576335 169.53759766 68.67687988 C169.51582849 76.79540905 169.52287975 84.91353642 169.54490328 93.03205585 C169.56305243 100.00117845 169.56561801 106.97018006 169.5551486 113.93931866 C169.54891097 118.10224176 169.54808535 122.26497598 169.56129456 126.42788696 C169.57284549 130.34160301 169.56484175 134.25480081 169.54171753 138.16846085 C169.53642631 139.60517643 169.53795136 141.0419356 169.54676819 142.47863388 C169.55768898 144.43882444 169.5415691 146.39911026 169.52404785 148.35925293 C169.52253975 149.45652206 169.52103165 150.5537912 169.51947784 151.68431091 C169.01611328 154.50793457 169.01611328 154.50793457 167.42086029 156.86048126 C164.16005323 159.09440747 161.97307127 159.01115046 158.03222656 159.01586914 C157.32926012 159.0221091 156.62629368 159.02834907 155.90202522 159.03477812 C153.54648422 159.0507332 151.19197446 159.03809496 148.83642578 159.0255127 C147.14775997 159.03093273 145.45909889 159.03805472 143.77044678 159.04675293 C139.18366678 159.06500342 134.59724627 159.05791169 130.0104599 159.04523659 C125.21301801 159.03511784 120.41560714 159.04449913 115.61816406 159.05078125 C107.56130439 159.05806094 99.50459133 159.04846153 91.44775391 159.02941895 C82.12954777 159.00764958 72.81169169 159.01470072 63.49349403 159.03672457 C55.49678358 159.05486941 47.50017859 159.05744138 39.50345421 159.04696989 C34.72573482 159.04072992 29.94818004 159.03991315 25.17047119 159.05311584 C20.67895347 159.06466043 16.1878876 159.05667426 11.69641876 159.03353882 C10.04684449 159.02824425 8.39723227 159.02977828 6.74767303 159.03858948 C4.49793327 159.04949972 2.24964681 159.03583839 0 159.01586914 C-1.88925705 159.01360699 -1.88925705 159.01360699 -3.81668091 159.01129913 C-6.98388672 158.50793457 -6.98388672 158.50793457 -9.38863373 156.86048126 C-11.43878787 153.83708411 -11.48681559 152.0013147 -11.49182129 148.35925293 C-11.50310059 147.0974118 -11.51437988 145.83557068 -11.52600098 144.53549194 C-11.51822398 143.13958511 -11.51003131 141.74368054 -11.50146484 140.34777832 C-11.50688572 138.87585762 -11.51400819 137.40394234 -11.52270508 135.93203735 C-11.54094575 131.93613008 -11.53386805 127.94063575 -11.52118874 123.94472122 C-11.51106483 119.76387668 -11.52045271 115.5830676 -11.5267334 111.40222168 C-11.5340116 104.3810796 -11.52441764 97.36010579 -11.50537109 90.33898926 C-11.48360193 82.22046009 -11.49065319 74.10233272 -11.51267672 65.98381329 C-11.53082587 59.01469069 -11.53339144 52.04568908 -11.52292204 45.07655048 C-11.5166844 40.91362738 -11.51585879 36.75089316 -11.52906799 32.58798218 C-11.54061893 28.67426613 -11.53261518 24.76106833 -11.50949097 20.84740829 C-11.50419974 19.41069271 -11.5057248 17.97393354 -11.51454163 16.53723526 C-11.52546241 14.5770447 -11.50934254 12.61675888 -11.49182129 10.65661621 C-11.49031319 9.55934708 -11.48880508 8.46207794 -11.48725128 7.33155823 C-10.98388672 4.50793457 -10.98388672 4.50793457 -9.38863373 2.15538788 C-6.12782667 -0.07853833 -3.94084471 0.00471868 0 0 Z " fill="#E99E74" transform="translate(176.98388671875,298.4920654296875)"/>
<path d="M0 0 C4.81747558 0.48174756 5.63195157 1.74361433 8.75 5.375 C10.00090002 7.33241738 11.14862579 9.32767582 12.28637695 11.3527832 C16.25265625 19.01160222 16.25265625 19.01160222 23.0625 23.6875 C24.6170379 23.96559265 26.18176818 24.189063 27.75 24.375 C30.04552222 24.87856847 32.33709983 25.40036286 34.625 25.9375 C35.71554687 26.16566406 36.80609375 26.39382812 37.9296875 26.62890625 C40.75 27.375 40.75 27.375 43.75 29.375 C45.8067691 29.68068023 45.8067691 29.68068023 48.08203125 29.64624023 C49.38853638 29.66152016 49.38853638 29.66152016 50.72143555 29.67710876 C51.65898682 29.67924881 52.59653809 29.68138885 53.5625 29.68359375 C55.54427387 29.70874637 57.52604463 29.7341445 59.5078125 29.75976562 C62.6350835 29.78855778 65.76230076 29.81257365 68.88964844 29.83129883 C71.90587857 29.85289758 74.92148442 29.89232524 77.9375 29.93359375 C79.3438269 29.93376747 79.3438269 29.93376747 80.77856445 29.9339447 C81.64956787 29.94728348 82.52057129 29.96062225 83.41796875 29.97436523 C84.18391357 29.97943588 84.9498584 29.98450653 85.73901367 29.98973083 C88.32995314 30.48610869 89.2108757 31.25100659 90.75 33.375 C91.11076355 35.25431824 91.11076355 35.25431824 91.09057617 37.38745117 C91.09034958 38.18805466 91.09012299 38.98865814 91.08988953 39.81352234 C91.07440567 40.67298965 91.05892181 41.53245697 91.04296875 42.41796875 C91.03872391 43.3015657 91.03447906 44.18516266 91.03010559 45.09553528 C91.01331043 47.91816661 90.97565697 50.74008441 90.9375 53.5625 C90.92245423 55.47590115 90.90876564 57.38931349 90.89648438 59.30273438 C90.86340419 63.99376459 90.8116163 68.68426131 90.75 73.375 C90.14671875 72.60414062 89.5434375 71.83328125 88.921875 71.0390625 C85.25483534 66.54100306 82.10125792 63.6580688 76.5625 62.0625 C73.04411765 60.88970588 73.04411765 60.88970588 71.75 58.625 C71.2869088 57.23572639 70.84847848 55.83801723 70.43359375 54.43359375 C69.04860025 50.26278474 66.46594561 47.41992408 62.7421875 45.15234375 C58.05636128 42.87473832 53.79239891 41.88664439 48.59765625 41.6484375 C46.75 41.375 46.75 41.375 44.75 39.375 C44.36142822 39.82415771 43.97285645 40.27331543 43.57250977 40.73608398 C41.81956798 42.76189801 40.0660417 44.78720524 38.3125 46.8125 C37.39500977 47.87307617 37.39500977 47.87307617 36.45898438 48.95507812 C35.87568359 49.62861328 35.29238281 50.30214844 34.69140625 50.99609375 C34.15201416 51.6192749 33.61262207 52.24245605 33.05688477 52.88452148 C32.3108583 53.73535122 31.55014584 54.57485416 30.75 55.375 C30.43145136 58.70864856 30.61353972 62.03379069 30.75 65.375 C30.78222656 66.6021875 30.81445312 67.829375 30.84765625 69.09375 C31.27182238 76.51554327 31.27182238 76.51554327 34.828125 82.796875 C37.40253331 84.7711145 40.05981952 86.56308432 42.75 88.375 C48.28532614 93.28860472 51.86231981 98.97240629 55.1875 105.5 C55.70111084 106.50353516 55.70111084 106.50353516 56.22509766 107.52734375 C58.31568338 111.84696458 59.30920981 115.59459933 59.75 120.375 C60.94625 120.2925 62.1425 120.21 63.375 120.125 C68.76957713 120.125 71.70678013 122.53610212 75.625 126.0625 C77.70534222 130.338759 77.57924815 134.93410572 76.05859375 139.41015625 C73.8238088 143.81427219 71.38515236 145.85966173 66.75 147.375 C64.02726297 147.59124626 61.48994332 147.51672121 58.75 147.375 C58.688125 148.15875 58.62625 148.9425 58.5625 149.75 C57.61621443 153.97188946 55.84722898 157.17459684 53.7109375 160.91015625 C52.52282006 163.95772579 53.09533814 165.19648462 53.75 168.375 C53.98596432 172.84074687 54.02015372 177.30602422 54.04516602 181.77709961 C54.05673717 183.2192563 54.0772695 184.66136848 54.10668945 186.10327148 C54.14931879 188.19544323 54.16552033 190.28635453 54.17578125 192.37890625 C54.19765503 194.24784546 54.19765503 194.24784546 54.2199707 196.15454102 C53.75 199.375 53.75 199.375 52.11523438 201.77685547 C47.37807527 204.97766508 41.46380923 203.98516477 35.9375 203.9375 C34.67873047 203.96134766 33.41996094 203.98519531 32.12304688 204.00976562 C22.73070277 203.99491216 19.05487572 202.45911286 12.3125 196.0625 C11.796875 195.505625 11.28125 194.94875 10.75 194.375 C9.76 195.035 8.77 195.695 7.75 196.375 C5.03998852 196.57021269 2.45673209 196.6538975 -0.25 196.625 C-0.97445312 196.63273438 -1.69890625 196.64046875 -2.4453125 196.6484375 C-6.24388493 196.63442063 -8.01837084 196.52941944 -11.25 194.375 C-11.83007812 195.09816406 -11.83007812 195.09816406 -12.421875 195.8359375 C-12.94265625 196.46757812 -13.4634375 197.09921875 -14 197.75 C-14.51046875 198.37648437 -15.0209375 199.00296875 -15.546875 199.6484375 C-19.21038996 203.36236781 -22.55507331 203.63693862 -27.66015625 203.67578125 C-30.21089859 203.69040249 -32.76172374 203.69388013 -35.3125 203.6875 C-36.60478516 203.70361328 -37.89707031 203.71972656 -39.22851562 203.73632812 C-40.46408203 203.73697266 -41.69964844 203.73761719 -42.97265625 203.73828125 C-44.67047241 203.74275269 -44.67047241 203.74275269 -46.40258789 203.74731445 C-49.25 203.375 -49.25 203.375 -51.12182617 202.31298828 C-52.85644691 199.33323944 -52.63771827 196.35262527 -52.578125 193.00390625 C-52.57625183 192.2851683 -52.57437866 191.56643036 -52.57244873 190.82591248 C-52.5657318 189.30699012 -52.55182425 187.78808497 -52.53125 186.26928711 C-52.50016139 183.94954258 -52.49028377 181.6304789 -52.484375 179.31054688 C-52.47520151 177.83332509 -52.46482464 176.35611019 -52.453125 174.87890625 C-52.44675018 173.84123863 -52.44675018 173.84123863 -52.44024658 172.78260803 C-52.39143753 169.47686894 -52.06192433 166.56563064 -51.25 163.375 C-52.18228155 160.93411346 -52.18228155 160.93411346 -53.625 158.5 C-55.62457517 154.75564318 -56.91095287 151.66959699 -57.25 147.375 C-58.425625 147.4575 -59.60125 147.54 -60.8125 147.625 C-65.73242019 147.60755347 -68.30522215 146.31424624 -72.25 143.375 C-75.18977227 139.29725137 -75.8335571 135.48286092 -75.67578125 130.55859375 C-74.93518665 126.76049851 -73.02454471 125.02049612 -70.25 122.375 C-67.04619983 120.23913322 -66.23060033 120.14367825 -62.5625 120.25 C-61.75425781 120.26804687 -60.94601563 120.28609375 -60.11328125 120.3046875 C-59.49839844 120.32789063 -58.88351563 120.35109375 -58.25 120.375 C-58.18683594 119.80394531 -58.12367188 119.23289062 -58.05859375 118.64453125 C-56.18914207 106.26679328 -49.33347849 95.79346509 -40.25 87.375 C-38.61258662 86.29956937 -36.96697859 85.23648723 -35.3125 84.1875 C-32.20561642 81.90334517 -31.35108805 80.71744558 -30.2421875 76.9609375 C-29.69084598 73.08601608 -29.431004 69.28304093 -29.25 65.375 C-29.09015625 64.45976563 -28.9303125 63.54453125 -28.765625 62.6015625 C-28.13855735 57.98813619 -28.75863959 56.03041929 -31.6015625 52.23828125 C-33.50468526 50.08489188 -35.4961682 48.0475121 -37.55078125 46.0390625 C-39.71769075 43.90037613 -41.52127976 41.86482916 -43.25 39.375 C-43.91 40.035 -44.57 40.695 -45.25 41.375 C-47.32249959 41.73568363 -49.40939078 42.01611906 -51.5 42.25 C-58.09686127 43.1882526 -61.76799274 44.82207825 -66.4375 49.625 C-68.09148813 52.13449924 -68.61857664 53.6256918 -69.375 56.4375 C-70.32026185 59.23672846 -70.79519048 60.13588167 -73.44921875 61.53125 C-75.20645684 62.140636 -76.9697355 62.7328482 -78.73828125 63.30859375 C-82.7395038 65.00740208 -84.751178 67.94756171 -87.25 71.375 C-88.24 72.365 -88.24 72.365 -89.25 73.375 C-89.32410727 67.73334639 -89.37858167 62.09197553 -89.41479492 56.44995117 C-89.4298898 54.53030462 -89.45036773 52.6106926 -89.47631836 50.69116211 C-89.51267109 47.93334436 -89.52971912 45.1759822 -89.54296875 42.41796875 C-89.55845261 41.55850143 -89.57393646 40.69903412 -89.58988953 39.81352234 C-89.59011612 39.01291885 -89.59034271 38.21231537 -89.59057617 37.38745117 C-89.59723801 36.6835173 -89.60389984 35.97958344 -89.61076355 35.25431824 C-89.12727878 32.73571083 -88.30955433 31.8765072 -86.25 30.375 C-84.25920105 29.99645996 -84.25920105 29.99645996 -81.96557617 29.99023438 C-81.10425583 29.98012329 -80.24293549 29.97001221 -79.35551453 29.95959473 C-78.42737442 29.96261597 -77.49923431 29.96563721 -76.54296875 29.96875 C-75.10574211 29.95249573 -75.10574211 29.95249573 -73.63948059 29.93591309 C-70.57208537 29.90159886 -67.50506204 29.88605255 -64.4375 29.875 C-60.4097993 29.86041263 -56.3829268 29.82666238 -52.35546875 29.78125 C-50.97236763 29.78578186 -50.97236763 29.78578186 -49.56132507 29.79040527 C-44.28270682 29.72911224 -40.91410715 29.07470411 -36.25 26.375 C-34.02758789 25.82592773 -34.02758789 25.82592773 -31.97265625 25.55859375 C-23.26718043 24.40210686 -23.26718043 24.40210686 -15.765625 20.28125 C-14.00195085 17.72473151 -12.62293164 15.1595374 -11.25 12.375 C-9.97700353 10.34235391 -8.68539063 8.32124252 -7.375 6.3125 C-6.51261719 4.93384766 -6.51261719 4.93384766 -5.6328125 3.52734375 C-3.63615802 0.41955669 -3.63615802 0.41955669 0 0 Z " fill="#E99E74" transform="translate(255.25,41.625)"/>
<path d="M0 0 C1.81274414 0.01450195 1.81274414 0.01450195 3.66210938 0.02929688 C5.55606445 0.06700195 5.55606445 0.06700195 7.48828125 0.10546875 C9.39963867 0.12577148 9.39963867 0.12577148 11.34960938 0.14648438 C14.50042182 0.18188676 17.6503917 0.23127085 20.80078125 0.29296875 C20.14078125 1.28296875 19.48078125 2.27296875 18.80078125 3.29296875 C18.6047412 5.89821583 18.52632317 8.39660746 18.53906822 11.00227642 C18.53507216 11.79927359 18.5310761 12.59627075 18.52695894 13.41741934 C18.51591654 16.11059116 18.51919549 18.80355984 18.52230835 21.49674988 C18.51730935 23.4379976 18.51143473 25.37924323 18.50475562 27.32048589 C18.4888937 32.6724581 18.48552154 38.02437791 18.48410702 43.37637079 C18.48042373 49.14121342 18.46527369 54.90602693 18.45149231 60.67085266 C18.42918185 70.66464625 18.41419137 80.65842953 18.40412521 90.65224266 C18.38956061 105.10174587 18.36403008 119.55121319 18.33579393 134.00069539 C18.29028552 157.4421045 18.2536704 180.88351873 18.22265625 204.32495117 C18.19250174 227.10067654 18.15816761 249.87638932 18.11816406 272.65209961 C18.11693306 273.35391131 18.11570206 274.05572301 18.11443375 274.77880173 C18.1020671 281.82656097 18.08961536 288.87432006 18.07710127 295.92207905 C18.05160963 310.27970163 18.02668599 324.63732517 18.00210571 338.99494934 C17.99984768 340.31364613 17.99758964 341.63234292 17.99526317 342.99100021 C17.92113933 386.42497537 17.86009417 429.85897117 17.80078125 473.29296875 C18.5081122 473.29144987 19.21544316 473.28993099 19.94420838 473.28836608 C61.83864402 473.19891172 103.7330686 473.13025186 145.62758048 473.08870743 C150.65455251 473.08370443 155.68152435 473.07852715 160.70849609 473.07324219 C162.20970615 473.07166832 162.20970615 473.07166832 163.74124369 473.07006267 C179.95985308 473.05264327 196.17840593 473.02109715 212.39698175 472.98435757 C229.03078007 472.94699081 245.66454872 472.92474194 262.29838729 472.91661477 C272.56769054 472.91111813 282.83683399 472.89373904 293.10608807 472.86130288 C300.14196185 472.84020762 307.17775267 472.83375736 314.2136558 472.83896324 C318.2769457 472.84153282 322.33995581 472.83751182 326.40319633 472.81614685 C330.12043775 472.79674329 333.83721007 472.79565787 337.55447266 472.80937317 C339.541831 472.8118751 341.52918348 472.79456751 343.51646256 472.77664351 C344.69136428 472.78460771 345.86626599 472.7925719 347.07677078 472.80077744 C348.09290239 472.79925855 349.10903399 472.79773967 350.15595746 472.79617476 C353.54439014 473.43264551 354.72736637 474.58211799 356.80078125 477.29296875 C357.34991731 481.13692116 357.53069614 483.2834423 355.21931171 486.48025846 C351.9069035 488.96293814 349.72471558 488.79427901 345.60429382 488.79633331 C344.87487615 488.80214708 344.14545847 488.80796084 343.39393723 488.81395078 C340.93636524 488.82861234 338.47978241 488.81463759 336.0222168 488.80090332 C334.24794597 488.80550982 332.47367896 488.81186104 330.69941998 488.8198123 C325.81339985 488.83656328 320.92769085 488.82823313 316.04166937 488.81586742 C310.77642516 488.80684279 305.51123565 488.82077377 300.2460022 488.83178711 C289.92729069 488.84960463 279.60869534 488.84571796 269.28997922 488.83413655 C260.9062309 488.8251152 252.52251521 488.82387259 244.13876343 488.82823181 C242.94705495 488.82884474 241.75534646 488.82945768 240.5275256 488.83008918 C238.10684465 488.83136804 235.68616371 488.83266489 233.26548278 488.83397955 C210.54899753 488.84539482 187.83257677 488.83225679 165.1161021 488.81077808 C145.6102467 488.79290626 126.1044865 488.7960101 106.59863281 488.81445312 C83.96528079 488.83584312 61.33198533 488.84429609 38.69862461 488.83200407 C36.28668277 488.83072983 33.87474093 488.82947235 31.46279907 488.82823181 C30.27597446 488.82761471 29.08914984 488.82699761 27.86636084 488.82636181 C19.48945587 488.82290329 11.11258669 488.82874804 2.73568726 488.83815002 C-7.46834635 488.84935061 -17.67225682 488.84637089 -27.87627625 488.82502705 C-33.08585404 488.81449048 -38.29522629 488.81043909 -43.5048027 488.82362366 C-48.26921899 488.83549953 -53.03323826 488.82906479 -57.79761827 488.80771345 C-59.52568364 488.80322691 -61.25378221 488.80555931 -62.98182642 488.8152166 C-65.32261165 488.82729975 -67.66201926 488.81498976 -70.00273132 488.79633331 C-71.30528209 488.7956839 -72.60783285 488.79503449 -73.94985485 488.79436541 C-77.19921875 488.29296875 -77.19921875 488.29296875 -79.61774921 486.48025846 C-81.92913364 483.2834423 -81.74835481 481.13692116 -81.19921875 477.29296875 C-79.00393435 474.31139318 -77.83019614 473.39207258 -74.13665771 472.81195068 C-72.93752747 472.82083313 -71.73839722 472.82971558 -70.50292969 472.83886719 C-69.83910278 472.83828308 -69.17527588 472.83769897 -68.49133301 472.83709717 C-66.30488137 472.8398761 -64.11980613 472.87095547 -61.93359375 472.90234375 C-60.41474146 472.90980691 -58.89587953 472.91549949 -57.37701416 472.91949463 C-53.3851855 472.93474534 -49.39394178 472.97402152 -45.40234375 473.01831055 C-41.32690341 473.05927586 -37.25136827 473.07750829 -33.17578125 473.09765625 C-25.18332573 473.140517 -17.19134507 473.20876071 -9.19921875 473.29296875 C-9.20035791 472.29960217 -9.20149707 471.30623559 -9.20267075 470.282767 C-9.25265941 426.52016901 -9.2988967 382.75756801 -9.32624817 338.99494934 C-9.32686943 338.00170563 -9.32686943 338.00170563 -9.32750323 336.98839639 C-9.33648119 322.59909719 -9.34479184 308.20979768 -9.35241474 293.8204977 C-9.35615687 286.76436494 -9.36004651 279.70823225 -9.36401367 272.65209961 C-9.36440595 271.94991582 -9.36479823 271.24773203 -9.36520239 270.52426995 C-9.37799484 247.74937692 -9.40053502 224.97450618 -9.42811041 202.19962666 C-9.45718857 178.13999299 -9.47520155 154.08037392 -9.48148423 130.02072316 C-9.48560911 115.60107456 -9.49865648 101.18148988 -9.52296815 86.76186094 C-9.53877531 76.88579046 -9.54363055 67.00975323 -9.53972288 57.13367101 C-9.53779348 51.42807969 -9.54083681 45.72260041 -9.55683517 40.01702881 C-9.57135627 34.80046976 -9.57222218 29.58409888 -9.56191543 24.36753146 C-9.56064024 22.47381255 -9.56451155 20.58008224 -9.5738683 18.68638601 C-9.58579587 16.12478157 -9.57948779 13.56386877 -9.56836224 11.00227642 C-9.5801838 9.88303445 -9.5801838 9.88303445 -9.59224418 8.74118152 C-9.56321014 5.81081901 -9.53997621 3.78898284 -7.85234052 1.33242303 C-5.26755857 -0.292843 -3.01964111 -0.04253016 0 0 Z " fill="#B96E50" transform="translate(118.19921875,23.70703125)"/>
<path d="M0 0 C0.70511719 0.70769531 1.41023438 1.41539063 2.13671875 2.14453125 C3.55837661 3.57120378 4.98603318 4.986685 6.44384766 6.37646484 C15.323557 14.85567568 15.323557 14.85567568 16.78125 19.4765625 C16.81616128 22.08618101 16.44324511 24.4277251 16 27 C15.96648437 28.20140625 15.93296875 29.4028125 15.8984375 30.640625 C15.37213543 40.42594498 15.37213543 40.42594498 11.6640625 44.6796875 C8.84812131 46.90929573 5.95324921 48.95733596 3 51 C-5.76003164 58.69924655 -11.1461486 70.85983895 -14 82 C-14.59167969 82.02578125 -15.18335938 82.0515625 -15.79296875 82.078125 C-21.05994675 82.45617889 -24.17381203 83.05786694 -28 87 C-30.7110181 91.06652715 -30.51355905 94.2312374 -30 99 C-28.6929909 102.92102729 -27.73945528 104.5012976 -24.3125 106.8125 C-20.44724509 108.19815742 -17.08412056 108.64792064 -13 109 C-12.66226563 109.90363281 -12.32453125 110.80726563 -11.9765625 111.73828125 C-11.53054687 112.91777344 -11.08453125 114.09726563 -10.625 115.3125 C-10.18414062 116.48425781 -9.74328125 117.65601563 -9.2890625 118.86328125 C-8.08510352 122.08553593 -8.08510352 122.08553593 -6 125 C-6.28551443 126.34438477 -6.63154548 127.67594178 -7 129 C-7.1061585 131.52246873 -7.16392926 134.01655628 -7.16796875 136.5390625 C-7.17129715 137.26112885 -7.17462555 137.98319519 -7.17805481 138.72714233 C-7.18310416 140.24842697 -7.18546375 141.76972262 -7.18530273 143.29101562 C-7.18749895 145.62388085 -7.20570156 147.95628026 -7.22460938 150.2890625 C-7.22754172 151.76822755 -7.22952758 153.24739484 -7.23046875 154.7265625 C-7.23765427 155.42552643 -7.24483978 156.12449036 -7.25224304 156.84463501 C-7.34560018 160.87001645 -7.34560018 160.87001645 -5 164 C-0.43548827 164.49076337 4.16215711 164.37042131 8.75 164.375 C10.02617187 164.39949219 11.30234375 164.42398438 12.6171875 164.44921875 C21.83351819 164.47807991 25.28091873 163.55738208 31.875 157.25 C32.57625 156.5075 33.2775 155.765 34 155 C34.66 155.66 35.32 156.32 36 157 C38.66798565 157.19936596 41.20906728 157.27831079 43.875 157.25 C44.59558594 157.25773438 45.31617188 157.26546875 46.05859375 157.2734375 C49.85499069 157.25945445 52.78280815 157.12233599 56 155 C57.13932292 156.46484375 58.27864583 157.9296875 59.41796875 159.39453125 C62.31797642 162.33750199 64.96356629 163.86981122 69.09033203 164.38818359 C70.21810059 164.39156738 71.34586914 164.39495117 72.5078125 164.3984375 C74.35826172 164.40423828 74.35826172 164.40423828 76.24609375 164.41015625 C77.52613281 164.39855469 78.80617188 164.38695312 80.125 164.375 C82.05666016 164.39240234 82.05666016 164.39240234 84.02734375 164.41015625 C85.87392578 164.40435547 85.87392578 164.40435547 87.7578125 164.3984375 C88.8833252 164.39505371 90.00883789 164.39166992 91.16845703 164.38818359 C93.94651358 164.19149368 93.94651358 164.19149368 95.86962891 162.90625 C97.60270989 159.9835942 97.3533122 157.47360766 97.328125 154.1015625 C97.32531525 153.09360123 97.32531525 153.09360123 97.32244873 152.0652771 C97.31573266 150.64470454 97.30182676 149.22415034 97.28125 147.80371094 C97.25021224 145.63979708 97.24028788 143.47661403 97.234375 141.3125 C97.29180962 134.2197521 97.29180962 134.2197521 96.42944336 127.20629883 C95.83357798 124.14499384 96.80834697 122.74455314 98.3125 120.0625 C100.26656712 116.43119194 101.84801746 112.97957604 103 109 C103.67546875 108.87882812 104.3509375 108.75765625 105.046875 108.6328125 C105.93890625 108.46523437 106.8309375 108.29765625 107.75 108.125 C108.63171875 107.96257812 109.5134375 107.80015625 110.421875 107.6328125 C114.37984642 106.66131042 116.42406221 105.84333747 118.75 102.4375 C120.31108878 98.14450585 120.75838699 94.51698626 120 90 C117.90957747 86.49107647 115.8900082 84.2966694 112 83 C109.33320068 82.55895242 106.6930916 82.26930916 104 82 C103.67128906 80.89205078 103.67128906 80.89205078 103.3359375 79.76171875 C99.01285268 65.93136204 92.61773084 53.74530662 80.0625 45.8125 C76.95561642 43.52834517 76.10108805 42.34244558 74.9921875 38.5859375 C74.44084598 34.71101608 74.181004 30.90804093 74 27 C73.76023437 25.62714844 73.76023437 25.62714844 73.515625 24.2265625 C72.89562242 19.66511495 73.50910203 17.6674195 76.28125 13.8984375 C79.02483756 10.76053921 81.98530323 7.87400412 85 5 C86.67391822 3.34045017 88.33628467 1.66979839 90 0 C90.33 0.66 90.66 1.32 91 2 C92.84184742 2.34479384 94.70069404 2.60045452 96.5625 2.8125 C103.52742616 3.90309342 108.25378302 5.69982509 112.8203125 11.1875 C117 17.09738372 117 17.09738372 117 22 C117.86625 22.0825 118.7325 22.165 119.625 22.25 C126.28175402 23.72927867 130.06253255 27.7500434 134 33 C135.65815828 35.76359714 136 36.71603784 136 40 C134.783125 40.37125 133.56625 40.7425 132.3125 41.125 C127.64315134 42.9081438 125.59688572 44.69890802 123 49 C121.9024425 54.2872722 123.05778049 58.48159147 126 63 C129.76453798 66.42230726 132.6001788 66.49789348 137.5234375 66.3671875 C141.2427045 65.81575044 143.12221703 64.37417095 146 62 C146.66 61.67 147.32 61.34 148 61 C148.02717692 63.06242617 148.0464758 65.12495703 148.0625 67.1875 C148.07410156 68.33605469 148.08570313 69.48460937 148.09765625 70.66796875 C148 74 148 74 147.37890625 76.7578125 C146.69214104 79.22769495 146.69214104 79.22769495 148.875 81.6875 C149.57625 82.450625 150.2775 83.21375 151 84 C153.4136364 88.82727281 152.42340699 95.69069915 152 101 C150.98838185 103.8739152 149.85158595 105.53121873 148 108 C146.66342113 110.94394094 146.66342113 110.94394094 148 113.5625 C149.59637706 119.05004613 149.23033349 124.1537061 146.953125 129.421875 C144.67990767 133.37895702 144.67990767 133.37895702 143 135 C138.6149161 135 138.19442551 134.57614961 135 132 C131.38069302 130.79356434 128.80768995 130.67731441 125 131 C121.29609979 133.02666238 119.34636989 134.48044516 117 138 C116.40977423 142.52250916 116.47270541 146.69563971 118.1875 150.9375 C121.87971254 155.13898324 125.5229088 156.36312893 131 157 C129.62850499 161.11448502 127.74809303 161.9177261 124 164 C120.125 164.75 120.125 164.75 117 165 C117 165.969375 117 166.93875 117 167.9375 C116.19373673 173.59286097 112.08631741 177.31790464 108 181 C102.41913654 184.41052767 97.34326674 184.34460403 91 184 C90.57267578 184.91072266 90.57267578 184.91072266 90.13671875 185.83984375 C87.72428154 190.42430346 83.99026429 193.62494115 79.16015625 195.50390625 C73.75809399 196.74452453 67.67795965 196.66463149 62.30859375 195.33203125 C61.54675781 195.22246094 60.78492188 195.11289062 60 195 C58.6078125 196.2065625 58.6078125 196.2065625 57.1875 197.4375 C52.40829358 201.20389446 46.5614506 200.77737602 40.76171875 200.51171875 C35.73617071 199.82807722 33.758423 198.25729993 30 195 C27.63553601 195.3085279 27.63553601 195.3085279 25 196 C11.36216387 196.88756881 11.36216387 196.88756881 6 193 C3.20351403 190.45774003 1.09683339 188.14525008 -1 185 C-3.39226881 184.6025184 -3.39226881 184.6025184 -6.125 184.625 C-13.71496685 184.10908068 -18.27516439 181.05646212 -23.4375 175.625 C-26.25956662 172.14521596 -26.81920867 169.42938765 -27 165 C-28.010625 164.938125 -29.02125 164.87625 -30.0625 164.8125 C-34.70653556 164.1680216 -37.44415227 161.97530116 -41 159 C-41 158.34 -41 157.68 -41 157 C-40.39671875 156.85304687 -39.7934375 156.70609375 -39.171875 156.5546875 C-35.06997862 155.40351013 -32.4958761 154.4958761 -29.4375 151.4375 C-27.51296336 146.83534717 -27.18706876 142.91864459 -28 138 C-29.77446363 134.84539798 -31.15549616 133.49262724 -34.25 131.6875 C-37.90122911 130.77469272 -41.26781914 130.34004119 -45 131 C-46.7074998 132.28062485 -48.38263741 133.6072711 -50 135 C-52.0625 135.1875 -52.0625 135.1875 -54 134 C-57.95475705 128.68932625 -59.18735679 123.60953138 -59 117 C-58.62948859 115.61185109 -58.21474202 114.23450394 -57.75 112.875 C-56.92272263 108.60073361 -57.08887255 108.18363555 -59.3125 104.75 C-59.78300781 104.12609375 -60.25351563 103.5021875 -60.73828125 102.859375 C-63.42815271 98.8953539 -63.31160368 94.67405525 -63 90 C-61.84628931 85.92455444 -60.35213806 82.52820709 -58 79 C-57.34 79 -56.68 79 -56 79 C-56.49113281 77.97326172 -56.49113281 77.97326172 -56.9921875 76.92578125 C-58.16848212 73.51087941 -58.19777146 70.78968716 -58.125 67.1875 C-58.10695312 66.02605469 -58.08890625 64.86460937 -58.0703125 63.66796875 C-58.04710937 62.78753906 -58.02390625 61.90710938 -58 61 C-57.05125 61.825 -56.1025 62.65 -55.125 63.5 C-51.23022016 66.27295684 -48.08926117 66.68040472 -43.37109375 66.421875 C-39.78455552 65.78374299 -37.65523558 64.45609291 -35 62 C-32.58324699 58.04531326 -32.15613525 53.53022126 -33 49 C-36.39764381 43.37265244 -39.80851034 41.88892905 -46 40 C-45.31113645 34.14465985 -42.39668467 30.03448807 -38 26.25 C-33.87626525 23.15719894 -32.20287296 22 -27 22 C-26.9175 21.13375 -26.835 20.2675 -26.75 19.375 C-25.29066448 12.80799017 -21.35304996 8.85419597 -16 5 C-11.68094694 3.08042086 -7.51985383 2.65627161 -2.85546875 2.34375 C-2.24316406 2.2303125 -1.63085938 2.116875 -1 2 C-0.67 1.34 -0.34 0.68 0 0 Z " fill="#299D48" transform="translate(211,80)"/>
<path d="M0 0 C1.02631531 -0.00708481 2.05263062 -0.01416962 3.11004639 -0.02146912 C4.23533752 -0.0189917 5.36062866 -0.01651428 6.52001953 -0.01396179 C7.70557434 -0.01907272 8.89112915 -0.02418365 10.11260986 -0.02944946 C13.36464363 -0.04097852 16.61651956 -0.04341742 19.86856842 -0.04088616 C22.58242417 -0.03981714 25.29625634 -0.04469796 28.01010704 -0.04949158 C34.41121557 -0.06058898 40.81226541 -0.06102263 47.21337891 -0.05497742 C53.82030588 -0.04893389 60.42702009 -0.06125756 67.03391075 -0.08254749 C72.70447334 -0.10014932 78.37496811 -0.10616718 84.04555702 -0.10290974 C87.43324188 -0.10109474 90.8207749 -0.10375456 94.20843506 -0.11762428 C97.98434022 -0.12990847 101.75974782 -0.12324512 105.53564453 -0.11161804 C106.66093567 -0.11926178 107.78622681 -0.12690552 108.94561768 -0.13478088 C110.48509064 -0.12425941 110.48509064 -0.12425941 112.05566406 -0.11352539 C112.94867218 -0.11369313 113.8416803 -0.11386087 114.76174927 -0.1140337 C117.02783203 0.26069641 117.02783203 0.26069641 118.8147831 1.52273178 C120.31035419 3.66547276 120.40480592 4.84234634 120.40878296 7.44235229 C120.41724243 8.29341553 120.4257019 9.14447876 120.43441772 10.02133179 C120.42530869 11.4170768 120.42530869 11.4170768 120.41601562 12.84101868 C120.42390106 14.31452286 120.42390106 14.31452286 120.4319458 15.8177948 C120.44517051 19.07105823 120.43639948 22.32383409 120.42626953 25.57710266 C120.42828939 27.83246963 120.43120008 30.08783596 120.43496704 32.34320068 C120.43939362 37.07186598 120.43294788 41.80036139 120.41894531 46.52900696 C120.40184361 52.60133395 120.41169897 58.67326347 120.4296627 64.7455759 C120.4404831 69.40287289 120.43706238 74.06007502 120.42927933 78.7173748 C120.427273 80.95696497 120.42975167 83.19656365 120.43671799 85.43614388 C120.4443048 88.56091892 120.43276744 91.68504238 120.41601562 94.80976868 C120.42208832 95.74228958 120.42816101 96.67481049 120.43441772 97.6355896 C120.42172852 98.90795471 120.42172852 98.90795471 120.40878296 100.20602417 C120.40765188 100.94509286 120.40652081 101.68416155 120.40535545 102.44562626 C120.02783203 104.26069641 120.02783203 104.26069641 117.02783203 106.26069641 C114.74333858 106.51237869 114.74333858 106.51237869 112.01097107 106.5146637 C110.97479645 106.52030334 109.93862183 106.52594299 108.87104797 106.53175354 C107.73483505 106.52770508 106.59862213 106.52365662 105.42797852 106.51948547 C103.63260651 106.52474243 103.63260651 106.52474243 101.80096436 106.53010559 C98.51800013 106.53740629 95.23519683 106.53568608 91.95223498 106.52934742 C88.51918366 106.52428805 85.08614317 106.52897859 81.65309143 106.53211975 C75.88874376 106.53575909 70.12444732 106.53096064 64.36010742 106.5214386 C57.69071775 106.51054892 51.02145031 106.51408343 44.3520636 106.52509141 C38.62971557 106.53415906 32.90740439 106.53545229 27.1850515 106.53021407 C23.7655789 106.52709215 20.3461638 106.52669119 16.92669487 106.53328705 C13.11714171 106.53834217 9.30782637 106.53065638 5.49829102 106.51948547 C4.36005386 106.52353394 3.22181671 106.5275824 2.04908752 106.53175354 C1.01573273 106.52611389 -0.01762207 106.52047424 -1.08229065 106.5146637 C-1.9835949 106.51390965 -2.88489916 106.51315559 -3.81351566 106.51237869 C-5.97216797 106.26069641 -5.97216797 106.26069641 -7.97216797 104.26069641 C-8.22664356 102.42721558 -8.22664356 102.42721558 -8.23286438 100.16133118 C-8.23994919 99.30322845 -8.247034 98.44512573 -8.2543335 97.5610199 C-8.25185608 96.61757721 -8.24937866 95.67413452 -8.24682617 94.70210266 C-8.2519371 93.710159 -8.25704803 92.71821533 -8.26231384 91.69621277 C-8.27625648 88.40514658 -8.27524971 85.11428868 -8.27294922 81.82319641 C-8.27683328 79.54398012 -8.28116734 77.26476455 -8.28593445 74.98554993 C-8.29340651 70.20386917 -8.29309802 65.42226225 -8.2878418 60.64057922 C-8.28204272 54.49986265 -8.29898418 48.35944726 -8.32218647 42.21878052 C-8.3368862 37.51088176 -8.3378007 32.80305619 -8.33467674 28.09513855 C-8.33519175 25.830423 -8.3404628 23.56570355 -8.35048866 21.30101013 C-8.36276437 18.14023501 -8.35611503 14.98005507 -8.34448242 11.81929016 C-8.35212616 10.87584747 -8.3597699 9.93240479 -8.36764526 8.96037292 C-8.36063095 8.1022702 -8.35361664 7.24416748 -8.34638977 6.36006165 C-8.34655751 5.61231979 -8.34672525 4.86457794 -8.34689808 4.09417725 C-7.47107887 -0.19103412 -3.57077128 0.00820858 0 0 Z " fill="#A95236" transform="translate(199.97216796875,324.7393035888672)"/>
<path d="M0 0 C4.81747558 0.48174756 5.63195157 1.74361433 8.75 5.375 C10.00090002 7.33241738 11.14862579 9.32767582 12.28637695 11.3527832 C16.25265625 19.01160222 16.25265625 19.01160222 23.0625 23.6875 C24.6170379 23.96559265 26.18176818 24.189063 27.75 24.375 C30.04552222 24.87856847 32.33709983 25.40036286 34.625 25.9375 C35.71554687 26.16566406 36.80609375 26.39382812 37.9296875 26.62890625 C40.75 27.375 40.75 27.375 43.75 29.375 C45.8067691 29.68068023 45.8067691 29.68068023 48.08203125 29.64624023 C49.38853638 29.66152016 49.38853638 29.66152016 50.72143555 29.67710876 C51.65898682 29.67924881 52.59653809 29.68138885 53.5625 29.68359375 C55.54427387 29.70874637 57.52604463 29.7341445 59.5078125 29.75976562 C62.6350835 29.78855778 65.76230076 29.81257365 68.88964844 29.83129883 C71.90587857 29.85289758 74.92148442 29.89232524 77.9375 29.93359375 C79.3438269 29.93376747 79.3438269 29.93376747 80.77856445 29.9339447 C81.64956787 29.94728348 82.52057129 29.96062225 83.41796875 29.97436523 C84.18391357 29.97943588 84.9498584 29.98450653 85.73901367 29.98973083 C88.32995314 30.48610869 89.2108757 31.25100659 90.75 33.375 C91.11076355 35.25431824 91.11076355 35.25431824 91.09057617 37.38745117 C91.09034958 38.18805466 91.09012299 38.98865814 91.08988953 39.81352234 C91.07440567 40.67298965 91.05892181 41.53245697 91.04296875 42.41796875 C91.03872391 43.3015657 91.03447906 44.18516266 91.03010559 45.09553528 C91.01331043 47.91816661 90.97565697 50.74008441 90.9375 53.5625 C90.92245423 55.47590115 90.90876564 57.38931349 90.89648438 59.30273438 C90.86340419 63.99376459 90.8116163 68.68426131 90.75 73.375 C90.14671875 72.60414062 89.5434375 71.83328125 88.921875 71.0390625 C85.25483534 66.54100306 82.10125792 63.6580688 76.5625 62.0625 C73.04411765 60.88970588 73.04411765 60.88970588 71.75 58.625 C71.2869088 57.23572639 70.84847848 55.83801723 70.43359375 54.43359375 C69.04860025 50.26278474 66.46594561 47.41992408 62.7421875 45.15234375 C58.05636128 42.87473832 53.79239891 41.88664439 48.59765625 41.6484375 C46.75 41.375 46.75 41.375 44.75 39.375 C44.36142822 39.82415771 43.97285645 40.27331543 43.57250977 40.73608398 C41.81956798 42.76189801 40.0660417 44.78720524 38.3125 46.8125 C37.39500977 47.87307617 37.39500977 47.87307617 36.45898438 48.95507812 C35.87568359 49.62861328 35.29238281 50.30214844 34.69140625 50.99609375 C34.15201416 51.6192749 33.61262207 52.24245605 33.05688477 52.88452148 C32.3108583 53.73535122 31.55014584 54.57485416 30.75 55.375 C30.71129442 57.41374542 30.73849935 59.45380233 30.79296875 61.4921875 C30.82487305 63.36197266 30.82487305 63.36197266 30.85742188 65.26953125 C30.91065546 67.91563003 30.97569329 70.56151859 31.05273438 73.20703125 C31.07013672 74.45613281 31.08753906 75.70523438 31.10546875 76.9921875 C31.14643677 78.71864502 31.14643677 78.71864502 31.18823242 80.47998047 C30.75 83.375 30.75 83.375 28.95947266 85.27929688 C25.4842531 87.00269857 22.36563508 86.29446206 18.75 85.375 C15.01382591 84.04759712 11.44017744 82.38491907 7.84179688 80.7265625 C2.43922628 78.33054877 2.43922628 78.33054877 -3.25 79.375 C-7.05183829 80.85655373 -10.8197395 82.41205373 -14.56835938 84.0234375 C-19.14543765 85.89257072 -22.33750798 87.00995069 -27.25 85.375 C-28.5 83.375 -28.5 83.375 -29.25 81.375 C-30.24 80.88 -30.24 80.88 -31.25 80.375 C-31.105625 79.40820312 -30.96125 78.44140625 -30.8125 77.4453125 C-30.42690454 74.74078882 -30.06500822 72.04332533 -29.73828125 69.33203125 C-29.45936068 67.07165897 -29.14585098 64.81353497 -28.73046875 62.57421875 C-28.16546081 57.97128741 -28.76474288 56.02227819 -31.6015625 52.23828125 C-33.50468526 50.08489188 -35.4961682 48.0475121 -37.55078125 46.0390625 C-39.71769075 43.90037613 -41.52127976 41.86482916 -43.25 39.375 C-43.91 40.035 -44.57 40.695 -45.25 41.375 C-47.32249959 41.73568363 -49.40939078 42.01611906 -51.5 42.25 C-58.09686127 43.1882526 -61.76799274 44.82207825 -66.4375 49.625 C-68.09148813 52.13449924 -68.61857664 53.6256918 -69.375 56.4375 C-70.32026185 59.23672846 -70.79519048 60.13588167 -73.44921875 61.53125 C-75.20645684 62.140636 -76.9697355 62.7328482 -78.73828125 63.30859375 C-82.7395038 65.00740208 -84.751178 67.94756171 -87.25 71.375 C-88.24 72.365 -88.24 72.365 -89.25 73.375 C-89.32410727 67.73334639 -89.37858167 62.09197553 -89.41479492 56.44995117 C-89.4298898 54.53030462 -89.45036773 52.6106926 -89.47631836 50.69116211 C-89.51267109 47.93334436 -89.52971912 45.1759822 -89.54296875 42.41796875 C-89.55845261 41.55850143 -89.57393646 40.69903412 -89.58988953 39.81352234 C-89.59011612 39.01291885 -89.59034271 38.21231537 -89.59057617 37.38745117 C-89.59723801 36.6835173 -89.60389984 35.97958344 -89.61076355 35.25431824 C-89.12727878 32.73571083 -88.30955433 31.8765072 -86.25 30.375 C-84.25920105 29.99645996 -84.25920105 29.99645996 -81.96557617 29.99023438 C-81.10425583 29.98012329 -80.24293549 29.97001221 -79.35551453 29.95959473 C-78.42737442 29.96261597 -77.49923431 29.96563721 -76.54296875 29.96875 C-75.10574211 29.95249573 -75.10574211 29.95249573 -73.63948059 29.93591309 C-70.57208537 29.90159886 -67.50506204 29.88605255 -64.4375 29.875 C-60.4097993 29.86041263 -56.3829268 29.82666238 -52.35546875 29.78125 C-50.97236763 29.78578186 -50.97236763 29.78578186 -49.56132507 29.79040527 C-44.28270682 29.72911224 -40.91410715 29.07470411 -36.25 26.375 C-34.02758789 25.82592773 -34.02758789 25.82592773 -31.97265625 25.55859375 C-23.26718043 24.40210686 -23.26718043 24.40210686 -15.765625 20.28125 C-14.00195085 17.72473151 -12.62293164 15.1595374 -11.25 12.375 C-9.97700353 10.34235391 -8.68539063 8.32124252 -7.375 6.3125 C-6.51261719 4.93384766 -6.51261719 4.93384766 -5.6328125 3.52734375 C-3.63615802 0.41955669 -3.63615802 0.41955669 0 0 Z " fill="#FDD356" transform="translate(255.25,41.625)"/>
<path d="M0 0 C0.72941768 -0.00581376 1.45883535 -0.01162753 2.21035659 -0.01761746 C4.66792859 -0.03227902 7.12451141 -0.01830428 9.58207703 -0.00457001 C11.35634785 -0.00917651 13.13061486 -0.01552773 14.90487385 -0.02347898 C19.79089398 -0.04022997 24.67660297 -0.03189982 29.56262445 -0.01953411 C34.82786867 -0.01050948 40.09305817 -0.02444046 45.35829163 -0.0354538 C55.67700313 -0.05327132 65.99559848 -0.04938465 76.3143146 -0.03780323 C84.69806293 -0.02878188 93.08177862 -0.02753928 101.4655304 -0.0318985 C102.65723888 -0.03251143 103.84894736 -0.03312436 105.07676822 -0.03375587 C107.49744917 -0.03503473 109.91813011 -0.03633158 112.33881104 -0.03764623 C135.05529629 -0.0490615 157.77171705 -0.03592348 180.48819172 -0.01444477 C199.99404713 0.00342706 219.49980733 0.00032321 239.00566101 -0.01811981 C261.63901304 -0.0395098 284.27230849 -0.04796278 306.90566921 -0.03567076 C309.31761105 -0.03439652 311.7295529 -0.03313903 314.14149475 -0.0318985 C315.32831937 -0.0312814 316.51514398 -0.03066429 317.73793298 -0.03002849 C326.11483795 -0.02656997 334.49170714 -0.03241473 342.86860657 -0.04181671 C353.07264017 -0.0530173 363.27655064 -0.05003757 373.48057008 -0.02869374 C378.69014786 -0.01815716 383.89952011 -0.01410578 389.10909653 -0.02729034 C393.87351281 -0.03916622 398.63753208 -0.03273148 403.40191209 -0.01138014 C405.12997746 -0.0068936 406.85807604 -0.009226 408.58612025 -0.01888329 C410.92690548 -0.03096644 413.26631308 -0.01865645 415.60702515 0 C416.90957591 0.00064941 418.21212667 0.00129882 419.55414867 0.00196791 C422.80351257 0.50336456 422.80351257 0.50336456 425.22204304 2.31607485 C427.53342746 5.51289101 427.35264863 7.65941215 426.80351257 11.50336456 C425.22204304 13.69065428 425.22204304 13.69065428 422.80351257 15.50336456 C419.55414867 16.00476122 419.55414867 16.00476122 415.60702515 16.00672913 C414.51289863 16.01544977 414.51289863 16.01544977 413.39666855 16.02434659 C410.93909656 16.03900815 408.48251374 16.0250334 406.02494812 16.01129913 C404.2506773 16.01590563 402.47641028 16.02225685 400.7021513 16.03020811 C395.81613117 16.0469591 390.93042217 16.03862894 386.04440069 16.02626324 C380.77915648 16.0172386 375.51396698 16.03116959 370.24873352 16.04218292 C359.93002201 16.06000044 349.61142667 16.05611378 339.29271054 16.04453236 C330.90896222 16.03551101 322.52524653 16.0342684 314.14149475 16.03862762 C312.94978627 16.03924056 311.75807779 16.03985349 310.53025693 16.04048499 C308.10957598 16.04176385 305.68889504 16.0430607 303.26821411 16.04437536 C280.55172886 16.05579063 257.8353081 16.0426526 235.11883342 16.02117389 C215.61297802 16.00330207 196.10721782 16.00640591 176.60136414 16.02484894 C153.96801211 16.04623893 131.33471666 16.05469191 108.70135593 16.04239988 C106.2894141 16.04112564 103.87747225 16.03986816 101.4655304 16.03862762 C100.27870578 16.03801052 99.09188116 16.03739342 97.86909217 16.03675762 C89.4921872 16.0332991 81.11531801 16.03914386 72.73841858 16.04854584 C62.53438498 16.05974642 52.3304745 16.0567667 42.12645507 16.03542286 C36.91687728 16.02488629 31.70750504 16.0208349 26.49792862 16.03401947 C21.73351233 16.04589534 16.96949307 16.0394606 12.20511305 16.01810926 C10.47704768 16.01362273 8.74894911 16.01595512 7.0209049 16.02561241 C4.68011967 16.03769556 2.34071206 16.02538558 0 16.00672913 C-1.30255076 16.00607972 -2.60510153 16.00543031 -3.94712353 16.00476122 C-7.19648743 15.50336456 -7.19648743 15.50336456 -9.61501789 13.69065428 C-11.92640232 10.49383811 -11.74562349 8.34731698 -11.19648743 4.50336456 C-7.99928465 0.08139589 -5.27782898 0.00263135 0 0 Z " fill="#AB5436" transform="translate(48.19648742675781,496.4966354370117)"/>
<path d="M0 0 C0.70578871 -0.0034177 1.41157741 -0.0068354 2.13875365 -0.01035666 C4.5037026 -0.01694532 6.86751648 0.00505521 9.23236084 0.0269165 C10.92751031 0.02804478 12.62266173 0.02741152 14.31781006 0.02514648 C18.92090307 0.02399761 23.52358017 0.04753486 28.12657642 0.07544231 C32.93653575 0.10042716 37.74650435 0.10279566 42.55651855 0.10754395 C51.66546421 0.1199823 60.77421812 0.15281556 69.88307929 0.1929419 C80.25295977 0.23763284 90.62284935 0.25963992 100.99280214 0.27972364 C122.32504076 0.32154743 143.6571067 0.39191622 164.98919678 0.48101807 C164.98919678 0.81101807 164.98919678 1.14101807 164.98919678 1.48101807 C164.18613633 1.48525001 163.38307589 1.48948195 162.55568027 1.49384212 C143.04421491 1.59700331 123.53278696 1.70561895 104.02138615 1.82035732 C94.58594584 1.8757107 85.15050175 1.92919611 75.71502686 1.97833252 C67.49413619 2.02114851 59.27327361 2.06741987 51.05242628 2.11789662 C46.69679004 2.14451845 42.34115944 2.16937196 37.9854908 2.19009209 C33.89060334 2.20962615 29.79576943 2.23376002 25.70092964 2.26150894 C24.19361846 2.27089656 22.6862955 2.27856564 21.17896652 2.28443718 C19.12989251 2.29266931 17.08084827 2.30753493 15.03181458 2.32279968 C13.88233872 2.32925223 12.73286287 2.33570478 11.54855442 2.34235287 C9.05590527 2.19170407 9.05590527 2.19170407 7.98919678 3.48101807 C7.89033861 5.44032676 7.86287432 7.40325029 7.86221313 9.36505127 C7.8579834 11.28337265 7.8579834 11.28337265 7.85366821 13.240448 C7.85561281 14.67089858 7.857661 16.10134902 7.85980225 17.53179932 C7.85844826 19.02784264 7.85666834 20.52388563 7.85449219 22.01992798 C7.84991752 26.09419439 7.85170755 30.1684356 7.85487127 34.24270248 C7.85739471 38.49702779 7.85505738 42.75135088 7.85348511 47.00567627 C7.85166336 54.15143218 7.85406985 61.29717778 7.85882568 68.44293213 C7.86426831 76.71640379 7.86250566 84.98985081 7.85699928 93.26332188 C7.85246829 100.35374698 7.85181753 107.44416464 7.85443795 114.53459072 C7.8560008 118.77508892 7.85619427 123.01557553 7.85290146 127.256073 C7.85002295 131.24178858 7.85199806 135.22747224 7.85779572 139.21318436 C7.85912342 140.68019177 7.85872902 142.14720185 7.85653305 143.61420822 C7.85382199 145.60846616 7.85781597 147.60272993 7.86221313 149.59698486 C7.86259016 150.71566452 7.86296719 151.83434418 7.86335564 152.98692322 C7.70676838 155.42211508 7.70676838 155.42211508 8.98919678 156.48101807 C11.00114224 156.59002464 13.01695005 156.62792606 15.03181458 156.63923645 C16.34579727 156.64902527 17.65977997 156.65881409 19.01358032 156.66889954 C20.48339807 156.67480451 21.95321621 156.68061491 23.42303467 156.68634033 C24.96011116 156.69591333 26.49718498 156.70592306 28.03425598 156.71633911 C32.2199967 156.74345695 36.40574877 156.76442914 40.59152913 156.7843411 C44.96112101 156.80615837 49.33067762 156.83356782 53.70024109 156.86039734 C61.98044168 156.910382 70.26066178 156.95529933 78.54090065 156.9984197 C87.96519341 157.04774285 97.3894508 157.10267918 106.81370938 157.15809929 C126.20550569 157.27200793 145.59733536 157.37882753 164.98919678 157.48101807 C164.98919678 157.81101807 164.98919678 158.14101807 164.98919678 158.48101807 C142.63230555 158.5744004 120.2754464 158.64496735 97.91839981 158.68826675 C87.53796119 158.70890452 77.15764364 158.73704833 66.77728271 158.78277588 C57.73126069 158.82260645 48.68532633 158.84844204 39.63921905 158.85737205 C34.84797423 158.86259321 30.05698026 158.87488999 25.26581573 158.90393829 C20.75800879 158.93104772 16.2505565 158.93947216 11.74267578 158.93344879 C10.08662744 158.93455104 8.43056749 158.94253163 6.77458954 158.95783997 C4.51595487 158.97769874 2.25866481 158.97297345 0 158.96203613 C-1.26469997 158.9657233 -2.52939995 158.96941048 -3.83242416 158.97320938 C-7.01080322 158.48101807 -7.01080322 158.48101807 -9.41723251 156.83524704 C-11.46450585 153.8107498 -11.5137329 151.97381033 -11.51873779 148.33233643 C-11.53001709 147.0704953 -11.54129639 145.80865417 -11.55291748 144.50857544 C-11.54514048 143.1126686 -11.53694782 141.71676403 -11.52838135 140.32086182 C-11.53380223 138.84894112 -11.5409247 137.37702584 -11.54962158 135.90512085 C-11.56786225 131.90921358 -11.56078455 127.91371924 -11.54810524 123.91780472 C-11.53798133 119.73696018 -11.54736922 115.5561511 -11.5536499 111.37530518 C-11.5609281 104.3541631 -11.55133415 97.33318929 -11.5322876 90.31207275 C-11.51051843 82.19354358 -11.51756969 74.07541621 -11.53959322 65.95689678 C-11.55774237 58.98777418 -11.56030795 52.01877258 -11.54983854 45.04963398 C-11.54360091 40.88671087 -11.54277529 36.72397666 -11.5559845 32.56106567 C-11.56753543 28.64734962 -11.55953169 24.73415182 -11.53640747 20.82049179 C-11.53111625 19.3837762 -11.5326413 17.94701703 -11.54145813 16.51031876 C-11.55237892 14.5501282 -11.53625904 12.58984238 -11.51873779 10.62969971 C-11.51722969 9.53243057 -11.51572159 8.43516144 -11.51416779 7.30464172 C-11.01080322 4.48101807 -11.01080322 4.48101807 -9.41723251 2.12678909 C-6.14490569 -0.11117431 -3.95212663 -0.01152224 0 0 Z " fill="#D58E6E" transform="translate(177.01080322265625,298.51898193359375)"/>
<path d="M0 0 C7.92 0 15.84 0 24 0 C24 22.77 24 45.54 24 69 C16.41 69 8.82 69 1 69 C-2 66 -2 66 -2.3742218 63.2230072 C-2.37359238 62.09874832 -2.37296295 60.97448944 -2.37231445 59.81616211 C-2.37854324 58.54151596 -2.38477203 57.26686981 -2.39118958 55.95359802 C-2.38250242 54.56150929 -2.37318454 53.16942436 -2.36328125 51.77734375 C-2.36276263 50.3515269 -2.36328039 48.92570933 -2.36479187 47.49989319 C-2.36470218 44.51308506 -2.35427792 41.52654702 -2.33618164 38.53979492 C-2.31347376 34.70725411 -2.31295429 30.87510726 -2.31969929 27.04251766 C-2.32303684 24.0991718 -2.31641361 21.15591613 -2.30657005 18.21258736 C-2.30271559 16.79916417 -2.30157086 15.38573095 -2.3031559 13.97230339 C-2.3035258 11.99966054 -2.28944611 10.02703081 -2.2746582 8.05444336 C-2.27005081 6.93098007 -2.26544342 5.80751678 -2.26069641 4.65000916 C-2 2 -2 2 0 0 Z " fill="#AB5436" transform="translate(379,244)"/>
<path d="M0 0 C1.27939453 -0.01998047 2.55878906 -0.03996094 3.87695312 -0.06054688 C5.10478516 -0.05990234 6.33261719 -0.05925781 7.59765625 -0.05859375 C9.27807007 -0.06137329 9.27807007 -0.06137329 10.99243164 -0.06420898 C13.9375 0.4375 13.9375 0.4375 16.30053711 2.02905273 C18.51806353 5.29167736 18.45459808 7.54058138 18.46875 11.46875 C18.4725769 12.14168091 18.47640381 12.81461182 18.48034668 13.50793457 C18.4830613 14.9266917 18.47573134 16.34549927 18.45898438 17.76416016 C18.43756275 19.93115203 18.45879538 22.09482951 18.484375 24.26171875 C18.48173164 25.64323646 18.47660647 27.0247521 18.46875 28.40625 C18.46423828 29.65857422 18.45972656 30.91089844 18.45507812 32.20117188 C17.9375 35.4375 17.9375 35.4375 16.29614258 37.84155273 C11.56512865 41.04273668 5.64586075 40.04761777 0.125 40 C-1.7631543 40.03577148 -1.7631543 40.03577148 -3.68945312 40.07226562 C-11.18335249 40.06041444 -15.56052824 39.67525278 -21.0625 34.4375 C-25.0625 30.02724359 -25.0625 30.02724359 -25.0625 27.4375 C-23.94230469 27.37691406 -22.82210938 27.31632812 -21.66796875 27.25390625 C-20.19530016 27.16948576 -18.72264456 27.08483851 -17.25 27 C-16.14301758 26.94102539 -16.14301758 26.94102539 -15.01367188 26.88085938 C-11.83178658 26.69368965 -9.10087622 26.45029207 -6.0625 25.4375 C-5.98118537 24.00094146 -5.92316441 22.5630517 -5.875 21.125 C-5.84019531 20.32449219 -5.80539062 19.52398437 -5.76953125 18.69921875 C-5.91301414 16.42923612 -5.91301414 16.42923612 -7.09375 14.6875 C-10.11199094 12.77115654 -13.27511786 12.86355824 -16.75 12.75 C-17.8028418 12.69875977 -17.8028418 12.69875977 -18.87695312 12.64648438 C-20.60491387 12.56420053 -22.33368072 12.4991676 -24.0625 12.4375 C-23.04625284 7.65097586 -20.8046313 4.70372645 -16.82641602 1.81225586 C-11.59157184 -0.79152539 -5.73645559 -0.0318853 0 0 Z " fill="#C43828" transform="translate(291.0625,205.5625)"/>
<path d="M0 0 C1.27166016 -0.01998047 2.54332031 -0.03996094 3.85351562 -0.06054688 C15.4240205 -0.05448585 15.4240205 -0.05448585 20.1875 4.4375 C24.1875 8.75328947 24.1875 8.75328947 24.1875 12.4375 C23.30707031 12.47488281 22.42664063 12.51226562 21.51953125 12.55078125 C19.77736328 12.64939453 19.77736328 12.64939453 18 12.75 C16.27716797 12.83701172 16.27716797 12.83701172 14.51953125 12.92578125 C10.99615359 13.46688614 8.98830332 14.25505586 6.1875 16.4375 C5.63203719 19.70084402 5.78053754 21.60693349 7.23828125 24.58203125 C10.10532737 27.31118337 13.11004782 27.11016205 16.875 27.1875 C17.9278418 27.23197266 17.9278418 27.23197266 19.00195312 27.27734375 C20.72985424 27.34787033 22.4586832 27.39497068 24.1875 27.4375 C23.69103055 31.43645942 22.91286208 33.1887732 19.75 35.6875 C19.13253906 36.18765625 18.51507813 36.6878125 17.87890625 37.203125 C12.82329857 40.89266779 6.26524462 39.66373607 0.25 39.6875 C-1.05130859 39.708125 -2.35261719 39.72875 -3.69335938 39.75 C-4.93794922 39.75515625 -6.18253906 39.7603125 -7.46484375 39.765625 C-8.60945068 39.7749707 -9.75405762 39.78431641 -10.93334961 39.79394531 C-13.8125 39.4375 -13.8125 39.4375 -15.68432617 38.37988281 C-17.41949026 35.39244167 -17.24020965 32.39070281 -17.2109375 29.03125 C-17.21380768 28.31014038 -17.21667786 27.58903076 -17.21963501 26.84606934 C-17.22167452 25.32299005 -17.21615247 23.7998845 -17.20361328 22.27685547 C-17.18755643 19.94569322 -17.2034641 17.61626458 -17.22265625 15.28515625 C-17.2206738 13.80468367 -17.21683007 12.32421218 -17.2109375 10.84375 C-17.21701019 10.1468103 -17.22308289 9.44987061 -17.2293396 8.73181152 C-17.18939616 5.98298843 -17.08423219 3.90015074 -15.67553711 1.50170898 C-11.18022189 -1.06611686 -5.02342977 -0.02775376 0 0 Z " fill="#C63727" transform="translate(219.8125,205.5625)"/>
<path d="M0 0 C0.71607422 -0.01611328 1.43214844 -0.03222656 2.16992188 -0.04882812 C5.42149784 -0.05184163 7.70074041 0.11102079 10.56640625 1.70703125 C12.0625 3.3125 12.0625 3.3125 12.0625 5.3125 C13.09890625 5.26609375 14.1353125 5.2196875 15.203125 5.171875 C16.57288779 5.13434725 17.94268182 5.09794816 19.3125 5.0625 C20.33537109 5.01222656 20.33537109 5.01222656 21.37890625 4.9609375 C24.82091326 4.89410241 26.70482914 5.05051179 29.515625 7.109375 C31.77308909 10.32455112 31.60994955 12.48035313 31.0625 16.3125 C29.546875 18.515625 29.546875 18.515625 27.0625 20.3125 C24.16800051 20.6031124 21.68300065 20.69436045 18.8125 20.5625 C17.69488281 20.53542969 17.69488281 20.53542969 16.5546875 20.5078125 C14.72340299 20.46085649 12.89278351 20.38911652 11.0625 20.3125 C10.876875 21.2715625 10.876875 21.2715625 10.6875 22.25 C10.48125 22.930625 10.275 23.61125 10.0625 24.3125 C6.91739907 25.88505046 3.57484555 25.53822668 0.125 25.5625 C-0.60396484 25.583125 -1.33292969 25.60375 -2.08398438 25.625 C-7.43068786 25.66420589 -7.43068786 25.66420589 -9.94140625 23.921875 C-10.9375 22.3125 -10.9375 22.3125 -10.9375 20.3125 C-11.97390625 20.37050781 -13.0103125 20.42851562 -14.078125 20.48828125 C-15.44787156 20.53519038 -16.81766692 20.58068932 -18.1875 20.625 C-18.86941406 20.66689453 -19.55132812 20.70878906 -20.25390625 20.75195312 C-24.05556162 20.84422631 -25.59019242 20.6410342 -28.39453125 17.98828125 C-30.25226131 14.7666481 -30.4947629 12.97451335 -29.9375 9.3125 C-28.08407225 6.75300454 -26.99993607 6.33331202 -23.9375 5.3125 C-21.70931559 5.24312938 -19.47915476 5.22792916 -17.25 5.25 C-15.48076172 5.26353516 -15.48076172 5.26353516 -13.67578125 5.27734375 C-12.77214844 5.28894531 -11.86851562 5.30054688 -10.9375 5.3125 C-10.9375 4.3225 -10.9375 3.3325 -10.9375 2.3125 C-7.22185162 -0.16459892 -4.300079 -0.01924834 0 0 Z " fill="#F8786D" transform="translate(254.9375,212.6875)"/>
<path d="M0 0 C6.06890175 -0.07408977 12.13754097 -0.12857359 18.20678711 -0.16479492 C20.27193791 -0.17989271 22.3370566 -0.20037274 24.40209961 -0.22631836 C27.36840739 -0.26265795 30.33429171 -0.2797163 33.30078125 -0.29296875 C34.2258699 -0.30845261 35.15095856 -0.32393646 36.1040802 -0.33988953 C36.96474594 -0.34011612 37.82541168 -0.34034271 38.7121582 -0.34057617 C39.46938675 -0.34723801 40.2266153 -0.35389984 41.00679016 -0.36076355 C43.59823133 0.10827764 44.46437521 0.8809066 46 3 C46.36076355 4.87931824 46.36076355 4.87931824 46.34057617 7.01245117 C46.34023628 8.2133564 46.34023628 8.2133564 46.33988953 9.43852234 C46.32440567 10.29798965 46.30892181 11.15745697 46.29296875 12.04296875 C46.28872391 12.9265657 46.28447906 13.81016266 46.28010559 14.72053528 C46.26331043 17.54316661 46.22565697 20.36508441 46.1875 23.1875 C46.17245423 25.10090115 46.15876564 27.01431349 46.14648438 28.92773438 C46.11340419 33.61876459 46.0616163 38.30926131 46 43 C45.39671875 42.22914062 44.7934375 41.45828125 44.171875 40.6640625 C40.50483534 36.16600306 37.35125792 33.2830688 31.8125 31.6875 C28.29411765 30.51470588 28.29411765 30.51470588 27 28.25 C26.5369088 26.86072639 26.09847848 25.46301723 25.68359375 24.05859375 C24.29860025 19.88778474 21.71594561 17.04492408 17.9921875 14.77734375 C13.26776941 12.48098026 9.0945886 11.54278079 3.84765625 11.46875 C2 11 2 11 0.74609375 9.40625 C-0.23799259 6.23244276 -0.04601399 3.30529807 0 0 Z " fill="#E79E73" transform="translate(300,72)"/>
<path d="M0 0 C0.86066574 0.00022659 1.72133148 0.00045319 2.608078 0.00068665 C3.99571098 0.02391243 3.99571098 0.02391243 5.41137695 0.04760742 C6.83665459 0.05397469 6.83665459 0.05397469 8.29072571 0.06047058 C11.32732408 0.07727133 14.36326022 0.11492625 17.3996582 0.15307617 C19.45759133 0.1681212 21.51553485 0.18180992 23.57348633 0.1940918 C28.61996568 0.22717947 33.66594964 0.27897155 38.7121582 0.34057617 C38.57172943 1.98687945 38.42466491 3.63261797 38.2746582 5.27807617 C38.19344727 6.19459961 38.11223633 7.11112305 38.02856445 8.05541992 C37.7121582 10.34057617 37.7121582 10.34057617 36.7121582 11.34057617 C34.65333324 11.63806018 32.58982489 11.90338935 30.5246582 12.15307617 C23.92100264 13.135677 20.2026837 14.7788928 15.5246582 19.59057617 C13.87067007 22.10007541 13.34358156 23.59126797 12.5871582 26.40307617 C11.64189635 29.20230463 11.16696772 30.10145785 8.51293945 31.49682617 C6.75570137 32.10621217 4.9924227 32.69842437 3.22387695 33.27416992 C-0.7773456 34.97297825 -2.78901979 37.91313788 -5.2878418 41.34057617 C-5.9478418 42.00057617 -6.6078418 42.66057617 -7.2878418 43.34057617 C-7.36194907 37.69892256 -7.41642347 32.0575517 -7.45263672 26.41552734 C-7.4677316 24.49588079 -7.48820953 22.57626877 -7.51416016 20.65673828 C-7.55051288 17.89892054 -7.56756092 15.14155837 -7.58081055 12.38354492 C-7.5962944 11.52407761 -7.61177826 10.66461029 -7.62773132 9.77909851 C-7.62795792 8.97849503 -7.62818451 8.17789154 -7.62841797 7.35302734 C-7.6350798 6.64909348 -7.64174164 5.94515961 -7.64860535 5.21989441 C-6.8156765 0.88093509 -4.0568638 -0.03569088 0 0 Z " fill="#E89E74" transform="translate(173.287841796875,71.659423828125)"/>
<path d="M0 0 C0.53625 1.01964844 1.0725 2.03929688 1.625 3.08984375 C3.92328578 7.11083229 6.78143355 10.26028269 10 13.5625 C11.0457522 14.64319689 12.08748368 15.72780011 13.125 16.81640625 C13.58132812 17.28506104 14.03765625 17.75371582 14.5078125 18.23657227 C18.8944484 23.42058259 20.52234086 26.47967558 19.953125 33.3671875 C19.90307312 34.04677521 19.85302124 34.72636292 19.80145264 35.42654419 C19.63824525 37.57824929 19.44466854 39.72593639 19.25 41.875 C19.13339481 43.34098642 19.01879096 44.80713348 18.90625 46.2734375 C18.62729065 49.85110924 18.32105967 53.42583174 18 57 C9.88756849 60.70496575 9.88756849 60.70496575 5 59 C3.75 57 3.75 57 3 55 C2.34 54.67 1.68 54.34 1 54 C1.144375 53.03320312 1.28875 52.06640625 1.4375 51.0703125 C1.82309546 48.36578882 2.18499178 45.66832533 2.51171875 42.95703125 C2.79063932 40.69665897 3.10414902 38.43853497 3.51953125 36.19921875 C4.08077486 31.62695413 3.49245243 29.65937138 0.68359375 25.8984375 C-1.19892586 23.76598885 -3.16935067 21.74949386 -5.203125 19.76171875 C-11.80353566 13.24427414 -11.80353566 13.24427414 -12.5625 8.4375 C-12 5 -12 5 -9.6875 2.625 C-6.12067603 0.46831574 -4.21891045 0 0 0 Z " fill="#E6BE55" transform="translate(223,68)"/>
<path d="M0 0 C4.40617281 2.16303029 7.1644597 4.41114924 9 9 C9.75547167 13.05207534 9.92871533 16.45506161 7.7578125 20.06640625 C4.38782111 24.08189351 1.67792675 26.83220732 -3.75 27.375 C-8.51359691 27.23463619 -11.18221991 25.84462046 -15 23 C-17.93977227 18.92225137 -18.5835571 15.10786092 -18.42578125 10.18359375 C-17.68518665 6.38549851 -15.77454471 4.64549612 -13 2 C-8.73999095 -0.84000604 -5.00058053 -0.63091437 0 0 Z " fill="#EC5B50" transform="translate(198,162)"/>
<path d="M0 0 C4.63809404 1.69468821 7.59163197 3.64641164 10 8 C10.81979599 13.00242862 10.54823991 16.84026173 8.375 21.4375 C4.73335668 25.36664148 1.32997533 27.12217703 -4 27.4375 C-8.26074445 27.25012501 -10.77844151 25.84695866 -14 23 C-16.5592605 19.24641793 -17.70420246 15.6941298 -17.5625 11.09765625 C-16.42908737 6.87097167 -13.16981162 3.87577932 -10 1 C-6.79821961 -0.60089019 -3.48231013 -0.3573266 0 0 Z " fill="#F8786D" transform="translate(174,210)"/>
<path d="M0 0 C3.84724728 1.95859862 7.08727899 4.0682957 9 8 C9.72675952 12.61178266 9.50540156 16.67659357 7.375 20.875 C3.79123763 25.5904768 0.89507626 26.69434254 -4.875 27.625 C-9.57560276 27.48008739 -12.15038679 24.8491429 -15.43359375 21.7265625 C-18.4196649 18.43518233 -18.33338317 15.60561923 -18.28515625 11.3203125 C-17.74948836 6.96159019 -15.34998777 4.20349974 -12.1640625 1.36328125 C-8.35171716 -1.03835869 -4.34802738 -0.62507187 0 0 Z " fill="#EC5B50" transform="translate(323,162)"/>
<path d="M0 0 C3.62011046 2.33296007 5.89022378 4.96794755 7.8125 8.8125 C8.36254295 14.53294663 7.45614029 17.38104559 3.8125 21.8125 C0.83327733 25.04708461 -1.31916285 26.09576323 -5.625 26.3125 C-10.11830588 26.09568491 -12.76758187 24.82528502 -16.1875 21.8125 C-19.55298613 17.99828239 -19.75573655 14.16433638 -19.609375 9.25390625 C-18.80002297 4.5701561 -16.08842921 2.20651475 -12.3125 -0.5625 C-7.90416955 -1.85906778 -4.27897212 -1.59412687 0 0 Z " fill="#F8786D" transform="translate(346.1875,211.1875)"/>
<path d="M0 0 C4.28712087 2.26965223 7.52115655 4.80503416 10 9 C10.61977106 14.57793957 10.24218073 18.24480159 7 23 C3.4967262 26.24693669 0.67474052 27.30240166 -4 27.5625 C-7.49306424 27.41520211 -9.72073452 26.96506836 -12.5 24.8125 C-16.3427209 20.48943899 -17.58674197 16.94164669 -17.453125 11.0625 C-16.60069506 7.18247408 -13.96509542 4.5162507 -11 2 C-7.21315465 -0.22755609 -4.40481345 -0.45567036 0 0 Z " fill="#EC5A4F" transform="translate(169,120)"/>
<path d="M0 0 C4.28712087 2.26965223 7.52115655 4.80503416 10 9 C10.61977106 14.57793957 10.24218073 18.24480159 7 23 C3.4967262 26.24693669 0.67474052 27.30240166 -4 27.5625 C-7.49306424 27.41520211 -9.72073452 26.96506836 -12.5 24.8125 C-16.3427209 20.48943899 -17.58674197 16.94164669 -17.453125 11.0625 C-16.60069506 7.18247408 -13.96509542 4.5162507 -11 2 C-7.21315465 -0.22755609 -4.40481345 -0.45567036 0 0 Z " fill="#EC5A4F" transform="translate(350,120)"/>
<path d="M0 0 C0.33 0.66 0.66 1.32 1 2 C2.03640625 1.95359375 3.0728125 1.9071875 4.140625 1.859375 C5.51038779 1.82184725 6.88018182 1.78544816 8.25 1.75 C9.27287109 1.69972656 9.27287109 1.69972656 10.31640625 1.6484375 C13.75841326 1.58160241 15.64232914 1.73801179 18.453125 3.796875 C20.71058909 7.01205112 20.54744955 9.16785313 20 13 C18.453125 15.203125 18.453125 15.203125 16 17 C13.2317375 17.29449601 10.98597978 17.38343363 8.25 17.25 C5.8575 17.1675 3.465 17.085 1 17 C0.67 11.39 0.34 5.78 0 0 Z " fill="#EE594F" transform="translate(266,216)"/>
<path d="M0 0 C0 4.95 0 9.9 0 15 C-3.58875 15.1546875 -3.58875 15.1546875 -7.25 15.3125 C-7.99668945 15.35802002 -8.74337891 15.40354004 -9.51269531 15.45043945 C-13.25895498 15.52852851 -14.70579684 15.27830029 -17.45703125 12.67578125 C-19.31476131 9.4541481 -19.5572629 7.66201335 -19 4 C-14.70733892 -1.92796054 -6.43548778 -0.0637177 0 0 Z " fill="#EE594F" transform="translate(244,218)"/>
</svg>
