<?xml version="1.0" encoding="UTF-8"?>
<svg version="1.1" xmlns="http://www.w3.org/2000/svg" width="512" height="512">
<path d="M0 0 C1.0054184 0.00465271 2.01083679 0.00930542 3.04672241 0.01409912 C17.55398411 0.09270742 31.81520628 0.39095071 46.0625 3.375 C47.03735352 3.57367676 48.01220703 3.77235352 49.01660156 3.97705078 C69.69645836 8.30290613 89.81441523 14.49272957 108.90942383 23.58129883 C109.67794678 23.94634521 110.44646973 24.3113916 111.23828125 24.6875 C112.24242065 25.17669922 112.24242065 25.17669922 113.2668457 25.67578125 C115.20725804 26.55642793 115.20725804 26.55642793 118.0625 26.375 C119.73667553 24.83750606 119.73667553 24.83750606 121.3125 22.76171875 C121.9209375 22.00826172 122.529375 21.25480469 123.15625 20.47851562 C123.7853125 19.68123047 124.414375 18.88394531 125.0625 18.0625 C126.31121945 16.50288011 127.56117417 14.94424825 128.8125 13.38671875 C129.36421875 12.69022217 129.9159375 11.99372559 130.484375 11.27612305 C133.37127604 7.79835411 133.37127604 7.79835411 135.0625 6.375 C136.0525 6.375 137.0425 6.375 138.0625 6.375 C137.49490789 13.38009246 136.01596459 19.7160589 134 26.4375 C133.71833984 27.39849609 133.43667969 28.35949219 133.14648438 29.34960938 C132.45848716 31.69346429 131.7637399 34.03507993 131.0625 36.375 C131.74441406 36.61347656 132.42632812 36.85195313 133.12890625 37.09765625 C136.67952875 38.64366631 139.80146696 40.65542731 143 42.8125 C143.97428955 43.46532959 143.97428955 43.46532959 144.96826172 44.13134766 C151.9400479 48.86852217 158.51247426 54.07743396 165.0625 59.375 C166.72872841 60.70888097 168.39522882 62.04242266 170.0625 63.375 C174.50169293 61.93328046 177.56532801 59.48696527 181 56.4375 C182.15972436 55.43289063 183.32123984 54.43034587 184.484375 53.4296875 C185.07798828 52.91889648 185.67160156 52.40810547 186.28320312 51.88183594 C190.78413137 48.07012777 195.4743788 44.48963823 200.13330078 40.87451172 C202.17506977 39.28750272 204.21091124 37.69310145 206.24609375 36.09765625 C216.66904088 27.94021469 227.19728637 19.92909343 237.83300781 12.05078125 C239.33283117 10.92345016 240.81655392 9.77440848 242.28417969 8.60546875 C243.3307373 7.77982422 243.3307373 7.77982422 244.3984375 6.9375 C245.00993652 6.44378906 245.62143555 5.95007813 246.25146484 5.44140625 C248.0625 4.375 248.0625 4.375 252.0625 4.375 C251.51468689 8.0724375 250.63477646 10.40424793 248.39453125 13.38671875 C247.559823 14.50977417 247.559823 14.50977417 246.70825195 15.65551758 C246.10327881 16.44982178 245.49830566 17.24412598 244.875 18.0625 C244.25004639 18.89612061 243.62509277 19.72974121 242.98120117 20.58862305 C236.97318276 28.57198343 230.84787905 36.46562299 224.67480469 44.32177734 C223.17764468 46.22836663 221.68551616 48.13875297 220.1953125 50.05078125 C214.76719302 57.00379554 209.25028011 63.87876509 203.65209961 70.69580078 C202.63005828 71.94483692 201.61484594 73.19949577 200.60693359 74.45996094 C199.51810269 75.81006995 198.40381603 77.1398422 197.27197266 78.45410156 C195.683514 80.37827701 194.25767479 82.18447921 193.0625 84.375 C193.64416862 88.26010737 195.74457359 90.3752608 198.4375 93.125 C208.60001128 104.22814299 216.66681133 117.31467183 224.0625 130.375 C224.60487305 131.31617676 224.60487305 131.31617676 225.15820312 132.27636719 C246.76919318 170.0288992 256.53950596 212.79783072 256.375 256 C256.37284485 257.01790619 256.3706897 258.03581238 256.36846924 259.08456421 C256.31879854 273.69363523 256.06790191 288.02575853 253.0625 302.375 C252.76448486 303.83728027 252.76448486 303.83728027 252.46044922 305.32910156 C247.45543969 329.25567145 240.09757645 353.19582509 228.23828125 374.6796875 C226.91556575 377.20720347 226.91556575 377.20720347 227.08984375 379.484375 C228.46414058 382.15569896 230.33894844 383.69312544 232.625 385.625 C233.45128906 386.33140625 234.27757812 387.0378125 235.12890625 387.765625 C235.76699219 388.29671875 236.40507812 388.8278125 237.0625 389.375 C236.7325 390.365 236.4025 391.355 236.0625 392.375 C235.41023438 392.24222656 234.75796875 392.10945313 234.0859375 391.97265625 C233.21195312 391.79605469 232.33796875 391.61945313 231.4375 391.4375 C230.14972656 391.17646484 230.14972656 391.17646484 228.8359375 390.91015625 C225.91877618 390.34726737 222.9947797 389.85224787 220.0625 389.375 C219.75658936 389.84695801 219.45067871 390.31891602 219.13549805 390.80517578 C212.23700658 401.40658121 205.04623418 411.56603712 197.0625 421.375 C195.72806739 423.04078665 194.39432892 424.70713091 193.0625 426.375 C194.50419494 430.81411719 196.95037856 433.87798001 200 437.3125 C205.44908142 443.59858483 210.60561116 450.07211309 215.70947266 456.63964844 C217.01157413 458.30968403 218.32210394 459.972616 219.63671875 461.6328125 C227.31584368 471.33610564 234.82816051 481.16539677 242.29052734 491.03613281 C243.80713697 493.0379405 245.33328441 495.03186779 246.86328125 497.0234375 C247.58902344 497.98507812 248.31476563 498.94671875 249.0625 499.9375 C249.660625 500.72253906 250.25875 501.50757813 250.875 502.31640625 C252.0625 504.375 252.0625 504.375 252.0625 508.375 C248.3650625 507.82718689 246.03325207 506.94727646 243.05078125 504.70703125 C241.92772583 503.872323 241.92772583 503.872323 240.78198242 503.02075195 C239.98767822 502.41577881 239.19337402 501.81080566 238.375 501.1875 C237.12456909 500.25006958 237.12456909 500.25006958 235.84887695 499.29370117 C227.86551657 493.28568276 219.97187701 487.16037905 212.11572266 480.98730469 C210.20913337 479.49014468 208.29874703 477.99801616 206.38671875 476.5078125 C199.43370446 471.07969302 192.55873491 465.56278011 185.74169922 459.96459961 C184.49266308 458.94255828 183.23800423 457.92734594 181.97753906 456.91943359 C180.62743005 455.83060269 179.2976578 454.71631603 177.98339844 453.58447266 C176.05922299 451.996014 174.25302079 450.57017479 172.0625 449.375 C168.17739263 449.95666862 166.0622392 452.05707359 163.3125 454.75 C152.2190554 464.90363451 139.13379794 473.01800052 126.0625 480.375 C125.35963867 480.77428711 124.65677734 481.17357422 123.93261719 481.58496094 C100.79260066 494.61457024 75.61907463 503.36674579 49.625 508.6875 C48.90610596 508.83485596 48.18721191 508.98221191 47.4465332 509.1340332 C32.77089502 511.92340125 18.24581162 512.72392619 3.33520508 512.69067383 C0.39561513 512.6875221 -2.5429558 512.71104926 -5.48242188 512.73632812 C-18.85556192 512.78098737 -31.75166711 511.57551542 -44.9375 509.375 C-46.64305054 509.09281616 -46.64305054 509.09281616 -48.38305664 508.80493164 C-90.72569342 501.19907009 -130.89906961 481.89876314 -163.73828125 454.21484375 C-164.46402344 453.60769531 -165.18976563 453.00054687 -165.9375 452.375 C-166.59105469 451.75753906 -167.24460937 451.14007813 -167.91796875 450.50390625 C-169.90710263 449.10500209 -169.90710263 449.10500209 -172.28125 449.84375 C-175.69031643 451.80897653 -178.52428883 454.2590636 -181.4375 456.875 C-187.54521368 462.23533934 -193.84152441 467.2315463 -200.31640625 472.13623047 C-203.04934265 474.22462193 -205.74051772 476.3655278 -208.4375 478.5 C-217.07293162 485.31163838 -225.82534472 491.97034121 -234.59863281 498.60302734 C-236.6004405 500.11963697 -238.59436779 501.64578441 -240.5859375 503.17578125 C-241.54757813 503.90152344 -242.50921875 504.62726563 -243.5 505.375 C-244.28503906 505.973125 -245.07007813 506.57125 -245.87890625 507.1875 C-247.9375 508.375 -247.9375 508.375 -251.9375 508.375 C-251.38756666 504.58132895 -250.42942441 502.24101267 -248.12890625 499.1875 C-247.55180908 498.41301514 -246.97471191 497.63853027 -246.38012695 496.84057617 C-245.75968506 496.02693604 -245.13924316 495.2132959 -244.5 494.375 C-243.54710083 493.10523315 -243.54710083 493.10523315 -242.57495117 491.80981445 C-240.70525866 489.32420658 -238.8235324 486.84822266 -236.9375 484.375 C-236.45474609 483.73868652 -235.97199219 483.10237305 -235.47460938 482.44677734 C-229.9762983 475.20293797 -224.3534181 468.05513057 -218.72265625 460.9140625 C-216.86795076 458.56108762 -215.02214134 456.20155717 -213.18359375 453.8359375 C-212.2686139 452.66115858 -211.35325105 451.48667786 -210.4375 450.3125 C-209.76787231 449.45338013 -209.76787231 449.45338013 -209.0847168 448.5769043 C-206.72911308 445.57766987 -204.32618777 442.63481513 -201.8359375 439.74609375 C-201.07700195 438.86546265 -201.07700195 438.86546265 -200.30273438 437.96704102 C-199.33414023 436.85103141 -198.35919347 435.74049271 -197.37695312 434.63647461 C-195.04112981 431.95260672 -193.33805251 429.95237806 -192.9375 426.375 C-194.7076037 423.89930903 -196.49144993 421.7068092 -198.5 419.4375 C-226.65233697 386.19012004 -244.96357054 345.06226203 -252.9375 302.375 C-253.09976074 301.56998047 -253.26202148 300.76496094 -253.42919922 299.93554688 C-258.90205505 271.94434616 -258.7834259 238.28627604 -252.9375 210.375 C-252.73882324 209.40014648 -252.54014648 208.42529297 -252.33544922 207.42089844 C-247.33043969 183.49432855 -239.97257645 159.55417491 -228.11328125 138.0703125 C-226.79056575 135.54279653 -226.79056575 135.54279653 -226.96484375 133.265625 C-228.33914058 130.59430104 -230.21394844 129.05687456 -232.5 127.125 C-233.32628906 126.41859375 -234.15257812 125.7121875 -235.00390625 124.984375 C-235.64199219 124.45328125 -236.28007812 123.9221875 -236.9375 123.375 C-236.4425 121.89 -236.4425 121.89 -235.9375 120.375 C-235.28523438 120.50777344 -234.63296875 120.64054687 -233.9609375 120.77734375 C-233.08695313 120.95394531 -232.21296875 121.13054687 -231.3125 121.3125 C-230.45398438 121.48652344 -229.59546875 121.66054687 -228.7109375 121.83984375 C-225.79377618 122.40273263 -222.8697797 122.89775213 -219.9375 123.375 C-219.47863403 122.66706299 -219.47863403 122.66706299 -219.01049805 121.94482422 C-212.11200658 111.34341879 -204.92123418 101.18396288 -196.9375 91.375 C-195.60306739 89.70921335 -194.26932892 88.04286909 -192.9375 86.375 C-194.4132055 81.66679675 -197.20250127 78.47762368 -200.4375 74.875 C-205.79783934 68.76728632 -210.7940463 62.47097559 -215.69873047 55.99609375 C-217.78712193 53.26315735 -219.9280278 50.57198228 -222.0625 47.875 C-228.87413838 39.23956838 -235.53284121 30.48715528 -242.16552734 21.71386719 C-243.68213697 19.7120595 -245.20828441 17.71813221 -246.73828125 15.7265625 C-247.46402344 14.76492188 -248.18976563 13.80328125 -248.9375 12.8125 C-249.535625 12.02746094 -250.13375 11.24242187 -250.75 10.43359375 C-251.9375 8.375 -251.9375 8.375 -251.9375 4.375 C-248.14382895 4.92493334 -245.80351267 5.88307559 -242.75 8.18359375 C-241.97551514 8.76069092 -241.20103027 9.33778809 -240.40307617 9.93237305 C-239.18261597 10.86303589 -239.18261597 10.86303589 -237.9375 11.8125 C-237.09098877 12.44776611 -236.24447754 13.08303223 -235.37231445 13.73754883 C-232.88670658 15.60724134 -230.41072266 17.4889676 -227.9375 19.375 C-226.98302979 20.09913086 -226.98302979 20.09913086 -226.00927734 20.83789062 C-218.76543797 26.3362017 -211.61763057 31.9590819 -204.4765625 37.58984375 C-202.12358762 39.44454924 -199.76405717 41.29035866 -197.3984375 43.12890625 C-196.22365858 44.0438861 -195.04917786 44.95924895 -193.875 45.875 C-193.30225342 46.32141846 -192.72950684 46.76783691 -192.1394043 47.2277832 C-189.14016987 49.58338692 -186.19731513 51.98631223 -183.30859375 54.4765625 C-182.72150635 54.98251953 -182.13441895 55.48847656 -181.52954102 56.00976562 C-180.41353141 56.97835977 -179.30299271 57.95330653 -178.19897461 58.93554688 C-175.51510672 61.27137019 -173.51487806 62.97444749 -169.9375 63.375 C-167.46180903 61.6048963 -165.2693092 59.82105007 -163 57.8125 C-148.311734 45.37515863 -131.98546352 35.25042185 -114.9375 26.375 C-114.20611816 25.9924707 -113.47473633 25.60994141 -112.72119141 25.21582031 C-112.00495605 24.84811523 -111.2887207 24.48041016 -110.55078125 24.1015625 C-109.90536377 23.76979004 -109.25994629 23.43801758 -108.5949707 23.09619141 C-106.9375 22.375 -106.9375 22.375 -104.9375 22.375 C-105.1540625 21.49457031 -105.370625 20.61414063 -105.59375 19.70703125 C-106.01140625 17.96486328 -106.01140625 17.96486328 -106.4375 16.1875 C-106.85515625 14.46466797 -106.85515625 14.46466797 -107.28125 12.70703125 C-107.85245385 9.80681171 -108.07033779 7.31403615 -107.9375 4.375 C-106.234375 4.49609375 -106.234375 4.49609375 -103.9375 5.375 C-102.20855302 7.37015901 -100.69492499 9.28929664 -99.1875 11.4375 C-98.77628906 12.00533203 -98.36507812 12.57316406 -97.94140625 13.15820312 C-96.93054964 14.55694657 -95.93272794 15.96509375 -94.9375 17.375 C-94.24003662 17.12854736 -93.54257324 16.88209473 -92.82397461 16.62817383 C-80.72695638 12.38733908 -68.66562375 8.22583698 -56.125 5.5 C-55.31861084 5.32186768 -54.51222168 5.14373535 -53.68139648 4.96020508 C-50.77491591 4.36479298 -47.86486188 3.85891973 -44.9375 3.375 C-43.81506393 3.18868011 -43.81506393 3.18868011 -42.66995239 2.99859619 C-28.3933138 0.68680962 -14.44956184 -0.11998824 0 0 Z " fill="#8049BE" transform="translate(255.9375,-0.375)"/>
<path d="M0 0 C7.41192815 5.17170807 11.62446843 11.22880651 14 20 C14.37531446 22.32694964 14.71917202 24.65976685 15 27 C15.47566406 26.03900391 15.47566406 26.03900391 15.9609375 25.05859375 C20.3323936 16.95570137 25.71154492 12.64422754 33.875 8.5625 C44.61025805 6.63015355 53.14429122 8.17126734 62.25 14.125 C68.0344437 20.17237296 72.13848014 26.91675085 72.11352539 35.40136719 C72.11344986 36.2619574 72.11337433 37.12254761 72.11329651 38.00921631 C72.10813522 38.92914368 72.10297394 39.84907104 72.09765625 40.796875 C72.09553383 42.22003021 72.09553383 42.22003021 72.09336853 43.67193604 C72.08777742 46.69798962 72.07522652 49.72396883 72.0625 52.75 C72.05748385 54.80338435 72.05292115 56.85676986 72.04882812 58.91015625 C72.03781089 63.94013276 72.02055233 68.97005378 72 74 C74.98862457 74.33931732 74.98862457 74.33931732 77.97724915 74.67863464 C84.86764597 75.77334921 92.3539099 80.5193738 96.5234375 86.00390625 C102.08167304 94.01589942 104.45279351 100.13018312 104.40405273 109.828125 C104.41434761 111.27118263 104.41434761 111.27118263 104.42485046 112.74339294 C104.44309434 115.91241382 104.43928158 119.08093802 104.43359375 122.25 C104.43815927 124.46850748 104.44346595 126.68701355 104.44947815 128.90551758 C104.45840652 133.55572246 104.45599217 138.20575563 104.44604492 142.85595703 C104.43460245 148.77900449 104.45469588 154.70145155 104.48396206 160.62442017 C104.50243035 165.20932715 104.50200973 169.79409342 104.49632454 174.37902832 C104.49617237 176.56043332 104.50212917 178.74184851 104.51461601 180.92321777 C104.61709645 201.77466791 102.21104007 219.05866676 87.1953125 234.79296875 C86.47085937 235.52128906 85.74640625 236.24960937 85 237 C84.22269531 237.82951172 84.22269531 237.82951172 83.4296875 238.67578125 C76.65103652 245.25923548 66.16579424 250.16684115 57 252 C56.67 275.43 56.34 298.86 56 323 C72.05408331 315.63509608 72.05408331 315.63509608 87.125 306.875 C87.8994043 306.37709961 88.67380859 305.87919922 89.47167969 305.36621094 C93.88356636 302.50190109 98.08593528 299.46098179 102.25 296.25 C105.28859669 294.01546274 106.90194243 293.02366907 110.625 292.125 C120.15040733 294.59455005 127.44949667 302.70728839 134.64453125 309.07421875 C137.01945495 311.169121 139.41842358 313.15973268 142 315 C140.45233395 319.26600259 137.24208621 321.47895169 133.75 324.125 C133.12665771 324.60437012 132.50331543 325.08374023 131.86108398 325.57763672 C129.91619677 327.06385409 127.96061109 328.53460244 126 330 C125.41041504 330.44214844 124.82083008 330.88429688 124.21337891 331.33984375 C115.49366623 337.83581991 106.46397841 343.65010722 97 349 C96.29278809 349.4021875 95.58557617 349.804375 94.85693359 350.21875 C71.72154164 363.2441741 46.55037591 371.99301461 20.5625 377.3125 C19.84360596 377.45985596 19.12471191 377.60721191 18.3840332 377.7590332 C3.70839502 380.54840125 -10.81668838 381.34892619 -25.72729492 381.31567383 C-28.66688487 381.3125221 -31.6054558 381.33604926 -34.54492188 381.36132812 C-47.91806192 381.40598737 -60.81416711 380.20051542 -74 378 C-75.13703369 377.81187744 -76.27406738 377.62375488 -77.44555664 377.42993164 C-121.03727886 369.59970118 -161.29677859 349.42992827 -195 321 C-196.66303487 319.66213955 -198.32871778 318.32754333 -200 317 C-198.7562083 313.2686249 -197.25793801 312.35783096 -194.1875 309.9375 C-193.20007813 309.15117187 -192.21265625 308.36484375 -191.1953125 307.5546875 C-190.41269043 306.93352051 -190.41269043 306.93352051 -189.61425781 306.29980469 C-187.96956041 304.97548996 -186.35295316 303.62314656 -184.7421875 302.2578125 C-184.21085205 301.80801025 -183.6795166 301.35820801 -183.13208008 300.89477539 C-181.63003007 299.6198202 -180.12943356 298.34315319 -178.62890625 297.06640625 C-174.93965079 294.16653086 -172.43641271 292.59896332 -167.6796875 293.0703125 C-162.74798784 293.7650599 -159.87775766 295.73800007 -156.125 298.875 C-150.39072232 303.36708597 -144.51050537 307.25667612 -138.1875 310.875 C-137.4238916 311.31440918 -136.6602832 311.75381836 -135.87353516 312.20654297 C-130.3308178 315.34841053 -124.7139938 318.1430031 -119 321 C-119 297.57 -119 274.14 -119 250 C-120.98 249.67 -122.96 249.34 -125 249 C-133.26703941 245.57578249 -139.71665088 240.2618308 -146 234 C-146.6496875 233.37351562 -147.299375 232.74703125 -147.96875 232.1015625 C-153.26935936 226.59171856 -156.2778683 220.08692909 -159 213 C-159.25531463 212.34649755 -159.51062925 211.69299511 -159.77368069 211.01968956 C-162.49162825 203.19172789 -162.44521012 195.45566273 -162.43579102 187.27587891 C-162.44478341 185.70768013 -162.45499503 184.13948796 -162.46632385 182.57130432 C-162.49267375 178.33771868 -162.49985082 174.10431527 -162.50177121 169.87065554 C-162.50391197 167.21948031 -162.51033224 164.5683506 -162.51826286 161.91718674 C-162.54596405 152.65081621 -162.55827463 143.38457463 -162.5559082 134.11816406 C-162.5541061 125.50765027 -162.58577104 116.89770045 -162.63313919 108.28732932 C-162.67247444 100.87041427 -162.68845542 93.45368281 -162.68654197 86.03666437 C-162.68578036 81.61745781 -162.69414767 77.1987534 -162.72607613 72.77965164 C-162.75530615 68.62111809 -162.75523252 64.46356048 -162.73352623 60.30499077 C-162.73041184 58.78775402 -162.73733889 57.27045446 -162.7556076 55.75332451 C-162.86485395 46.04454156 -161.68429317 38.1571565 -156 30 C-149.16650065 23.11372335 -142.25506466 19.93978047 -132.625 19.5 C-126.05188493 19.65994834 -121.45242916 21.42122377 -116 25 C-115.12214844 25.55880859 -115.12214844 25.55880859 -114.2265625 26.12890625 C-109.68208747 29.43922182 -107.42312036 34.07870687 -105 39 C-104.85304688 38.16597656 -104.70609375 37.33195312 -104.5546875 36.47265625 C-102.45873185 25.95674084 -99.09618394 18.36909493 -90.05859375 12.21875 C-82.53471986 7.76438823 -74.94933456 6.5236511 -66.35546875 8.65625 C-57.85483226 11.6856627 -51.44316332 17.18003255 -47 25 C-46.67 25.99 -46.34 26.98 -46 28 C-45.87044922 26.85724609 -45.87044922 26.85724609 -45.73828125 25.69140625 C-44.34610803 15.46084893 -41.40112174 8.09032275 -33.2265625 1.5078125 C-22.72881066 -5.60119138 -11.08138595 -6.24821098 0 0 Z " fill="#F8B7AA" transform="translate(285,131)"/>
<path d="M0 0 C8.53709629 4.04388772 13.3201586 10.02263753 16.75 18.6875 C17.64893411 22.00664131 18.15308989 25.27574911 18.5625 28.6875 C19.03816406 27.72650391 19.03816406 27.72650391 19.5234375 26.74609375 C23.8948936 18.64320137 29.27404492 14.33172754 37.4375 10.25 C48.17275805 8.31765355 56.70679122 9.85876734 65.8125 15.8125 C71.5969437 21.85987296 75.70098014 28.60425085 75.67602539 37.08886719 C75.67591209 38.3797525 75.67591209 38.3797525 75.67579651 39.69671631 C75.67063522 40.61664368 75.66547394 41.53657104 75.66015625 42.484375 C75.6587413 43.43314514 75.65732635 44.38191528 75.65586853 45.35943604 C75.65027742 48.38548962 75.63772652 51.41146883 75.625 54.4375 C75.61998385 56.49088435 75.61542115 58.54426986 75.61132812 60.59765625 C75.60031089 65.62763276 75.58305233 70.65755378 75.5625 75.6875 C78.55112457 76.02681732 78.55112457 76.02681732 81.53974915 76.36613464 C88.43014597 77.46084921 95.9164099 82.2068738 100.0859375 87.69140625 C105.64417304 95.70339942 108.01529351 101.81768312 107.96655273 111.515625 C107.97341599 112.47766342 107.98027924 113.43970184 107.98735046 114.43089294 C108.00559434 117.59991382 108.00178158 120.76843802 107.99609375 123.9375 C108.00065927 126.15600748 108.00596595 128.37451355 108.01197815 130.59301758 C108.02090652 135.24322246 108.01849217 139.89325563 108.00854492 144.54345703 C107.99710245 150.46650449 108.01719588 156.38895155 108.04646206 162.31192017 C108.06493035 166.89682715 108.06450973 171.48159342 108.05882454 176.06652832 C108.05867237 178.24793332 108.06462917 180.42934851 108.07711601 182.61071777 C108.17959645 203.46216791 105.77354007 220.74616676 90.7578125 236.48046875 C90.03335938 237.20878906 89.30890625 237.93710937 88.5625 238.6875 C87.78519531 239.51701172 87.78519531 239.51701172 86.9921875 240.36328125 C80.21353652 246.94673548 69.72829424 251.85434115 60.5625 253.6875 C60.2325 277.1175 59.9025 300.5475 59.5625 324.6875 C75.61658331 317.32259608 75.61658331 317.32259608 90.6875 308.5625 C91.4619043 308.06459961 92.23630859 307.56669922 93.03417969 307.05371094 C97.44606636 304.18940109 101.64843528 301.14848179 105.8125 297.9375 C108.85109669 295.70296274 110.46444243 294.71116907 114.1875 293.8125 C123.71290733 296.28205005 131.01199667 304.39478839 138.20703125 310.76171875 C140.58195495 312.856621 142.98092358 314.84723268 145.5625 316.6875 C144.01483395 320.95350259 140.80458621 323.16645169 137.3125 325.8125 C136.68915771 326.29187012 136.06581543 326.77124023 135.42358398 327.26513672 C133.47869677 328.75135409 131.52311109 330.22210244 129.5625 331.6875 C128.97291504 332.12964844 128.38333008 332.57179688 127.77587891 333.02734375 C119.05616623 339.52331991 110.02647841 345.33760722 100.5625 350.6875 C99.85528809 351.0896875 99.14807617 351.491875 98.41943359 351.90625 C72.47770426 366.51166612 43.90071461 375.85035241 14.5625 380.6875 C13.86705078 380.80464355 13.17160156 380.92178711 12.45507812 381.04248047 C3.12633891 382.55022338 -6.05472061 382.78737444 -15.48828125 382.734375 C-16.64090454 382.73099121 -17.79352783 382.72760742 -18.9810791 382.72412109 C-21.79991725 382.7153556 -24.6186926 382.70306746 -27.4375 382.6875 C-27.53095655 356.87932431 -27.60148578 331.071174 -27.64474869 305.26286316 C-27.66537066 293.27951398 -27.69348445 281.29626996 -27.73925781 269.31298828 C-27.77913655 258.86791348 -27.80493546 248.42291485 -27.81385398 237.97776604 C-27.81906692 232.44752447 -27.83131195 226.91750081 -27.86042023 221.3873291 C-27.88760553 216.18022128 -27.89593861 210.97342076 -27.88993073 205.7662487 C-27.89102956 203.85709907 -27.89896478 201.94793897 -27.9143219 200.03885078 C-27.93429869 197.42697449 -27.92941143 194.81625008 -27.91851807 192.2043457 C-27.93599512 191.07785173 -27.93599512 191.07785173 -27.95382524 189.92860031 C-27.87507237 182.91652101 -25.131642 177.61671566 -20.8125 172.1875 C-17.2170941 168.82399495 -13.07995427 166.98786446 -8.609375 165.0625 C-7.43751144 164.55003723 -7.43751144 164.55003723 -6.24197388 164.02722168 C3.99824768 159.58116712 14.34551999 155.38962052 24.6875 151.1875 C26.72536599 150.35702984 28.763127 149.52630204 30.80078125 148.6953125 C35.72015296 146.68974882 40.64079185 144.68732264 45.5625 142.6875 C45.2325 142.0275 44.9025 141.3675 44.5625 140.6875 C43.8826001 140.66244385 43.2027002 140.6373877 42.50219727 140.61157227 C39.37632721 140.49444178 36.25067372 140.37225344 33.125 140.25 C32.05572266 140.21068359 30.98644531 140.17136719 29.88476562 140.13085938 C25.03389184 139.93801118 20.30499095 139.68309884 15.50390625 138.94921875 C11.70134897 138.31510129 11.70134897 138.31510129 9.3984375 140.015625 C8.91632813 140.64984375 8.43421875 141.2840625 7.9375 141.9375 C4.61984859 145.72038529 2.57728265 147.63175628 -2.4375 148.6875 C-9.88446224 145.89666903 -15.54559717 139.3976773 -19.4375 132.6875 C-21.22439254 127.47412894 -21.69396424 122.86791951 -21.8125 117.4375 C-22.05434529 111.10829892 -22.95520416 105.85985951 -25.5 99.984375 C-27.35398916 95.44210156 -27.64267948 90.99961117 -27.75 86.125 C-27.78738281 85.00996094 -27.82476562 83.89492187 -27.86328125 82.74609375 C-27.34969049 79.05672158 -26.36648038 77.91004726 -23.4375 75.6875 C-22.7775 75.6875 -22.1175 75.6875 -21.4375 75.6875 C-21.44638245 75.03319 -21.45526489 74.37888 -21.4644165 73.70474243 C-21.55331524 66.85842679 -21.61341017 60.01227672 -21.65722656 53.16552734 C-21.67726872 50.61467827 -21.70450993 48.06387473 -21.73925781 45.51318359 C-21.7881003 41.8341952 -21.81054381 38.15581741 -21.828125 34.4765625 C-21.84877014 33.34699127 -21.86941528 32.21742004 -21.89068604 31.05361938 C-21.89353907 20.85146143 -19.39543013 12.84139472 -12.29296875 5.390625 C-8.43418231 1.84866523 -5.51143896 -0.50103991 0 0 Z " fill="#FEDCCE" transform="translate(281.4375,129.3125)"/>
<path d="M0 0 C3.04566477 2.73213325 6.01282852 5.54257416 8.96875 8.37109375 C9.90847656 9.25796875 10.84820312 10.14484375 11.81640625 11.05859375 C44.20208969 42.39663904 61.4253336 87.2084732 62.25634766 131.84057617 C62.40151696 151.32884423 59.71457807 169.75544353 53.96875 188.37109375 C53.76443359 189.03351074 53.56011719 189.69592773 53.34960938 190.37841797 C47.48917617 208.72715525 37.8482986 226.25888001 25.96875 241.37109375 C24.94974609 242.72074219 24.94974609 242.72074219 23.91015625 244.09765625 C10.22374237 261.63903358 -6.78361044 276.25739392 -26.03125 287.37109375 C-26.69125 287.37109375 -27.35125 287.37109375 -28.03125 287.37109375 C-28.03125 302.22109375 -28.03125 317.07109375 -28.03125 332.37109375 C-28.36125 332.37109375 -28.69125 332.37109375 -29.03125 332.37109375 C-29.03125 308.94109375 -29.03125 285.51109375 -29.03125 261.37109375 C-26.39125 260.38109375 -23.75125 259.39109375 -21.03125 258.37109375 C-5.39906232 251.62162569 7.22111275 241.50051353 13.82545471 225.35266113 C18.60834632 212.87949366 18.45912234 200.70495035 18.47265625 187.52734375 C18.48231417 185.3087953 18.49240787 183.0902487 18.50291443 180.8717041 C18.52080037 176.23880586 18.5264429 171.60607482 18.5246582 166.97314453 C18.524353 161.06205791 18.56538118 155.15204958 18.61697483 149.24121857 C18.6504601 144.66501008 18.65641215 140.08905951 18.65482903 135.51274109 C18.65834777 133.33440927 18.67149631 131.15606923 18.69482613 128.9778595 C18.82729479 115.33919992 18.63604576 105.1767083 9.40625 94.37109375 C8.1996875 93.38109375 8.1996875 93.38109375 6.96875 92.37109375 C6.246875 91.69046875 5.525 91.00984375 4.78125 90.30859375 C-0.62138086 86.58678138 -6.62698563 84.5952422 -13.03125 83.37109375 C-13.0405957 82.12086426 -13.04994141 80.87063477 -13.05957031 79.58251953 C-13.0997123 74.90427183 -13.16553677 70.22666511 -13.23876953 65.54882812 C-13.26683953 63.53165985 -13.28812292 61.51438444 -13.30224609 59.49707031 C-13.32387028 56.58212989 -13.37061818 53.66845884 -13.421875 50.75390625 C-13.42371796 49.42046677 -13.42371796 49.42046677 -13.42559814 48.06008911 C-13.61766977 39.68182272 -15.96994562 31.43239813 -22.03125 25.37109375 C-30.05890241 19.16790779 -37.94659926 17.1619986 -48.03125 18.37109375 C-51.28381293 19.33941401 -54.09086335 20.69254968 -57.03125 22.37109375 C-58.083125 22.90734375 -59.135 23.44359375 -60.21875 23.99609375 C-64.30772462 27.44900565 -66.46269321 31.73686026 -69.03125 36.37109375 C-69.69125 37.36109375 -70.35125 38.35109375 -71.03125 39.37109375 C-71.06992187 38.46230469 -71.06992187 38.46230469 -71.109375 37.53515625 C-71.7104041 28.6563173 -74.02984912 20.5636259 -80.18359375 13.90625 C-87.75469761 7.61567111 -96.41137255 5.48737797 -106.03125 6.37109375 C-114.21910162 8.36403124 -121.05832979 12.68245839 -125.6015625 19.84765625 C-128.98613943 26.5587888 -129.88800724 32.9094482 -130.03125 40.37109375 C-131.59017239 38.03271017 -132.57334559 36.15124425 -133.65625 33.62109375 C-137.35455255 26.22448865 -143.70558763 21.75122852 -151.39453125 19.03125 C-159.89919743 16.90193358 -167.39533871 18.19418501 -175.03125 22.37109375 C-181.24945689 26.24989727 -184.59764174 31.52657052 -187.03125 38.37109375 C-187.93245267 42.35140554 -188.56466409 46.31806389 -189.03125 50.37109375 C-190.58073418 48.37438236 -192.01010629 46.40732129 -193.28515625 44.22265625 C-197.51004326 37.03404253 -203.13166632 33.00428831 -211.03125 30.37109375 C-221.23436028 29.49817688 -228.61294122 31.03674988 -237.28125 36.37109375 C-243.51501002 42.23318243 -246.35457295 50.48035553 -246.78642273 58.82539368 C-246.84025371 61.6431114 -246.81973756 64.45674068 -246.79174805 67.2746582 C-246.79825649 68.83828952 -246.80732831 70.40191192 -246.81874084 71.96551514 C-246.84165414 76.17880261 -246.82720089 80.39117441 -246.80427146 84.60443139 C-246.78521875 89.03766518 -246.79653571 93.47084283 -246.80317688 97.90409851 C-246.80950095 105.34921638 -246.79133763 112.79397191 -246.75854492 120.23901367 C-246.72109796 128.81086456 -246.72281608 137.38202794 -246.7455861 145.95391494 C-246.7666393 154.24066 -246.75919943 162.52715425 -246.73926735 170.81389427 C-246.73134107 174.32113118 -246.73320043 177.82815249 -246.74329185 181.33538246 C-246.75395364 185.47834767 -246.73940462 189.6205255 -246.70654869 193.7633667 C-246.6984383 195.27124584 -246.69850925 196.7791984 -246.70802689 198.28706932 C-246.8069759 215.9191744 -241.58075718 231.06592522 -229.4140625 244.015625 C-221.97115872 251.37311841 -213.96434484 256.06006214 -204.03125 259.37109375 C-204.03125 282.80109375 -204.03125 306.23109375 -204.03125 330.37109375 C-204.69125 330.04109375 -205.35125 329.71109375 -206.03125 329.37109375 C-205.70125 314.52109375 -205.37125 299.67109375 -205.03125 284.37109375 C-206.68125 283.71109375 -208.33125 283.05109375 -210.03125 282.37109375 C-211.87719727 281.21704102 -211.87719727 281.21704102 -213.59765625 279.9375 C-214.56421143 279.21989502 -214.56421143 279.21989502 -215.55029297 278.48779297 C-216.22463379 277.97490723 -216.89897461 277.46202148 -217.59375 276.93359375 C-218.65166748 276.13332764 -218.65166748 276.13332764 -219.73095703 275.31689453 C-226.20011978 270.35695888 -232.16826034 265.03306662 -238.03125 259.37109375 C-238.89234375 258.5615625 -239.7534375 257.75203125 -240.640625 256.91796875 C-266.28271481 232.23148477 -281.75437566 198.02074949 -288.03125 163.37109375 C-288.25683594 162.14132812 -288.48242188 160.9115625 -288.71484375 159.64453125 C-295.51379782 115.09965973 -284.01835331 69.05875765 -257.96875 32.49609375 C-256.66834813 30.77853327 -255.35605646 29.06990124 -254.03125 27.37109375 C-253.39316406 26.52933594 -252.75507813 25.68757813 -252.09765625 24.8203125 C-237.13661308 5.73013454 -218.98038873 -8.66127672 -198.03125 -20.62890625 C-197.37817871 -21.00289551 -196.72510742 -21.37688477 -196.05224609 -21.76220703 C-179.82232456 -30.87602925 -161.39518807 -36.80857858 -143.03125 -39.62890625 C-141.41863281 -39.93248047 -141.41863281 -39.93248047 -139.7734375 -40.2421875 C-90.84182782 -48.43460962 -37.19243291 -32.68679435 0 0 Z " fill="#8C5AC4" transform="translate(370.03125,121.62890625)"/>
<path d="M0 0 C4.26600259 1.54766605 6.47895169 4.75791379 9.125 8.25 C9.60437012 8.87334229 10.08374023 9.49668457 10.57763672 10.13891602 C12.06385409 12.08380323 13.53460244 14.03938891 15 16 C15.44214844 16.58958496 15.88429688 17.17916992 16.33984375 17.78662109 C22.83715368 26.50812412 28.62465662 35.54918628 34 45 C34.36448242 45.63180176 34.72896484 46.26360352 35.10449219 46.91455078 C56.71034998 84.66282572 66.47698095 127.42939997 66.3125 170.625 C66.30926727 172.15185928 66.30926727 172.15185928 66.30596924 173.70956421 C66.25629854 188.31863523 66.00540191 202.65075853 63 217 C62.80132324 217.97485352 62.60264648 218.94970703 62.39794922 219.95410156 C56.9464995 246.01488968 47.96928947 270.27708394 36 294 C31.93039841 292.63146141 29.41541717 290.81892472 26.3125 287.875 C22.10261341 283.96716805 17.76150137 280.34729015 13.2265625 276.82421875 C7.33145615 271.99436846 7.33145615 271.99436846 6 268 C5.37056091 261.52340309 7.34488889 256.74262349 9.75 250.875 C10.49241627 248.99330276 11.23201448 247.11049116 11.96875 245.2265625 C12.32324219 244.32325195 12.67773438 243.41994141 13.04296875 242.48925781 C14.9974377 237.40564419 16.57383608 232.25292956 18 227 C18.33644531 225.80632812 18.67289062 224.61265625 19.01953125 223.3828125 C33.84649656 167.9614972 23.33124332 109.12659782 -5 60 C-9.10506095 53.22467041 -13.53476766 46.7514292 -18.5625 40.625 C-21.05556834 37.31757696 -22.1804489 34.42457261 -22.3359375 30.26171875 C-21.03685472 21.51556839 -11.58353114 13.74647636 -5.92578125 7.35546875 C-3.830879 4.98054505 -1.84026732 2.58157642 0 0 Z " fill="#EDDA00" transform="translate(446,85)"/>
<path d="M0 0 C4.06960159 1.36853859 6.58458283 3.18107528 9.6875 6.125 C13.12193904 9.3185157 16.6049962 12.31556795 20.3125 15.1875 C27.40790766 20.85265226 27.40790766 20.85265226 30 25 C30.66422504 31.77509543 28.95124196 36.47597155 26.25 42.625 C22.89435723 50.6482166 20.10845144 58.5485503 18 67 C17.79777832 67.77956055 17.59555664 68.55912109 17.38720703 69.36230469 C12.81872876 87.01187026 10.83591036 103.54227992 10.8125 121.75 C10.81132172 122.4555603 10.81014343 123.16112061 10.80892944 123.88806152 C10.81132177 136.54678059 11.33137774 148.99362562 13.8125 161.4375 C13.99063232 162.34363037 14.16876465 163.24976074 14.35229492 164.18334961 C15.84603044 171.58882816 17.67046584 178.80950457 20 186 C20.22494141 186.71381836 20.44988281 187.42763672 20.68164062 188.16308594 C28.27075984 212.04177899 39.43990263 234.37657555 54.75 254.25 C56.98453726 257.28859669 57.97633093 258.90194243 58.875 262.625 C56.78314873 270.69356917 50.78654672 276.51365795 45.2578125 282.4921875 C41.95355142 286.16231832 38.96456728 290.05359855 36 294 C31.73399741 292.45233395 29.52104831 289.24208621 26.875 285.75 C26.39562988 285.12665771 25.91625977 284.50331543 25.42236328 283.86108398 C23.93614591 281.91619677 22.46539756 279.96061109 21 278 C20.55785156 277.41041504 20.11570313 276.82083008 19.66015625 276.21337891 C13.16418009 267.49366623 7.34989278 258.46397841 2 249 C1.5978125 248.29278809 1.195625 247.58557617 0.78125 246.85693359 C-12.2441741 223.72154164 -20.99301461 198.55037591 -26.3125 172.5625 C-26.45985596 171.84360596 -26.60721191 171.12471191 -26.7590332 170.3840332 C-29.73289088 154.73774391 -30.37300362 139.26431954 -30.3125 123.375 C-30.31034485 122.35709381 -30.3081897 121.33918762 -30.30596924 120.29043579 C-30.25629854 105.68136477 -30.00540191 91.34924147 -27 77 C-26.80132324 76.02514648 -26.60264648 75.05029297 -26.39794922 74.04589844 C-20.9464995 47.98511032 -11.96928947 23.72291606 0 0 Z " fill="#EDDA00" transform="translate(30,133)"/>
<path d="M0 0 C1.0054184 0.00465271 2.01083679 0.00930542 3.04672241 0.01409912 C17.55398411 0.09270742 31.81520628 0.39095071 46.0625 3.375 C47.03735352 3.57367676 48.01220703 3.77235352 49.01660156 3.97705078 C72.70545462 8.93233421 95.40845947 16.54797974 117.0625 27.375 C116.45998835 30.47576188 115.49946287 32.44788507 113.5859375 34.94921875 C113.08328369 35.6129248 112.58062988 36.27663086 112.06274414 36.96044922 C111.52641357 37.65412598 110.99008301 38.34780273 110.4375 39.0625 C109.62043579 40.13008545 109.62043579 40.13008545 108.78686523 41.21923828 C107.70481362 42.63184083 106.62047543 44.04269524 105.53369141 45.45166016 C104.29604531 47.06967807 103.08782656 48.71014512 101.88671875 50.35546875 C101.01466797 51.54076172 101.01466797 51.54076172 100.125 52.75 C99.64160156 53.41773438 99.15820312 54.08546875 98.66015625 54.7734375 C95.74216186 57.69856635 92.87263906 58.29173299 88.83203125 58.70703125 C84.06126981 58.28680874 80.17282024 56.82422146 75.75 55.0625 C74.0567788 54.41330242 72.36277511 53.76614177 70.66796875 53.12109375 C69.86665527 52.81413574 69.0653418 52.50717773 68.23974609 52.19091797 C65.02409531 50.98586023 61.777545 49.96174874 58.46948242 49.04492188 C56.87316691 48.60062836 55.28033248 48.14361951 53.69140625 47.67358398 C18.28066232 37.46335141 -21.00478614 39.2335067 -56.4375 48.5625 C-67.09342315 51.30263125 -67.09342315 51.30263125 -72.9375 50.375 C-79.44452277 46.5016819 -83.01188699 40.03400459 -86.75 33.6875 C-87.88144814 31.80855625 -89.01295592 29.9296484 -90.14453125 28.05078125 C-90.6341333 27.22489502 -91.12373535 26.39900879 -91.62817383 25.5480957 C-92.68459875 23.79474157 -93.80201849 22.07822226 -94.9375 20.375 C-94.9375 19.385 -94.9375 18.395 -94.9375 17.375 C-82.15393857 12.85785614 -69.39019852 8.38333096 -56.125 5.5 C-55.31861084 5.32186768 -54.51222168 5.14373535 -53.68139648 4.96020508 C-50.77491591 4.36479298 -47.86486188 3.85891973 -44.9375 3.375 C-44.18920929 3.25078674 -43.44091858 3.12657349 -42.66995239 2.99859619 C-28.3933138 0.68680962 -14.44956184 -0.11998824 0 0 Z " fill="#EDDA00" transform="translate(255.9375,-0.375)"/>
<path d="M0 0 C8.53709629 4.04388772 13.3201586 10.02263753 16.75 18.6875 C17.64893411 22.00664131 18.15308989 25.27574911 18.5625 28.6875 C19.03816406 27.72650391 19.03816406 27.72650391 19.5234375 26.74609375 C23.8948936 18.64320137 29.27404492 14.33172754 37.4375 10.25 C48.17275805 8.31765355 56.70679122 9.85876734 65.8125 15.8125 C82.05523215 32.79353816 75.5625 50.71983469 75.5625 75.6875 C43.5525 75.6875 11.5425 75.6875 -21.4375 75.6875 C-21.52 66.98375 -21.6025 58.28 -21.6875 49.3125 C-21.72391602 46.58436035 -21.76033203 43.8562207 -21.79785156 41.04541016 C-21.80954633 38.85580225 -21.81973628 36.66618557 -21.828125 34.4765625 C-21.84858887 33.36176514 -21.86905273 32.24696777 -21.89013672 31.09838867 C-21.89464819 20.87764203 -19.41024648 12.85693767 -12.29296875 5.390625 C-8.43418231 1.84866523 -5.51143896 -0.50103991 0 0 Z " fill="#FECABD" transform="translate(281.4375,129.3125)"/>
<path d="M0 0 C7.25351703 3.24499446 13.05336469 8.63028713 16.75 15.6875 C18.269972 21.46339359 18.53240185 27.00768435 18.55200195 32.93847656 C18.56185875 34.24705879 18.56185875 34.24705879 18.57191467 35.58207703 C18.59154976 38.45576071 18.60328786 41.32939239 18.61328125 44.203125 C18.61735678 45.18910423 18.6214323 46.17508347 18.62563133 47.19094086 C18.64644952 52.40903002 18.66077005 57.62709321 18.67016602 62.84521484 C18.68122659 68.21609002 18.71563492 73.58655049 18.75533772 78.95727921 C18.78155865 83.104459 18.78986267 87.25154069 18.79344749 91.39879608 C18.79829858 93.37781325 18.80987009 95.35682647 18.82848549 97.33576202 C19.03737649 121.01187719 19.03737649 121.01187719 10.0078125 130.5859375 C6.30835391 133.93138091 3.1300374 135.93249723 -2 136.3125 C-9.26032885 133.80893833 -14.13180943 128.6190789 -17.625 121.875 C-20.45119121 115.80065154 -20.7796608 110.11833699 -20.80200195 103.48364258 C-20.80857315 102.63090759 -20.81514435 101.77817261 -20.82191467 100.89959717 C-20.84157896 98.08540752 -20.85329553 95.27127109 -20.86328125 92.45703125 C-20.86735678 91.49220007 -20.8714323 90.52736889 -20.87563133 89.5333004 C-20.89646375 84.4254414 -20.91077716 79.31760904 -20.92016602 74.2097168 C-20.93121882 68.95202978 -20.96561399 63.69476731 -21.00533772 58.43723011 C-21.0315655 54.37840524 -21.03986336 50.31968057 -21.04344749 46.26077843 C-21.04829824 44.32362695 -21.05986874 42.38647949 -21.07848549 40.44941139 C-21.20116986 26.83713198 -20.61346502 15.39381851 -10.625 5.0625 C-7.31139797 2.32829007 -4.38176613 0.10432776 0 0 Z " fill="#FECABD" transform="translate(221.625,140.9375)"/>
<path d="M0 0 C7.57329565 3.02931826 12.56571455 7.9344524 16.25 15.13671875 C18.18205239 19.80297028 18.27866263 24.18995655 18.28613281 29.19628906 C18.29358017 30.39220924 18.29358017 30.39220924 18.30117798 31.61228943 C18.31576768 34.24674345 18.32259681 36.88113723 18.328125 39.515625 C18.33387974 41.35162354 18.33963744 43.18762208 18.34539795 45.02362061 C18.35589932 48.87366007 18.36174742 52.7236787 18.36523438 56.57373047 C18.37071267 61.49415151 18.39473013 66.41429494 18.42320633 71.33462906 C18.44188127 75.12830393 18.44704093 78.92191263 18.44857025 82.71562958 C18.45158711 84.52882146 18.45958282 86.34201245 18.47275543 88.155159 C18.48991534 90.69902821 18.4879115 93.24222833 18.48144531 95.78613281 C18.49526749 96.89773018 18.49526749 96.89773018 18.5093689 98.03178406 C18.45095245 105.41195789 16.35116506 111.55443267 11.25 117.0625 C10.59257812 117.79082031 9.93515625 118.51914062 9.2578125 119.26953125 C6.23007998 122.08099716 3.41890487 123.95593071 -0.625 124.875 C-6.75136695 123.69685251 -11.11562956 119.64347686 -14.75 114.69921875 C-18.87751701 108.00192552 -20.02305025 103.18466016 -20.06787109 95.33544922 C-20.07604858 94.54138168 -20.08422607 93.74731415 -20.09265137 92.92918396 C-20.11743701 90.30435933 -20.13400653 87.67958865 -20.1484375 85.0546875 C-20.15376118 84.15513462 -20.15908485 83.25558174 -20.16456985 82.32876968 C-20.19127561 77.56456607 -20.21065614 72.8003884 -20.22509766 68.03613281 C-20.23841751 64.10588203 -20.26623765 60.17615281 -20.30712891 56.24609375 C-20.35662054 51.4886957 -20.38123907 46.73176937 -20.38832474 41.97412491 C-20.39500995 40.16813123 -20.41016031 38.36214695 -20.43421555 36.55630112 C-20.57820132 25.09031817 -20.21375377 16.57220841 -12.5 7.4375 C-11.63375 6.715625 -10.7675 5.99375 -9.875 5.25 C-9.32714844 4.77433594 -8.77929688 4.29867187 -8.21484375 3.80859375 C-5.41477794 1.55007913 -3.63274719 0.31589106 0 0 Z " fill="#FECABD" transform="translate(162.875,152.75)"/>
<path d="M0 0 C9.52540733 2.46955005 16.82449667 10.58228839 24.01953125 16.94921875 C26.39445495 19.044121 28.79342358 21.03473268 31.375 22.875 C29.82733395 27.14100259 26.61708621 29.35395169 23.125 32 C22.50165771 32.47937012 21.87831543 32.95874023 21.23608398 33.45263672 C19.29119677 34.93885409 17.33561109 36.40960244 15.375 37.875 C14.78541504 38.31714844 14.19583008 38.75929688 13.58837891 39.21484375 C-34.27914846 74.875 -34.27914846 74.875 -53.625 74.875 C-53.625 60.355 -53.625 45.835 -53.625 30.875 C-49.2628125 28.77125 -49.2628125 28.77125 -44.8125 26.625 C-31.94819825 20.27790236 -19.73391487 12.89600384 -8.375 4.125 C-5.33640331 1.89046274 -3.72305757 0.89866907 0 0 Z " fill="#EDDA00" transform="translate(395.625,423.125)"/>
<path d="M0 0 C2.56241484 1.32434802 4.66770458 3.0298807 6.875 4.875 C12.60927768 9.36708597 18.48949463 13.25667612 24.8125 16.875 C25.5761084 17.31440918 26.3397168 17.75381836 27.12646484 18.20654297 C32.6691822 21.34841053 38.2860062 24.1430031 44 27 C44 41.52 44 56.04 44 71 C32.72159091 67.61647727 32.72159091 67.61647727 28.625 65.6875 C27.71161865 65.25751709 26.7982373 64.82753418 25.85717773 64.38452148 C24.44287476 63.69918335 24.44287476 63.69918335 23 63 C22.00105713 62.51797119 21.00211426 62.03594238 19.97290039 61.53930664 C1.09541801 52.26834857 -15.89483107 40.460255 -32 27 C-33.6635019 25.66272031 -35.32927341 24.32824253 -37 23 C-35.7562083 19.2686249 -34.25793801 18.35783096 -31.1875 15.9375 C-30.20007813 15.15117187 -29.21265625 14.36484375 -28.1953125 13.5546875 C-27.67356445 13.14057617 -27.15181641 12.72646484 -26.61425781 12.29980469 C-24.96956041 10.97548996 -23.35295316 9.62314656 -21.7421875 8.2578125 C-20.94518433 7.58310913 -20.94518433 7.58310913 -20.13208008 6.89477539 C-18.63003007 5.6198202 -17.12943356 4.34315319 -15.62890625 3.06640625 C-10.28398101 -1.13487971 -6.56223916 -1.70007647 0 0 Z " fill="#EDDA01" transform="translate(122,425)"/>
<path d="M0 0 C1.01099317 3.81926486 2.00723111 7.64206426 2.99072266 11.46850586 C3.4901937 13.39958638 4.00084731 15.3277635 4.51171875 17.25585938 C8.47893473 32.76038712 8.47893473 32.76038712 6.0625 39.6875 C2.87336978 43.26319146 -0.93506969 45.5035141 -5 48 C-7.66912255 49.64188256 -10.33510162 51.28877172 -13 52.9375 C-13.69899414 53.36627441 -14.39798828 53.79504883 -15.11816406 54.23681641 C-18.96446067 56.62376684 -22.48717006 59.11546951 -25.9375 62.0625 C-29.41814263 64.83644669 -32.25918512 66.23871233 -36.75390625 66.38671875 C-44.25490393 65.09524263 -50.13753928 58.20960317 -55.4921875 53.2578125 C-59.16231832 49.95355142 -63.05359855 46.96456728 -67 44 C-65.45233395 39.73399741 -62.24208621 37.52104831 -58.75 34.875 C-58.12665771 34.39562988 -57.50331543 33.91625977 -56.86108398 33.42236328 C-54.91619677 31.93614591 -52.96061109 30.46539756 -51 29 C-50.41041504 28.55785156 -49.82083008 28.11570312 -49.21337891 27.66015625 C-37.33920919 18.81418549 -24.80397223 11.40291654 -11.75 4.4375 C-10.51600464 3.77427734 -10.51600464 3.77427734 -9.25708008 3.09765625 C-8.4864624 2.69289063 -7.71584473 2.288125 -6.921875 1.87109375 C-6.23706055 1.50943115 -5.55224609 1.14776855 -4.84667969 0.77514648 C-3 0 -3 0 0 0 Z " fill="#EDDA01" transform="translate(152,22)"/>
<path d="M0 0 C5.85387862 2.76597407 11.06039113 5.9121691 16.3125 9.6875 C17.05016602 10.21279297 17.78783203 10.73808594 18.54785156 11.27929688 C24.5797311 15.61298248 30.3227533 20.21102999 36 25 C37.66303487 26.33786045 39.32871778 27.67245667 41 29 C39.48318506 32.81346128 37.25546974 34.67252097 34.0625 37.1875 C33.0828125 37.96609375 32.103125 38.7446875 31.09375 39.546875 C30.0728125 40.35640625 29.051875 41.1659375 28 42 C25.13281005 44.37947207 22.27008705 46.76415412 19.41015625 49.15234375 C14.83785974 52.65752405 11.88645548 53.65819017 6 53 C3.33824905 51.76306868 1.08630443 50.13987066 -1.25 48.375 C-1.86101562 47.94832031 -2.47203125 47.52164063 -3.1015625 47.08203125 C-7.01622855 44.21868381 -9.36515314 41.70314639 -11 37 C-11.3212224 31.81849241 -10.56529637 27.88670201 -8.84765625 23.0078125 C-8.62806747 22.3764035 -8.4084787 21.74499451 -8.18223572 21.0944519 C-7.72069306 19.77343381 -7.25403683 18.45419202 -6.7824707 17.13671875 C-6.05822726 15.11306124 -5.34912837 13.08458262 -4.64257812 11.0546875 C-1.17512669 1.17512669 -1.17512669 1.17512669 0 0 Z " fill="#ECD902" transform="translate(386,35)"/>
<path d="M0 0 C4.84485099 1.27397528 9.45967836 2.99736674 14.125 4.8125 C15.35476563 5.26431641 16.58453125 5.71613281 17.8515625 6.18164062 C24.51446456 8.70602553 24.51446456 8.70602553 27 10 C28 13 28 13 27.18652344 14.77075195 C26.52958496 15.74467896 26.52958496 15.74467896 25.859375 16.73828125 C25.37090088 17.46950195 24.88242676 18.20072266 24.37915039 18.95410156 C23.84153076 19.73237305 23.30391113 20.51064453 22.75 21.3125 C21.93486938 22.51277832 21.93486938 22.51277832 21.10327148 23.73730469 C14.57679414 33.2410205 7.39437142 42.16379229 0 51 C-3.81346128 49.48318506 -5.67252097 47.25546974 -8.1875 44.0625 C-8.96609375 43.0828125 -9.7446875 42.103125 -10.546875 41.09375 C-11.35640625 40.0728125 -12.1659375 39.051875 -13 38 C-15.37947207 35.13281005 -17.76415412 32.27008705 -20.15234375 29.41015625 C-23.65433586 24.84201855 -24.67562877 21.88230922 -24 16 C-22.69509807 13.31987208 -21.00534129 11.04133899 -19.1875 8.6875 C-18.73568359 8.06810547 -18.28386719 7.44871094 -17.81835938 6.81054688 C-12.52745712 -0.30320638 -8.47613046 -0.96954227 0 0 Z " fill="#EDD901" transform="translate(448,376)"/>
<path d="M0 0 C3.7313751 1.2437917 4.64216904 2.74206199 7.0625 5.8125 C7.84882812 6.79992187 8.63515625 7.78734375 9.4453125 8.8046875 C9.85942383 9.32643555 10.27353516 9.84818359 10.70019531 10.38574219 C12.02451004 12.03043959 13.37685344 13.64704684 14.7421875 15.2578125 C15.19198975 15.78914795 15.64179199 16.3204834 16.10522461 16.86791992 C17.3801798 18.36996993 18.65684681 19.87056644 19.93359375 21.37109375 C22.35436848 24.45083174 23.76926117 26.78862114 24.5 30.625 C23.49354834 37.41854874 18.64372092 44.04669768 14 49 C9.39936086 51.73531785 5.21933763 51.66492699 0 51 C-4.98646625 49.62755208 -9.79679572 47.84131671 -14.625 46 C-15.92783667 45.51674717 -17.23121975 45.03496479 -18.53515625 44.5546875 C-21.69576359 43.38409219 -24.85008194 42.19899695 -28 41 C-27.46411437 37.6747336 -26.80566678 35.2716754 -24.8828125 32.50390625 C-24.44598145 31.86952637 -24.00915039 31.23514648 -23.55908203 30.58154297 C-23.08583496 29.91525879 -22.61258789 29.24897461 -22.125 28.5625 C-21.63757324 27.86527832 -21.15014648 27.16805664 -20.64794922 26.44970703 C-14.18675563 17.29962942 -7.19130282 8.58316789 0 0 Z " fill="#EDD901" transform="translate(64,85)"/>
<path d="M0 0 C0 0.66 0 1.32 0 2 C-1.5390625 3.04296875 -1.5390625 3.04296875 -3.625 4.1875 C-10.39127 8.2951648 -14.02207459 12.99186986 -16.39321899 20.50436401 C-17.40912791 24.68270648 -17.48033804 28.78282831 -17.51171875 33.06640625 C-17.52966995 33.98590561 -17.54762115 34.90540497 -17.56611633 35.85276794 C-17.61979261 38.75596692 -17.65397681 41.65900561 -17.6875 44.5625 C-17.72071084 46.54494398 -17.75520392 48.52736692 -17.79101562 50.50976562 C-17.87788058 55.33986136 -17.93831283 60.16925645 -18 65 C-24.6 65 -31.2 65 -38 65 C-38.78666234 58.09152591 -39.13703423 51.347633 -39.09765625 44.3984375 C-39.0962413 43.435961 -39.09482635 42.4734845 -39.09336853 41.48184204 C-39.08782807 38.44619468 -39.07528716 35.41062459 -39.0625 32.375 C-39.05747729 30.30078232 -39.05291574 28.22656348 -39.04882812 26.15234375 C-39.03787824 21.10153331 -39.02065564 16.0507797 -39 11 C-38.67 11 -38.34 11 -38 11 C-37.67 13.31 -37.34 15.62 -37 18 C-36.52433594 17.03900391 -36.52433594 17.03900391 -36.0390625 16.05859375 C-31.6676064 7.95570137 -26.28845508 3.64422754 -18.125 -0.4375 C-12.23289719 -1.49807851 -5.72000964 -1.90666988 0 0 Z " fill="#F8B6AB" transform="translate(337,140)"/>
<path d="M0 0 C0.57363281 0.72316406 1.14726562 1.44632813 1.73828125 2.19140625 C7.8147856 9.73718626 13.61742964 16.04292008 22 21 C22.845625 21.5775 23.69125 22.155 24.5625 22.75 C27.94609595 24.48517741 31.28862753 25.18223996 35 26 C24.04265403 37.27962085 24.04265403 37.27962085 19 38 C11.57438239 34.80243813 6.00412029 28.90365567 2 22 C0.22882678 16.87423722 -0.22072592 12.47101432 -0.125 7.0625 C-0.11597656 6.37865234 -0.10695313 5.69480469 -0.09765625 4.99023438 C-0.07438958 3.32666713 -0.03853167 1.66328369 0 0 Z " fill="#FECABD" transform="translate(260,240)"/>
</svg>
