<?xml version="1.0" encoding="UTF-8"?>
<svg version="1.1" xmlns="http://www.w3.org/2000/svg" width="512" height="512">
<path d="M0 0 C3.2958371 1.90426144 4.70740444 3.05719208 5.84375 6.71875 C6.03997058 10.83938228 4.66405197 13.40256297 2.6875 16.875 C-4.18895444 29.89856237 -4.93986228 43.21020692 -0.8671875 57.42578125 C0.24483409 60.72678229 1.49967416 63.85646014 3 67 C8.98405729 66.70079714 12.88768083 64.16329833 17 60 C21.31203613 53.84312368 22.88574559 47.08999642 24.2265625 39.78515625 C25.03448658 36.87581346 25.58216689 35.74944175 28 34 C31.96273876 32.97262329 34.11126973 32.59427531 37.875 34.3125 C40 36 40 36 41 38 C42.32997347 50.16598678 38.12004237 61.24899509 31 71 C26.13370884 76.85395279 20.83829099 80.70748952 14 84 C23.80458045 95.85712814 33.83121307 106.30716119 46.14746094 115.57861328 C48.0305694 117.0234548 49.86248844 118.51941616 51.6953125 120.02734375 C52.90003793 120.97783609 54.10573454 121.92709906 55.3125 122.875 C55.85028076 123.33447021 56.38806152 123.79394043 56.94213867 124.26733398 C58.74118311 125.73728856 58.74118311 125.73728856 62 127 C65.21203633 126.51747095 68.01636064 125.2453767 71 124 C72.66492274 123.46609518 74.33720591 122.95467172 76.015625 122.46484375 C77.30533203 122.08682617 77.30533203 122.08682617 78.62109375 121.70117188 C79.48863281 121.44916016 80.35617188 121.19714844 81.25 120.9375 C82.10207031 120.68162109 82.95414063 120.42574219 83.83203125 120.16210938 C96.06739039 116.61549633 108.04438363 115.61894688 120.75 115.6875 C121.45343536 115.68932281 122.15687073 115.69114563 122.88162231 115.69302368 C136.92546196 115.75422513 149.48718191 117.60150801 163 121.5 C163.7209082 121.70786133 164.44181641 121.91572266 165.18457031 122.12988281 C168.11746106 123.00768946 170.85441386 123.92422452 173.57421875 125.33984375 C175.99643827 126.59796516 177.26012708 127.16336551 180 127 C185.16324835 124.26069579 189.5159144 120.71910782 194 117 C194.96421875 116.24332031 195.9284375 115.48664063 196.921875 114.70703125 C208.09483668 105.84293304 220.04185259 95.93722112 228 84 C227.3709375 83.6596875 226.741875 83.319375 226.09375 82.96875 C213.27304892 75.70883493 206.4111495 66.41537646 201.828125 52.421875 C200.64773607 47.54441884 200.36828026 42.98268946 201 38 C203.01877814 34.73889685 204.31887692 34.2173797 207.9375 33.0625 C211.67522816 32.98621983 213.14126272 33.61771893 216 36 C217.64971495 39.50564427 218.4698396 42.96922269 219.25 46.75 C221.06953861 54.17444901 224.10957174 59.59130978 230 64.5 C233.08790247 66.04395124 235.60938512 66.51024452 239 67 C239.81690177 64.77236012 240.62861872 62.5430514 241.4375 60.3125 C241.66759766 59.68666016 241.89769531 59.06082031 242.13476562 58.41601562 C246.2656249 46.9813182 246.96743149 33.31269069 242 22 C240.4206327 18.9198409 238.81806151 15.8699179 237.109375 12.859375 C235.76663818 9.39851813 235.97515482 7.53497324 237 4 C239.60517009 1.17152961 241.1995112 0.1334148 245 -0.5 C248.7980931 0.13301552 250.19547547 1.3766909 253 4 C262.98092314 19.80652318 265.8319477 38.23885381 261.81787109 56.49365234 C258.46660455 69.79834241 252.63598831 80.75396929 245 92 C256.62814008 89.96548901 265.8315065 87.65344098 273.49609375 78.24609375 C279.58229335 69.15631512 280.1410352 59.97426555 279.64453125 49.33984375 C280.07235518 45.32017937 281.11988163 43.7830931 284 41 C287.83166611 39.88533349 290.04255961 39.65957675 293.8125 41 C297.49487103 44.36673922 297.82483505 47.89176472 298.21875 52.6328125 C298.70282947 67.76029598 294.56437573 81.75727608 284.75 93.375 C274.75462071 103.804961 261.18568625 108.6589841 247 110 C245.56489794 109.98751792 244.12987751 109.95916297 242.6953125 109.91796875 C235.34029616 109.78879603 229.52028772 109.70211353 223.81982422 114.80126953 C221.6989133 116.92745799 219.65936061 119.12036823 217.63134766 121.33496094 C214.81957827 124.20480039 211.63583616 126.58001999 208.4375 129 C204.73834525 131.81058228 201.20328705 134.616577 198 138 C198.60585938 138.40089844 199.21171875 138.80179688 199.8359375 139.21484375 C205.60856388 143.13134873 210.74272481 147.34561504 215.7734375 152.1796875 C218.55931097 154.502836 218.55931097 154.502836 222 155 C225.15415359 153.67394834 225.15415359 153.67394834 228.5 151.75 C234.83290717 148.38275909 240.9220433 146.33244667 248 145 C249.134375 144.773125 250.26875 144.54625 251.4375 144.3125 C272.9999075 142.42106075 293.17811318 147.6615981 310.54296875 160.9453125 C322.19613268 170.90027666 322.19613268 170.90027666 323.625 178.1875 C322.57041285 182.93314216 319.88179377 185.39678567 315.93359375 188.09765625 C314.77585729 188.76599574 313.61006705 189.42053591 312.4375 190.0625 C311.81979736 190.40684082 311.20209473 190.75118164 310.56567383 191.10595703 C298.8286702 197.49420369 287.12866445 200.38360843 273.8125 200.3125 C272.80888428 200.31121094 271.80526855 200.30992187 270.77124023 200.30859375 C262.85660196 200.20678958 255.62481184 199.2200492 248 197 C248.32613281 197.90878906 248.65226562 198.81757813 248.98828125 199.75390625 C253.22784603 211.83796437 256.36314589 224.14712624 257 237 C257.07927734 238.53527344 257.07927734 238.53527344 257.16015625 240.1015625 C258.00857249 273.37423412 247.26409997 305.03569903 234.875 335.44921875 C233.89755321 338.2986507 233.41039807 341.01777402 233 344 C232.87496094 344.825 232.74992187 345.65 232.62109375 346.5 C232.0534669 354.22938694 234.89254064 359.15238533 238.95703125 365.4453125 C243.17724812 372.34978016 244.54207769 379.30201361 244.4375 387.3125 C244.42920166 388.14136719 244.42090332 388.97023438 244.41235352 389.82421875 C243.98086956 405.59718375 236.20880126 417.48213235 225.24560547 428.29345703 C219.38580722 433.82247356 213.01674484 438.08359064 206 442 C205.38286133 442.34901367 204.76572266 442.69802734 204.12988281 443.05761719 C164.22375711 465.27318742 112.13560329 467.44467307 68.80859375 455.4375 C50.55306138 450.09550313 33.26401601 442.90553829 19 430 C18.15953125 429.25234375 17.3190625 428.5046875 16.453125 427.734375 C5.33744705 417.2923745 -1.83986517 405.39277321 -2.39819336 390.08666992 C-2.57689776 378.61073972 -0.39369179 370.75762814 5.75 361 C10.37925778 353.29119305 9.79989119 347.11798278 8 338.5625 C6.50773011 333.08615105 4.40657319 327.92591217 2.25 322.6875 C-13.28138673 284.93660396 -21.76605722 242.5847244 -7.98828125 203.0546875 C-6.84608986 200.05937419 -6.84608986 200.05937419 -7 197 C-7.67160156 197.2165625 -8.34320313 197.433125 -9.03515625 197.65625 C-31.01743802 203.78292466 -52.57366263 200.04668596 -72.25048828 189.09033203 C-75.63655609 186.98006426 -79.18850074 184.62299852 -81 181 C-81.38379171 177.38932803 -81.28812421 175.49839667 -79.453125 172.32421875 C-66.60416541 156.94647456 -49.82969253 147.3071159 -29.9375 144.25 C-13.20785785 143.1878005 0.59700714 145.31604871 15.671875 152.4765625 C19.21505214 154.2515117 19.21505214 154.2515117 23 155 C24.80115326 153.65699141 24.80115326 153.65699141 26.4375 151.625 C31.60337845 146.07682694 37.70584329 142.14493246 44 138 C40.91845672 134.83664584 37.80433777 131.95112409 34.3125 129.25 C29.84661531 125.72920566 25.61078633 122.02030222 21.421875 118.17578125 C20.62265625 117.45777344 19.8234375 116.73976563 19 116 C18.17113281 115.10796875 17.34226562 114.2159375 16.48828125 113.296875 C11.94596157 109.55007431 6.05372969 110.12633762 0.4375 109.9375 C-8.95505337 109.41688011 -17.3005463 108.82775963 -26 105 C-26.79664063 104.65195313 -27.59328125 104.30390625 -28.4140625 103.9453125 C-40.18076258 98.08218016 -48.35497063 88.44210561 -53.05859375 76.2578125 C-56.27553754 66.12982678 -58.47971044 53.0260186 -54 43 C-51.01960591 40.27506826 -49.48459923 40 -45.4375 40 C-41.25445846 41.21688481 -40.29105863 42.35331497 -38 46 C-37.71484375 49.12890625 -37.71484375 49.12890625 -37.9375 52.5625 C-38.237719 63.58977481 -36.08988562 73.45337295 -28.4375 81.6796875 C-21.13544054 88.4746595 -12.66790196 90.6266158 -3 92 C-3.43570313 91.34515625 -3.87140625 90.6903125 -4.3203125 90.015625 C-17.29904343 70.12614123 -23.47690688 50.26973341 -20.57421875 26.515625 C-18.38384413 16.57159296 -12.67534295 -2.11255716 0 0 Z " fill="#C56C23" transform="translate(135,25)"/>
<path d="M0 0 C0.27972656 0.56847656 0.55945313 1.13695312 0.84765625 1.72265625 C6.2567446 12.14080391 13.89215126 18.6398873 24.76171875 23.14453125 C33.77210264 25.52483773 45.39722282 25.45116389 53.83203125 21.328125 C62.60633113 15.95287822 69.81174186 9.53992131 74 0 C82.38584889 0.34285377 89.6734003 2.1384276 97.5625 4.9375 C99.26116211 5.53485962 99.26116211 5.53485962 100.99414062 6.14428711 C119.07593349 12.72262776 133.66008972 22.13581377 147 36 C147.64839844 36.57234375 148.29679688 37.1446875 148.96484375 37.734375 C151.75351452 40.83884534 153.38242611 44.26116026 155.1875 48 C155.54263672 48.7115625 155.89777344 49.423125 156.26367188 50.15625 C161.48787004 60.78308194 161.92901194 74.16004668 158.4375 85.5 C151.48498604 102.78538815 137.97381128 115.08418712 122 124 C121.38286133 124.34901367 120.76572266 124.69802734 120.12988281 125.05761719 C80.22375711 147.27318742 28.13560329 149.44467307 -15.19140625 137.4375 C-33.44693862 132.09550313 -50.73598399 124.90553829 -65 112 C-65.84046875 111.25234375 -66.6809375 110.5046875 -67.546875 109.734375 C-78.66255295 99.2923745 -85.83986517 87.39277321 -86.39819336 72.08666992 C-86.52900921 63.6860175 -85.93270723 56.5753918 -82 49 C-81.49082031 47.98292969 -80.98164063 46.96585937 -80.45703125 45.91796875 C-76.82836542 39.18376283 -72.95682623 34.68917771 -67 30 C-65.64369745 28.71057628 -64.28963779 27.41879038 -62.9375 26.125 C-47.52612406 12.52518273 -20.87740869 -0.61404143 0 0 Z " fill="#E99952" transform="translate(219,343)"/>
<path d="M0 0 C8.19294524 5.40994479 12.56043485 17.17000712 14.5625 26.5546875 C17.69426369 51.21732654 10.7783857 71.70764983 -3 92 C8.62814008 89.96548901 17.8315065 87.65344098 25.49609375 78.24609375 C31.58229335 69.15631512 32.1410352 59.97426555 31.64453125 49.33984375 C32.07235518 45.32017937 33.11988163 43.7830931 36 41 C39.83166611 39.88533349 42.04255961 39.65957675 45.8125 41 C49.49487103 44.36673922 49.82483505 47.89176472 50.21875 52.6328125 C50.70282947 67.76029598 46.56437573 81.75727608 36.75 93.375 C26.75462071 103.804961 13.18568625 108.6589841 -1 110 C-2.43510206 109.98751792 -3.87012249 109.95916297 -5.3046875 109.91796875 C-12.65706484 109.78884238 -18.48030196 109.70023125 -24.17773438 114.80004883 C-26.31090824 116.93686631 -28.371705 119.13208403 -30.41259766 121.35693359 C-33.03741089 124.07378888 -35.95519866 126.37755705 -38.9375 128.6875 C-39.8035083 129.36232422 -39.8035083 129.36232422 -40.68701172 130.05078125 C-45.88224321 134.02998444 -51.30749941 137.60685646 -56.87109375 141.046875 C-58.74779816 142.21835091 -60.60340851 143.42639564 -62.41015625 144.703125 C-65.91813489 147.16344142 -67.39373319 148 -71.8125 148 C-76.63636364 146.48663102 -76.63636364 146.48663102 -78 144 C-78.53011119 140.76632174 -78.79632545 139.06233979 -78 136 C-76.05275222 133.48480495 -73.57488866 131.83656933 -71 130 C-69.41230522 128.71369813 -67.82922816 127.42168255 -66.25 126.125 C-62.84288802 123.40443389 -59.37415285 120.82629658 -55.8125 118.3125 C-42.35423889 108.62025798 -29.88151092 97.34003974 -20 84 C-20.6290625 83.6596875 -21.258125 83.319375 -21.90625 82.96875 C-34.72695108 75.70883493 -41.5888505 66.41537646 -46.171875 52.421875 C-47.35226393 47.54441884 -47.63171974 42.98268946 -47 38 C-44.98122186 34.73889685 -43.68112308 34.2173797 -40.0625 33.0625 C-36.32477184 32.98621983 -34.85873728 33.61771893 -32 36 C-30.35028505 39.50564427 -29.5301604 42.96922269 -28.75 46.75 C-26.93046139 54.17444901 -23.89042826 59.59130978 -18 64.5 C-14.91209753 66.04395124 -12.39061488 66.51024452 -9 67 C-8.18309823 64.77236012 -7.37138128 62.5430514 -6.5625 60.3125 C-6.33240234 59.68666016 -6.10230469 59.06082031 -5.86523438 58.41601562 C-1.7343751 46.9813182 -1.03256851 33.31269069 -6 22 C-7.5793673 18.9198409 -9.18193849 15.8699179 -10.890625 12.859375 C-12.23336182 9.39851813 -12.02484518 7.53497324 -11 4 C-7.57580017 0.28229732 -5.01234874 -0.83539146 0 0 Z " fill="#321A01" transform="translate(383,25)"/>
<path d="M0 0 C3.2958371 1.90426144 4.70740444 3.05719208 5.84375 6.71875 C6.03997058 10.83938228 4.66405197 13.40256297 2.6875 16.875 C-4.18895444 29.89856237 -4.93986228 43.21020692 -0.8671875 57.42578125 C0.24483409 60.72678229 1.49967416 63.85646014 3 67 C8.98405729 66.70079714 12.88768083 64.16329833 17 60 C21.31203613 53.84312368 22.88574559 47.08999642 24.2265625 39.78515625 C25.03448658 36.87581346 25.58216689 35.74944175 28 34 C31.96273876 32.97262329 34.11126973 32.59427531 37.875 34.3125 C40 36 40 36 41 38 C42.32997347 50.16598678 38.12004237 61.24899509 31 71 C26.13370884 76.85395279 20.83829099 80.70748952 14 84 C26.90821656 99.61049741 40.73076965 112.13884872 57.3815918 123.65209961 C60.56791379 125.87534417 63.29574041 128.21964652 66 131 C67.60875 132.11375 67.60875 132.11375 69.25 133.25 C72.4673913 136.4673913 72.4673913 136.4673913 72.6875 140.0625 C72 144 72 144 69.9375 146.5625 C66.06091367 148.45955288 64.17885367 147.96468815 60 147 C57.6637461 145.62884146 55.63600455 144.30867268 53.5 142.6875 C48.60705103 139.0790216 48.60705103 139.0790216 43.375 136 C35.26475875 131.19393111 28.31220214 124.48996461 21.38671875 118.140625 C20.59910156 117.43421875 19.81148438 116.7278125 19 116 C18.17242187 115.10925781 17.34484375 114.21851563 16.4921875 113.30078125 C11.94728668 109.55096776 6.05770205 110.12647119 0.4375 109.9375 C-8.95505337 109.41688011 -17.3005463 108.82775963 -26 105 C-26.79664062 104.65195313 -27.59328125 104.30390625 -28.4140625 103.9453125 C-40.18076258 98.08218016 -48.35497063 88.44210561 -53.05859375 76.2578125 C-56.27553754 66.12982678 -58.47971044 53.0260186 -54 43 C-51.01960591 40.27506826 -49.48459923 40 -45.4375 40 C-41.25445846 41.21688481 -40.29105863 42.35331497 -38 46 C-37.71484375 49.12890625 -37.71484375 49.12890625 -37.9375 52.5625 C-38.237719 63.58977481 -36.08988562 73.45337295 -28.4375 81.6796875 C-21.13544054 88.4746595 -12.66790196 90.6266158 -3 92 C-3.43570313 91.34515625 -3.87140625 90.6903125 -4.3203125 90.015625 C-17.29904343 70.12614123 -23.47690688 50.26973341 -20.57421875 26.515625 C-18.38384413 16.57159296 -12.67534295 -2.11255716 0 0 Z " fill="#321A01" transform="translate(135,25)"/>
<path d="M0 0 C3.41214161 3.0339919 6.10849527 5.51557248 7.140625 10.16015625 C5.32921903 19.3983267 -1.14213966 26.35394633 -8.49609375 31.8515625 C-15.75855406 36.63137429 -22.66009327 38.90350749 -31.359375 38.78515625 C-32.14948975 38.77685791 -32.93960449 38.76855957 -33.75366211 38.76000977 C-45.34993156 38.42507794 -53.40706139 33.44857108 -61.49609375 25.328125 C-65.63685106 20.78804938 -69.09103565 16.55992763 -69.859375 10.28515625 C-69.32843168 6.12610021 -67.73291575 3.40891589 -64.53125 0.6875 C-47.07018734 -9.97325084 -17.48904535 -12.88044556 0 0 Z " fill="#DA0100" transform="translate(287.484375,329.65234375)"/>
<path d="M0 0 C4.08998175 1.80720124 6.66247347 4.19069751 9 8 C9.88278491 13.95879816 8.42198084 17.2832156 5 22 C1.15067567 24.39282323 -2.54417811 24.39784124 -7 24 C-10.45893025 22.58498308 -11.7512539 21.37740787 -13.8125 18.25 C-15.22286236 14.3900609 -15.64390467 12.0780629 -15 8 C-10.87601347 1.65637545 -7.69102401 -0.52142536 0 0 Z " fill="#361C02" transform="translate(199,278)"/>
<path d="M0 0 C4.08998175 1.80720124 6.66247347 4.19069751 9 8 C9.65808431 13.17066246 8.94143535 16.68589482 6 21 C1.66665607 23.95455268 -1.81081509 24.5660929 -7 24 C-10.45893025 22.58498308 -11.7512539 21.37740787 -13.8125 18.25 C-15.22286236 14.3900609 -15.64390467 12.0780629 -15 8 C-10.87601347 1.65637545 -7.69102401 -0.52142536 0 0 Z " fill="#351C02" transform="translate(319,278)"/>
</svg>
