<?xml version="1.0" encoding="UTF-8"?>
<!DOCTYPE svg PUBLIC "-//W3C//DTD SVG 1.1//EN" "http://www.w3.org/Graphics/SVG/1.1/DTD/svg11.dtd">
<svg xmlns="http://www.w3.org/2000/svg" version="1.1" width="512px" height="512px" style="shape-rendering:geometricPrecision; text-rendering:geometricPrecision; image-rendering:optimizeQuality; fill-rule:evenodd; clip-rule:evenodd" xmlns:xlink="http://www.w3.org/1999/xlink">
<g><path style="opacity:0.966" fill="#e8eefe" d="M 221.5,-0.5 C 225.5,-0.5 229.5,-0.5 233.5,-0.5C 241.851,4.53609 244.517,11.8694 241.5,21.5C 234.039,29.3269 225.706,30.3269 216.5,24.5C 210.111,14.5568 211.778,6.22345 221.5,-0.5 Z"/></g>
<g><path style="opacity:0.998" fill="#37253f" d="M 241.5,21.5 C 290.365,18.8008 336.032,29.4674 378.5,53.5C 370.881,89.7374 355.047,121.737 331,149.5C 330.506,151.134 330.34,152.801 330.5,154.5C 327.097,149.766 322.764,146.099 317.5,143.5C 315.282,136.734 312.282,130.401 308.5,124.5C 304.023,112.353 296.356,102.853 285.5,96C 282.232,94.8497 278.899,94.0164 275.5,93.5C 266.014,90.5249 256.348,89.5249 246.5,90.5C 235.319,91.7064 224.986,95.2064 215.5,101C 205.038,113.756 197.038,127.923 191.5,143.5C 187.273,145.393 183.607,148.06 180.5,151.5C 161.962,130.11 148.295,105.777 139.5,78.5C 136.7,70.2992 134.366,61.9659 132.5,53.5C 158.676,38.6632 186.676,28.9965 216.5,24.5C 225.706,30.3269 234.039,29.3269 241.5,21.5 Z"/></g>
<g><path style="opacity:1" fill="#e5ebfb" d="M 175.5,49.5 C 189.123,48.9351 193.623,54.9351 189,67.5C 181.498,73.5717 175.165,72.5717 170,64.5C 169.333,61.5 169.333,58.5 170,55.5C 171.36,52.9774 173.193,50.9774 175.5,49.5 Z"/></g>
<g><path style="opacity:1" fill="#63ae7c" d="M 132.5,53.5 C 134.366,61.9659 136.7,70.2992 139.5,78.5C 131.915,79.7025 126.415,83.7025 123,90.5C 121.141,112.843 117.975,135.01 113.5,157C 113.643,159.151 114.643,160.818 116.5,162C 120.753,162.2 124.92,162.7 129,163.5C 129.553,181.507 125.386,198.341 116.5,214C 116.903,215.473 117.57,216.806 118.5,218C 120.833,218.333 123.167,218.667 125.5,219C 127.736,219.734 129.069,221.234 129.5,223.5C 124.928,242.901 117.262,260.901 106.5,277.5C 106.876,279.383 107.876,280.883 109.5,282C 114.167,282.333 118.833,282.667 123.5,283C 124.333,283.833 125.167,284.667 126,285.5C 127.017,314.056 122.183,341.556 111.5,368C 111.57,368.765 111.903,369.265 112.5,369.5C 107.208,374.491 101.875,379.491 96.5,384.5C 93.8589,383.737 91.1922,383.57 88.5,384C 82.4085,387.43 76.9085,391.597 72,396.5C 70.9207,399.063 70.4207,401.729 70.5,404.5C 64.491,404.701 58.491,405.034 52.5,405.5C 48.5808,399.33 44.9141,392.997 41.5,386.5C 46.5712,379.428 51.2378,372.095 55.5,364.5C 55.3918,363.558 55.0585,362.725 54.5,362C 48.2877,361.521 42.2877,360.188 36.5,358C 31.9914,354.117 30.4914,349.284 32,343.5C 48.7192,325.623 62.8859,305.956 74.5,284.5C 74.1822,283.353 73.5156,282.519 72.5,282C 66.4114,281.464 60.4114,280.464 54.5,279C 50.0341,275.901 48.5341,271.735 50,266.5C 56.3333,258.833 62.6667,251.167 69,243.5C 74.4666,236.069 79.2999,228.235 83.5,220C 83.3552,219.228 83.0219,218.561 82.5,218C 76.6258,217.689 70.9592,216.522 65.5,214.5C 62.758,212.067 61.9246,209.067 63,205.5C 73.1541,194.349 82.1541,182.349 90,169.5C 91.7068,167.091 92.5402,164.425 92.5,161.5C 86.0162,161.065 79.6828,159.899 73.5,158C 70.7104,155.79 69.877,152.956 71,149.5C 83.7731,134.971 93.7731,118.638 101,100.5C 105.334,89.6644 109.167,78.6644 112.5,67.5C 113.619,61.6401 115.619,56.1401 118.5,51C 123.797,48.5412 128.464,49.3745 132.5,53.5 Z"/></g>
<g><path style="opacity:0.994" fill="#37253f" d="M 112.5,67.5 C 109.167,78.6644 105.334,89.6644 101,100.5C 93.7731,118.638 83.7731,134.971 71,149.5C 69.877,152.956 70.7104,155.79 73.5,158C 79.6828,159.899 86.0162,161.065 92.5,161.5C 92.5402,164.425 91.7068,167.091 90,169.5C 82.1541,182.349 73.1541,194.349 63,205.5C 61.9246,209.067 62.758,212.067 65.5,214.5C 70.9592,216.522 76.6258,217.689 82.5,218C 83.0219,218.561 83.3552,219.228 83.5,220C 79.2999,228.235 74.4666,236.069 69,243.5C 62.6667,251.167 56.3333,258.833 50,266.5C 48.5341,271.735 50.0341,275.901 54.5,279C 60.4114,280.464 66.4114,281.464 72.5,282C 73.5156,282.519 74.1822,283.353 74.5,284.5C 62.8859,305.956 48.7192,325.623 32,343.5C 30.4914,349.284 31.9914,354.117 36.5,358C 42.2877,360.188 48.2877,361.521 54.5,362C 55.0585,362.725 55.3918,363.558 55.5,364.5C 51.2378,372.095 46.5712,379.428 41.5,386.5C 10.5174,330.116 2.35072,270.449 17,207.5C 31.8379,148.898 63.6713,102.231 112.5,67.5 Z"/></g>
<g><path style="opacity:1" fill="#e4e9f9" d="M 332.5,67.5 C 342.535,67.0318 346.702,71.6984 345,81.5C 340.367,87.3292 335.033,87.9959 329,83.5C 325.129,77.0204 326.295,71.6871 332.5,67.5 Z"/></g>
<g><path style="opacity:0.994" fill="#37253f" d="M 398.5,67.5 C 447.329,102.231 479.162,148.898 494,207.5C 508.649,270.449 500.483,330.116 469.5,386.5C 463.884,379.442 458.884,371.942 454.5,364C 454.645,363.228 454.978,362.561 455.5,362C 462.426,361.268 469.093,359.602 475.5,357C 478.698,353.406 479.865,349.239 479,344.5C 471.711,334.876 464.045,325.542 456,316.5C 448.361,306.19 441.527,295.357 435.5,284C 435.645,283.228 435.978,282.561 436.5,282C 443.639,281.284 450.639,279.951 457.5,278C 461.13,274.95 462.297,271.117 461,266.5C 448.059,252.402 436.893,237.069 427.5,220.5C 427.781,218.222 429.115,217.055 431.5,217C 435.951,216.87 440.284,216.204 444.5,215C 447.792,212.588 448.959,209.421 448,205.5C 436.12,192.739 425.954,178.739 417.5,163.5C 417.977,162.522 418.643,161.689 419.5,161C 424.852,160.479 430.185,159.813 435.5,159C 438.477,157.855 440.144,155.688 440.5,152.5C 432.269,141.72 424.769,130.387 418,118.5C 411.656,105.483 406.156,92.1501 401.5,78.5C 400.703,74.7768 399.703,71.1101 398.5,67.5 Z"/></g>
<g><path style="opacity:1" fill="#6ec07c" d="M 139.5,78.5 C 148.295,105.777 161.962,130.11 180.5,151.5C 178.819,154.203 177.153,156.869 175.5,159.5C 170.126,159.523 164.793,160.023 159.5,161C 158.643,161.689 157.977,162.522 157.5,163.5C 160.833,169.476 164.499,175.143 168.5,180.5C 167.428,188.409 168.428,196.075 171.5,203.5C 167.077,204.253 163.744,206.587 161.5,210.5C 159.75,213.133 158.75,216.133 158.5,219.5C 158.901,227.558 161.901,234.392 167.5,240C 169.909,241.707 172.575,242.54 175.5,242.5C 171.774,254.179 167.94,265.846 164,277.5C 161.695,289.502 163.862,300.502 170.5,310.5C 169.183,314.435 168.183,318.435 167.5,322.5C 148.872,337.792 130.539,353.459 112.5,369.5C 111.903,369.265 111.57,368.765 111.5,368C 122.183,341.556 127.017,314.056 126,285.5C 125.167,284.667 124.333,283.833 123.5,283C 118.833,282.667 114.167,282.333 109.5,282C 107.876,280.883 106.876,279.383 106.5,277.5C 117.262,260.901 124.928,242.901 129.5,223.5C 129.069,221.234 127.736,219.734 125.5,219C 123.167,218.667 120.833,218.333 118.5,218C 117.57,216.806 116.903,215.473 116.5,214C 125.386,198.341 129.553,181.507 129,163.5C 124.92,162.7 120.753,162.2 116.5,162C 114.643,160.818 113.643,159.151 113.5,157C 117.975,135.01 121.141,112.843 123,90.5C 126.415,83.7025 131.915,79.7025 139.5,78.5 Z"/></g>
<g><path style="opacity:1" fill="#8ac752" d="M 401.5,78.5 C 406.156,92.1501 411.656,105.483 418,118.5C 424.769,130.387 432.269,141.72 440.5,152.5C 440.144,155.688 438.477,157.855 435.5,159C 430.185,159.813 424.852,160.479 419.5,161C 418.643,161.689 417.977,162.522 417.5,163.5C 425.954,178.739 436.12,192.739 448,205.5C 448.959,209.421 447.792,212.588 444.5,215C 440.284,216.204 435.951,216.87 431.5,217C 429.115,217.055 427.781,218.222 427.5,220.5C 436.893,237.069 448.059,252.402 461,266.5C 462.297,271.117 461.13,274.95 457.5,278C 450.639,279.951 443.639,281.284 436.5,282C 435.978,282.561 435.645,283.228 435.5,284C 441.527,295.357 448.361,306.19 456,316.5C 464.045,325.542 471.711,334.876 479,344.5C 479.865,349.239 478.698,353.406 475.5,357C 469.093,359.602 462.426,361.268 455.5,362C 454.978,362.561 454.645,363.228 454.5,364C 458.884,371.942 463.884,379.442 469.5,386.5C 466.098,392.969 462.431,399.303 458.5,405.5C 451.978,405.823 445.645,405.49 439.5,404.5C 439.664,401.813 439.497,399.146 439,396.5C 434.622,392.065 429.788,388.232 424.5,385C 421.076,384.253 417.743,384.42 414.5,385.5C 403.167,374.5 391.833,363.5 380.5,352.5C 385.882,337.841 389.215,322.841 390.5,307.5C 395.767,315.571 402.267,316.571 410,310.5C 414.893,297.449 410.393,291.283 396.5,292C 394.34,292.996 392.673,294.496 391.5,296.5C 390.679,293.359 390.179,290.025 390,286.5C 389.535,285.069 388.701,283.903 387.5,283C 382.833,282.667 378.167,282.333 373.5,282C 371.484,280.972 370.484,279.305 370.5,277C 379.949,261.928 387.115,245.761 392,228.5C 394.125,220.445 390.958,216.945 382.5,218C 381.106,217.044 380.439,215.711 380.5,214C 388.598,198.517 392.764,182.017 393,164.5C 392.5,164 392,163.5 391.5,163C 387.833,162.667 384.167,162.333 380.5,162C 378.167,160.667 377.167,158.667 377.5,156C 381.642,135.008 384.475,113.841 386,92.5C 388.813,85.1851 393.98,80.5184 401.5,78.5 Z"/></g>
<g><path style="opacity:1" fill="#fd4256" d="M 275.5,93.5 C 275.263,99.2917 277.43,103.958 282,107.5C 283.308,110.73 284.308,114.064 285,117.5C 286.668,121.165 289.501,123.332 293.5,124C 298.489,124.499 303.489,124.666 308.5,124.5C 312.282,130.401 315.282,136.734 317.5,143.5C 295.449,132.822 272.115,128.156 247.5,129.5C 246.552,125.11 247.052,120.777 249,116.5C 250.076,110.312 248.076,105.312 243,101.5C 241.663,96.8721 242.83,93.2054 246.5,90.5C 256.348,89.5249 266.014,90.5249 275.5,93.5 Z"/></g>
<g><path style="opacity:1" fill="#e70354" d="M 246.5,90.5 C 242.83,93.2054 241.663,96.8721 243,101.5C 248.076,105.312 250.076,110.312 249,116.5C 247.052,120.777 246.552,125.11 247.5,129.5C 247.167,129.5 246.833,129.5 246.5,129.5C 228.559,129.687 211.559,133.687 195.5,141.5C 193.938,141.733 192.605,142.4 191.5,143.5C 197.038,127.923 205.038,113.756 215.5,101C 224.986,95.2064 235.319,91.7064 246.5,90.5 Z"/></g>
<g><path style="opacity:1" fill="#fc6f84" d="M 275.5,93.5 C 278.899,94.0164 282.232,94.8497 285.5,96C 296.356,102.853 304.023,112.353 308.5,124.5C 303.489,124.666 298.489,124.499 293.5,124C 289.501,123.332 286.668,121.165 285,117.5C 284.308,114.064 283.308,110.73 282,107.5C 277.43,103.958 275.263,99.2917 275.5,93.5 Z"/></g>
<g><path style="opacity:1" fill="#e8eefe" d="M 246.5,129.5 C 246.833,129.5 247.167,129.5 247.5,129.5C 272.115,128.156 295.449,132.822 317.5,143.5C 322.764,146.099 327.097,149.766 330.5,154.5C 330.833,155.167 331.167,155.833 331.5,156.5C 332.827,159.471 334.16,162.471 335.5,165.5C 339.606,174.701 341.272,184.368 340.5,194.5C 338.928,197.215 337.928,200.215 337.5,203.5C 336.167,205.167 334.833,206.833 333.5,208.5C 333.498,194.661 327.831,183.828 316.5,176C 309.868,172.345 302.868,169.679 295.5,168C 279.943,165.159 264.276,163.159 248.5,162C 238.121,160.63 233.288,154.797 234,144.5C 236.302,137.866 240.469,132.866 246.5,129.5 Z"/></g>
<g><path style="opacity:1" fill="#d3dbfa" d="M 246.5,129.5 C 240.469,132.866 236.302,137.866 234,144.5C 233.288,154.797 238.121,160.63 248.5,162C 264.276,163.159 279.943,165.159 295.5,168C 302.868,169.679 309.868,172.345 316.5,176C 327.831,183.828 333.498,194.661 333.5,208.5C 333.167,209.167 332.833,209.833 332.5,210.5C 330.5,213.167 328.167,215.5 325.5,217.5C 327.457,202.915 322.124,192.082 309.5,185C 304.071,182.136 298.405,179.969 292.5,178.5C 271.276,173.137 249.943,172.137 228.5,175.5C 219.388,176.76 210.721,179.427 202.5,183.5C 198.917,177.401 195.083,171.401 191,165.5C 189.349,156.815 190.849,148.815 195.5,141.5C 211.559,133.687 228.559,129.687 246.5,129.5 Z"/></g>
<g><path style="opacity:1" fill="#bec7f5" d="M 195.5,141.5 C 190.849,148.815 189.349,156.815 191,165.5C 195.083,171.401 198.917,177.401 202.5,183.5C 196.551,186.403 191.384,190.403 187,195.5C 185.234,202.889 183.734,210.223 182.5,217.5C 178.04,213.383 174.373,208.716 171.5,203.5C 168.428,196.075 167.428,188.409 168.5,180.5C 170.547,173.406 172.88,166.406 175.5,159.5C 177.153,156.869 178.819,154.203 180.5,151.5C 183.607,148.06 187.273,145.393 191.5,143.5C 192.605,142.4 193.938,141.733 195.5,141.5 Z"/></g>
<g><path style="opacity:1" fill="#e3e8f8" d="M 54.5,155.5 C 64.5354,155.032 68.7021,159.698 67,169.5C 64.0579,174.153 59.8912,175.653 54.5,174C 49.5736,171.647 47.7402,167.814 49,162.5C 49.9668,159.379 51.8001,157.046 54.5,155.5 Z"/></g>
<g><path style="opacity:1" fill="#3b2841" d="M 331.5,156.5 C 332.683,157.504 334.016,158.338 335.5,159C 341.139,160.08 346.805,160.913 352.5,161.5C 351.636,165.682 350.303,169.682 348.5,173.5C 344.167,170.833 339.833,168.167 335.5,165.5C 334.16,162.471 332.827,159.471 331.5,156.5 Z"/></g>
<g><path style="opacity:1" fill="#382941" d="M 175.5,159.5 C 172.88,166.406 170.547,173.406 168.5,180.5C 164.499,175.143 160.833,169.476 157.5,163.5C 157.977,162.522 158.643,161.689 159.5,161C 164.793,160.023 170.126,159.523 175.5,159.5 Z"/></g>
<g><path style="opacity:1" fill="#e60f57" d="M 335.5,165.5 C 339.833,168.167 344.167,170.833 348.5,173.5C 350.297,174.73 352.297,175.396 354.5,175.5C 351.319,181.472 350.653,187.805 352.5,194.5C 349.167,194.5 345.833,194.5 342.5,194.5C 341.833,194.5 341.167,194.5 340.5,194.5C 341.272,184.368 339.606,174.701 335.5,165.5 Z"/></g>
<g><path style="opacity:1" fill="#d1daf7" d="M 375.5,168.5 C 365.82,172.096 364.154,177.93 370.5,186C 379.806,188.872 384.473,185.372 384.5,175.5C 386.136,176.749 387.303,178.416 388,180.5C 390.003,198.162 382.17,206.329 364.5,205C 359.645,203.48 355.978,200.48 353.5,196C 349.644,195.823 345.977,195.323 342.5,194.5C 345.833,194.5 349.167,194.5 352.5,194.5C 350.653,187.805 351.319,181.472 354.5,175.5C 360.114,168.962 367.114,166.629 375.5,168.5 Z"/></g>
<g><path style="opacity:1" fill="#e7eefe" d="M 375.5,168.5 C 378.057,169.188 380.391,170.354 382.5,172C 383.823,172.816 384.489,173.983 384.5,175.5C 384.473,185.372 379.806,188.872 370.5,186C 364.154,177.93 365.82,172.096 375.5,168.5 Z"/></g>
<g><path style="opacity:1" fill="#feceae" d="M 292.5,178.5 C 290.325,181.231 289.992,184.231 291.5,187.5C 288.358,188.167 285.358,188.834 282.5,189.5C 272.521,190.924 270.188,195.757 275.5,204C 284.319,206.639 293.319,208.139 302.5,208.5C 302.785,211.829 302.118,214.829 300.5,217.5C 291.04,207.845 281.873,208.179 273,218.5C 269.95,224.154 271.45,226.987 277.5,227C 283.886,217.011 290.219,217.011 296.5,227C 298.265,227.64 299.932,227.473 301.5,226.5C 300.045,242.156 305.045,255.156 316.5,265.5C 313.626,268.927 309.959,270.094 305.5,269C 302.554,268.194 299.888,266.861 297.5,265C 294.899,261.888 291.899,259.388 288.5,257.5C 287.942,256.21 286.942,255.377 285.5,255C 281.914,253.892 278.247,253.392 274.5,253.5C 275.104,247.731 273.938,242.398 271,237.5C 269.091,245.045 264.257,247.879 256.5,246C 250.209,240.368 249.876,234.368 255.5,228C 257.392,227.027 259.392,226.36 261.5,226C 255.438,223.572 249.772,224.239 244.5,228C 242.212,230.743 240.045,233.577 238,236.5C 234.128,234.758 232.295,231.758 232.5,227.5C 237.66,226.32 238.827,223.32 236,218.5C 233.963,216.294 231.797,214.294 229.5,212.5C 229.448,210.097 229.781,207.764 230.5,205.5C 235.487,203.526 237.321,199.859 236,194.5C 233.83,192.177 231.33,190.51 228.5,189.5C 229.376,189.631 230.043,189.298 230.5,188.5C 229.167,184.5 229.167,180.5 230.5,176.5C 230.043,175.702 229.376,175.369 228.5,175.5C 249.943,172.137 271.276,173.137 292.5,178.5 Z"/></g>
<g><path style="opacity:1" fill="#f8ba8f" d="M 228.5,175.5 C 229.376,175.369 230.043,175.702 230.5,176.5C 229.167,180.5 229.167,184.5 230.5,188.5C 230.043,189.298 229.376,189.631 228.5,189.5C 214.388,188.558 204.055,194.391 197.5,207C 197.667,208.5 198.5,209.333 200,209.5C 210.142,207.984 220.309,206.651 230.5,205.5C 229.781,207.764 229.448,210.097 229.5,212.5C 218.052,208.149 210.052,211.649 205.5,223C 207.285,227.653 210.119,228.487 214,225.5C 215.732,220.383 219.232,218.55 224.5,220C 227.285,222.436 229.952,224.936 232.5,227.5C 232.295,231.758 234.128,234.758 238,236.5C 240.045,233.577 242.212,230.743 244.5,228C 249.772,224.239 255.438,223.572 261.5,226C 259.392,226.36 257.392,227.027 255.5,228C 249.876,234.368 250.209,240.368 256.5,246C 264.257,247.879 269.091,245.045 271,237.5C 273.938,242.398 275.104,247.731 274.5,253.5C 274.682,258.489 272.349,261.655 267.5,263C 259.362,264.516 251.362,264.682 243.5,263.5C 245.527,263.662 247.527,263.495 249.5,263C 241.279,257.395 237.113,249.562 237,239.5C 234.741,244.561 233.908,249.895 234.5,255.5C 229.369,252.762 224.369,253.262 219.5,257C 215.502,260.988 211.169,264.488 206.5,267.5C 200.647,264.16 195.48,259.827 191,254.5C 187.469,248.38 184.636,242.047 182.5,235.5C 182.5,230.833 182.5,226.167 182.5,221.5C 182.5,220.167 182.5,218.833 182.5,217.5C 183.734,210.223 185.234,202.889 187,195.5C 191.384,190.403 196.551,186.403 202.5,183.5C 210.721,179.427 219.388,176.76 228.5,175.5 Z"/></g>
<g><path style="opacity:1" fill="#fbdac5" d="M 292.5,178.5 C 298.405,179.969 304.071,182.136 309.5,185C 322.124,192.082 327.457,202.915 325.5,217.5C 326.167,219.167 326.833,220.833 327.5,222.5C 327.368,236.56 325.701,250.56 322.5,264.5C 320.249,263.135 318.249,263.469 316.5,265.5C 305.045,255.156 300.045,242.156 301.5,226.5C 304.04,223.366 303.707,220.366 300.5,217.5C 302.118,214.829 302.785,211.829 302.5,208.5C 305.141,209.263 307.808,209.43 310.5,209C 311.672,207.132 311.505,205.298 310,203.5C 305.756,198.585 300.923,194.419 295.5,191C 291.249,189.805 286.915,189.305 282.5,189.5C 285.358,188.834 288.358,188.167 291.5,187.5C 289.992,184.231 290.325,181.231 292.5,178.5 Z"/></g>
<g><path style="opacity:1" fill="#e5edfb" d="M 106.5,187.5 C 113.993,186.829 116.326,189.995 113.5,197C 106.752,199.909 103.586,197.743 104,190.5C 104.698,189.309 105.531,188.309 106.5,187.5 Z"/></g>
<g><path style="opacity:1" fill="#d4dbf8" d="M 228.5,189.5 C 231.33,190.51 233.83,192.177 236,194.5C 237.321,199.859 235.487,203.526 230.5,205.5C 220.309,206.651 210.142,207.984 200,209.5C 198.5,209.333 197.667,208.5 197.5,207C 204.055,194.391 214.388,188.558 228.5,189.5 Z"/></g>
<g><path style="opacity:1" fill="#e9eefd" d="M 282.5,189.5 C 286.915,189.305 291.249,189.805 295.5,191C 300.923,194.419 305.756,198.585 310,203.5C 311.505,205.298 311.672,207.132 310.5,209C 307.808,209.43 305.141,209.263 302.5,208.5C 293.319,208.139 284.319,206.639 275.5,204C 270.188,195.757 272.521,190.924 282.5,189.5 Z"/></g>
<g><path style="opacity:1" fill="#6ec07d" d="M 398.5,67.5 C 399.703,71.1101 400.703,74.7768 401.5,78.5C 393.98,80.5184 388.813,85.1851 386,92.5C 384.475,113.841 381.642,135.008 377.5,156C 377.167,158.667 378.167,160.667 380.5,162C 384.167,162.333 387.833,162.667 391.5,163C 392,163.5 392.5,164 393,164.5C 392.764,182.017 388.598,198.517 380.5,214C 380.439,215.711 381.106,217.044 382.5,218C 390.958,216.945 394.125,220.445 392,228.5C 387.115,245.761 379.949,261.928 370.5,277C 370.484,279.305 371.484,280.972 373.5,282C 378.167,282.333 382.833,282.667 387.5,283C 388.701,283.903 389.535,285.069 390,286.5C 390.179,290.025 390.679,293.359 391.5,296.5C 389.279,299.943 388.946,303.61 390.5,307.5C 389.215,322.841 385.882,337.841 380.5,352.5C 367.852,342.19 355.186,331.857 342.5,321.5C 340.562,317.766 339.228,313.766 338.5,309.5C 344.758,300.459 346.925,290.459 345,279.5C 341.168,267.169 337.335,254.836 333.5,242.5C 342.044,241.125 347.21,236.125 349,227.5C 352.862,215.561 349.028,207.561 337.5,203.5C 337.928,200.215 338.928,197.215 340.5,194.5C 341.167,194.5 341.833,194.5 342.5,194.5C 345.977,195.323 349.644,195.823 353.5,196C 355.978,200.48 359.645,203.48 364.5,205C 382.17,206.329 390.003,198.162 388,180.5C 387.303,178.416 386.136,176.749 384.5,175.5C 384.489,173.983 383.823,172.816 382.5,172C 380.391,170.354 378.057,169.188 375.5,168.5C 367.114,166.629 360.114,168.962 354.5,175.5C 352.297,175.396 350.297,174.73 348.5,173.5C 350.303,169.682 351.636,165.682 352.5,161.5C 346.805,160.913 341.139,160.08 335.5,159C 334.016,158.338 332.683,157.504 331.5,156.5C 331.167,155.833 330.833,155.167 330.5,154.5C 330.34,152.801 330.506,151.134 331,149.5C 355.047,121.737 370.881,89.7374 378.5,53.5C 382.41,49.2547 387.077,48.4214 392.5,51C 395.381,56.1401 397.381,61.6401 398.5,67.5 Z"/></g>
<g><path style="opacity:1" fill="#f9d5ba" d="M 337.5,203.5 C 349.028,207.561 352.862,215.561 349,227.5C 347.21,236.125 342.044,241.125 333.5,242.5C 332.542,240.698 331.875,238.698 331.5,236.5C 334.263,236.256 336.429,234.923 338,232.5C 340.726,226.587 341.06,220.587 339,214.5C 337.362,212.266 335.195,210.933 332.5,210.5C 332.833,209.833 333.167,209.167 333.5,208.5C 334.833,206.833 336.167,205.167 337.5,203.5 Z"/></g>
<g><path style="opacity:1" fill="#fc9d5f" d="M 171.5,203.5 C 174.373,208.716 178.04,213.383 182.5,217.5C 182.5,218.833 182.5,220.167 182.5,221.5C 179.773,226.043 178.107,231.043 177.5,236.5C 174.737,236.256 172.571,234.923 171,232.5C 169.046,227.017 168.046,221.351 168,215.5C 166.437,212.977 164.27,211.31 161.5,210.5C 163.744,206.587 167.077,204.253 171.5,203.5 Z"/></g>
<g><path style="opacity:1" fill="#fbad6e" d="M 332.5,210.5 C 335.195,210.933 337.362,212.266 339,214.5C 341.06,220.587 340.726,226.587 338,232.5C 336.429,234.923 334.263,236.256 331.5,236.5C 330.498,231.839 329.165,227.172 327.5,222.5C 326.833,220.833 326.167,219.167 325.5,217.5C 328.167,215.5 330.5,213.167 332.5,210.5 Z"/></g>
<g><path style="opacity:1" fill="#705776" d="M 229.5,212.5 C 231.797,214.294 233.963,216.294 236,218.5C 238.827,223.32 237.66,226.32 232.5,227.5C 229.952,224.936 227.285,222.436 224.5,220C 219.232,218.55 215.732,220.383 214,225.5C 210.119,228.487 207.285,227.653 205.5,223C 210.052,211.649 218.052,208.149 229.5,212.5 Z"/></g>
<g><path style="opacity:1" fill="#705776" d="M 300.5,217.5 C 303.707,220.366 304.04,223.366 301.5,226.5C 299.932,227.473 298.265,227.64 296.5,227C 290.219,217.011 283.886,217.011 277.5,227C 271.45,226.987 269.95,224.154 273,218.5C 281.873,208.179 291.04,207.845 300.5,217.5 Z"/></g>
<g><path style="opacity:1" fill="#f6b98c" d="M 161.5,210.5 C 164.27,211.31 166.437,212.977 168,215.5C 168.046,221.351 169.046,227.017 171,232.5C 172.571,234.923 174.737,236.256 177.5,236.5C 177.029,238.579 176.363,240.579 175.5,242.5C 172.575,242.54 169.909,241.707 167.5,240C 161.901,234.392 158.901,227.558 158.5,219.5C 158.75,216.133 159.75,213.133 161.5,210.5 Z"/></g>
<g><path style="opacity:1" fill="#bec7f6" d="M 182.5,221.5 C 182.5,226.167 182.5,230.833 182.5,235.5C 182.424,245.374 183.757,255.04 186.5,264.5C 183.29,283.247 190.957,294.747 209.5,299C 214.823,299.499 220.156,299.666 225.5,299.5C 230.702,304.703 236.702,308.703 243.5,311.5C 234.268,316.66 232.102,323.993 237,333.5C 243.408,339.238 249.075,345.571 254,352.5C 254.212,360.212 252.545,367.545 249,374.5C 247.354,381.523 248.854,387.689 253.5,393C 257.898,395.857 262.232,398.691 266.5,401.5C 263.878,403.644 260.878,404.977 257.5,405.5C 254.482,405.665 251.482,405.498 248.5,405C 242.921,401.044 236.921,397.877 230.5,395.5C 216.18,397.019 206.847,391.019 202.5,377.5C 200.27,376.217 197.937,375.217 195.5,374.5C 185.33,367.298 181.163,357.298 183,344.5C 172.936,340.605 167.769,333.271 167.5,322.5C 168.183,318.435 169.183,314.435 170.5,310.5C 163.862,300.502 161.695,289.502 164,277.5C 167.94,265.846 171.774,254.179 175.5,242.5C 176.363,240.579 177.029,238.579 177.5,236.5C 178.107,231.043 179.773,226.043 182.5,221.5 Z"/></g>
<g><path style="opacity:1" fill="#d3dbfa" d="M 327.5,222.5 C 329.165,227.172 330.498,231.839 331.5,236.5C 331.875,238.698 332.542,240.698 333.5,242.5C 337.335,254.836 341.168,267.169 345,279.5C 346.925,290.459 344.758,300.459 338.5,309.5C 336.77,317.425 332.104,323.259 324.5,327C 300.743,330.518 293.743,343.018 303.5,364.5C 300.76,369.261 298.427,374.261 296.5,379.5C 296.684,383.223 298.351,385.89 301.5,387.5C 298.137,391.52 293.804,394.02 288.5,395C 284.848,395.499 281.182,395.665 277.5,395.5C 277.5,406.5 277.5,417.5 277.5,428.5C 277.167,428.5 276.833,428.5 276.5,428.5C 276.832,417.813 276.499,407.146 275.5,396.5C 272.312,397.925 269.312,399.592 266.5,401.5C 262.232,398.691 257.898,395.857 253.5,393C 248.854,387.689 247.354,381.523 249,374.5C 252.545,367.545 254.212,360.212 254,352.5C 249.075,345.571 243.408,339.238 237,333.5C 232.102,323.993 234.268,316.66 243.5,311.5C 243.833,311.5 244.167,311.5 244.5,311.5C 259.489,315.395 272.155,311.395 282.5,299.5C 293.552,300.653 303.885,298.486 313.5,293C 321.491,285.16 324.491,275.66 322.5,264.5C 325.701,250.56 327.368,236.56 327.5,222.5 Z"/></g>
<g><path style="opacity:1" fill="#fbad6f" d="M 182.5,235.5 C 184.636,242.047 187.469,248.38 191,254.5C 195.48,259.827 200.647,264.16 206.5,267.5C 199.447,270.015 193.614,268.348 189,262.5C 188.292,263.381 187.458,264.047 186.5,264.5C 183.757,255.04 182.424,245.374 182.5,235.5 Z"/></g>
<g><path style="opacity:1" fill="#fbad6f" d="M 243.5,263.5 C 238.584,262.914 235.584,260.247 234.5,255.5C 233.908,249.895 234.741,244.561 237,239.5C 237.113,249.562 241.279,257.395 249.5,263C 247.527,263.495 245.527,263.662 243.5,263.5 Z"/></g>
<g><path style="opacity:1" fill="#e5edfb" d="M 367.5,242.5 C 375.346,242.694 377.346,246.194 373.5,253C 368.308,254.872 365.308,253.205 364.5,248C 364.863,245.808 365.863,243.974 367.5,242.5 Z"/></g>
<g><path style="opacity:1" fill="#d3dbfa" d="M 234.5,255.5 C 235.584,260.247 238.584,262.914 243.5,263.5C 251.362,264.682 259.362,264.516 267.5,263C 272.349,261.655 274.682,258.489 274.5,253.5C 278.247,253.392 281.914,253.892 285.5,255C 286.942,255.377 287.942,256.21 288.5,257.5C 280.153,264.61 279.319,272.61 286,281.5C 286.441,288.282 283.941,293.616 278.5,297.5C 276.435,297.483 274.435,297.15 272.5,296.5C 265.549,292.883 260.216,287.549 256.5,280.5C 255.167,279.167 253.833,279.167 252.5,280.5C 251.82,281.86 251.153,283.193 250.5,284.5C 246.742,289.594 242.075,293.594 236.5,296.5C 232.677,297.336 229.011,298.336 225.5,299.5C 220.156,299.666 214.823,299.499 209.5,299C 190.957,294.747 183.29,283.247 186.5,264.5C 187.458,264.047 188.292,263.381 189,262.5C 193.614,268.348 199.447,270.015 206.5,267.5C 211.169,264.488 215.502,260.988 219.5,257C 224.369,253.262 229.369,252.762 234.5,255.5 Z"/></g>
<g><path style="opacity:1" fill="#e8eefe" d="M 288.5,257.5 C 291.899,259.388 294.899,261.888 297.5,265C 299.888,266.861 302.554,268.194 305.5,269C 309.959,270.094 313.626,268.927 316.5,265.5C 318.249,263.469 320.249,263.135 322.5,264.5C 324.491,275.66 321.491,285.16 313.5,293C 303.885,298.486 293.552,300.653 282.5,299.5C 281.167,298.833 279.833,298.167 278.5,297.5C 283.941,293.616 286.441,288.282 286,281.5C 279.319,272.61 280.153,264.61 288.5,257.5 Z"/></g>
<g><path style="opacity:1" fill="#fe4558" d="M 272.5,296.5 C 268.22,298.64 263.886,300.807 259.5,303C 257.866,303.494 256.199,303.66 254.5,303.5C 256.347,300.406 256.847,297.072 256,293.5C 254.338,290.351 252.505,287.351 250.5,284.5C 251.153,283.193 251.82,281.86 252.5,280.5C 253.833,279.167 255.167,279.167 256.5,280.5C 260.216,287.549 265.549,292.883 272.5,296.5 Z"/></g>
<g><path style="opacity:1" fill="#fe7285" d="M 250.5,284.5 C 252.505,287.351 254.338,290.351 256,293.5C 256.847,297.072 256.347,300.406 254.5,303.5C 253.5,303.5 252.5,303.5 251.5,303.5C 246.349,301.424 241.349,299.09 236.5,296.5C 242.075,293.594 246.742,289.594 250.5,284.5 Z"/></g>
<g><path style="opacity:1" fill="#e6edfc" d="M 104.5,291.5 C 116.341,290.506 121.507,295.839 120,307.5C 113.365,316.355 106.365,316.688 99,308.5C 96.2691,301.307 98.1025,295.64 104.5,291.5 Z"/></g>
<g><path style="opacity:1" fill="#e7eefb" d="M 390.5,307.5 C 388.946,303.61 389.279,299.943 391.5,296.5C 392.673,294.496 394.34,292.996 396.5,292C 410.393,291.283 414.893,297.449 410,310.5C 402.267,316.571 395.767,315.571 390.5,307.5 Z"/></g>
<g><path style="opacity:1" fill="#fbad70" d="M 236.5,296.5 C 241.349,299.09 246.349,301.424 251.5,303.5C 247.761,304.907 245.428,307.574 244.5,311.5C 244.167,311.5 243.833,311.5 243.5,311.5C 236.702,308.703 230.702,304.703 225.5,299.5C 229.011,298.336 232.677,297.336 236.5,296.5 Z"/></g>
<g><path style="opacity:1" fill="#feceae" d="M 272.5,296.5 C 274.435,297.15 276.435,297.483 278.5,297.5C 279.833,298.167 281.167,298.833 282.5,299.5C 272.155,311.395 259.489,315.395 244.5,311.5C 245.428,307.574 247.761,304.907 251.5,303.5C 252.5,303.5 253.5,303.5 254.5,303.5C 256.199,303.66 257.866,303.494 259.5,303C 263.886,300.807 268.22,298.64 272.5,296.5 Z"/></g>
<g><path style="opacity:1" fill="#e8edfd" d="M 338.5,309.5 C 339.228,313.766 340.562,317.766 342.5,321.5C 341.947,326.331 340.447,330.998 338,335.5C 334.537,339.23 330.537,342.23 326,344.5C 328.219,361.086 321.552,372.086 306,377.5C 305.156,381.229 303.656,384.563 301.5,387.5C 298.351,385.89 296.684,383.223 296.5,379.5C 298.427,374.261 300.76,369.261 303.5,364.5C 293.743,343.018 300.743,330.518 324.5,327C 332.104,323.259 336.77,317.425 338.5,309.5 Z"/></g>
<g><path style="opacity:1" fill="#fe4155" d="M 342.5,321.5 C 355.186,331.857 367.852,342.19 380.5,352.5C 391.833,363.5 403.167,374.5 414.5,385.5C 408.388,390.947 403.388,397.28 399.5,404.5C 394.451,410.214 389.785,416.214 385.5,422.5C 380.521,416.854 375.188,411.521 369.5,406.5C 368.504,411.462 367.837,416.462 367.5,421.5C 356.819,424.17 346.153,426.837 335.5,429.5C 318.644,432.698 301.644,434.698 284.5,435.5C 282.473,432.806 280.139,430.473 277.5,428.5C 277.5,417.5 277.5,406.5 277.5,395.5C 281.182,395.665 284.848,395.499 288.5,395C 293.804,394.02 298.137,391.52 301.5,387.5C 303.656,384.563 305.156,381.229 306,377.5C 321.552,372.086 328.219,361.086 326,344.5C 330.537,342.23 334.537,339.23 338,335.5C 340.447,330.998 341.947,326.331 342.5,321.5 Z"/></g>
<g><path style="opacity:1" fill="#e70354" d="M 167.5,322.5 C 167.769,333.271 172.936,340.605 183,344.5C 181.163,357.298 185.33,367.298 195.5,374.5C 185.13,384.606 180.964,396.94 183,411.5C 184.335,418.335 186.169,425.001 188.5,431.5C 189.791,431.263 190.791,431.596 191.5,432.5C 190.167,432.5 188.833,432.5 187.5,432.5C 172.148,429.359 156.815,425.692 141.5,421.5C 141.202,417.377 140.369,413.377 139,409.5C 134.631,414.037 130.131,418.37 125.5,422.5C 121.409,416.653 117.076,410.987 112.5,405.5C 107.871,397.883 102.538,390.883 96.5,384.5C 101.875,379.491 107.208,374.491 112.5,369.5C 130.539,353.459 148.872,337.792 167.5,322.5 Z"/></g>
<g><path style="opacity:1" fill="#e6edfc" d="M 64.5,338.5 C 75.0032,338.168 79.8365,343.168 79,353.5C 76.1659,360.666 70.9992,363.166 63.5,361C 56.2075,356.324 54.7075,350.158 59,342.5C 61.0153,341.303 62.8487,339.97 64.5,338.5 Z"/></g>
<g><path style="opacity:1" fill="#fe4155" d="M 195.5,374.5 C 197.937,375.217 200.27,376.217 202.5,377.5C 206.847,391.019 216.18,397.019 230.5,395.5C 231.477,406.419 231.81,417.419 231.5,428.5C 228.512,430.49 225.845,432.823 223.5,435.5C 212.727,435.146 202.061,434.146 191.5,432.5C 190.791,431.596 189.791,431.263 188.5,431.5C 186.169,425.001 184.335,418.335 183,411.5C 180.964,396.94 185.13,384.606 195.5,374.5 Z"/></g>
<g><path style="opacity:1" fill="#e9eafa" d="M 337.5,378.5 C 347.008,377.84 351.175,382.173 350,391.5C 347.081,397.025 342.581,398.858 336.5,397C 329.539,390.313 329.872,384.147 337.5,378.5 Z"/></g>
<g><path style="opacity:1" fill="#d2daf9" d="M 96.5,384.5 C 102.538,390.883 107.871,397.883 112.5,405.5C 100.997,404.992 93.6639,410.325 90.5,421.5C 90.1667,421.5 89.8333,421.5 89.5,421.5C 86.5567,416.464 83.2233,411.63 79.5,407C 76.7935,405.092 73.7935,404.259 70.5,404.5C 70.4207,401.729 70.9207,399.063 72,396.5C 76.9085,391.597 82.4085,387.43 88.5,384C 91.1922,383.57 93.8589,383.737 96.5,384.5 Z"/></g>
<g><path style="opacity:1" fill="#e8edfd" d="M 439.5,404.5 C 436.412,404.377 433.745,405.377 431.5,407.5C 428.476,411.518 425.476,415.518 422.5,419.5C 422.167,419.5 421.833,419.5 421.5,419.5C 410.942,419.282 403.609,414.282 399.5,404.5C 403.388,397.28 408.388,390.947 414.5,385.5C 417.743,384.42 421.076,384.253 424.5,385C 429.788,388.232 434.622,392.065 439,396.5C 439.497,399.146 439.664,401.813 439.5,404.5 Z"/></g>
<g><path style="opacity:1" fill="#d3daf9" d="M 230.5,395.5 C 236.921,397.877 242.921,401.044 248.5,405C 251.482,405.498 254.482,405.665 257.5,405.5C 256.791,406.404 255.791,406.737 254.5,406.5C 254.5,413.167 254.5,419.833 254.5,426.5C 246.656,425.981 238.989,426.647 231.5,428.5C 231.81,417.419 231.477,406.419 230.5,395.5 Z"/></g>
<g><path style="opacity:1" fill="#e8eefe" d="M 276.5,428.5 C 269.331,426.704 261.997,426.037 254.5,426.5C 254.5,419.833 254.5,413.167 254.5,406.5C 255.791,406.737 256.791,406.404 257.5,405.5C 260.878,404.977 263.878,403.644 266.5,401.5C 269.312,399.592 272.312,397.925 275.5,396.5C 276.499,407.146 276.832,417.813 276.5,428.5 Z"/></g>
<g><path style="opacity:1" fill="#fe4356" d="M 70.5,404.5 C 73.7935,404.259 76.7935,405.092 79.5,407C 83.2233,411.63 86.5567,416.464 89.5,421.5C 81.2805,420.36 75.1139,423.36 71,430.5C 69.2582,437.492 65.4249,442.992 59.5,447C 54.8333,449.667 50.1667,452.333 45.5,455C 42.8002,456.857 41.1335,459.357 40.5,462.5C 30.606,456.077 28.4393,447.743 34,437.5C 38.2436,432.585 43.0769,428.419 48.5,425C 39.2073,424.057 36.0406,419.224 39,410.5C 43.1583,407.947 47.6583,406.28 52.5,405.5C 58.491,405.034 64.491,404.701 70.5,404.5 Z"/></g>
<g><path style="opacity:1" fill="#d3dbf9" d="M 399.5,404.5 C 403.609,414.282 410.942,419.282 421.5,419.5C 418.22,424.62 414.72,429.62 411,434.5C 410.366,437.555 410.532,440.555 411.5,443.5C 408.221,444.492 404.888,444.659 401.5,444C 395.223,440.778 390.057,436.278 386,430.5C 385.503,427.854 385.336,425.187 385.5,422.5C 389.785,416.214 394.451,410.214 399.5,404.5 Z"/></g>
<g><path style="opacity:0.987" fill="#f8a0b0" d="M 439.5,404.5 C 445.645,405.49 451.978,405.823 458.5,405.5C 461.815,406.329 465.148,407.162 468.5,408C 474.825,412.474 475.158,417.474 469.5,423C 467.608,423.973 465.608,424.64 463.5,425C 470.769,429.602 476.269,435.768 480,443.5C 481.241,450.287 479.075,455.62 473.5,459.5C 469.601,458.352 466.101,456.352 463,453.5C 461.138,449.581 459.471,445.581 458,441.5C 457.167,440.667 456.333,439.833 455.5,439C 447.729,438.558 440.395,436.558 433.5,433C 429.216,428.888 425.549,424.388 422.5,419.5C 425.476,415.518 428.476,411.518 431.5,407.5C 433.745,405.377 436.412,404.377 439.5,404.5 Z"/></g>
<g><path style="opacity:1" fill="#e8edfd" d="M 112.5,405.5 C 117.076,410.987 121.409,416.653 125.5,422.5C 126.321,428.544 124.321,433.377 119.5,437C 116.003,439.583 112.336,441.916 108.5,444C 105.445,444.634 102.445,444.468 99.5,443.5C 100.468,440.555 100.634,437.555 100,434.5C 96.8241,430.137 93.6574,425.804 90.5,421.5C 93.6639,410.325 100.997,404.992 112.5,405.5 Z"/></g>
<g><path style="opacity:1" fill="#6fc07c" d="M 385.5,422.5 C 385.336,425.187 385.503,427.854 386,430.5C 390.057,436.278 395.223,440.778 401.5,444C 404.888,444.659 408.221,444.492 411.5,443.5C 413.984,445.8 415.984,448.467 417.5,451.5C 403.37,463.068 388.37,473.401 372.5,482.5C 369.542,474.003 367.209,465.336 365.5,456.5C 371.761,450.626 374.428,443.293 373.5,434.5C 374.894,428.421 372.894,424.088 367.5,421.5C 367.837,416.462 368.504,411.462 369.5,406.5C 375.188,411.521 380.521,416.854 385.5,422.5 Z"/></g>
<g><path style="opacity:1" fill="#63ae7d" d="M 141.5,421.5 C 138.888,422.277 137.055,423.944 136,426.5C 134.898,434.679 135.565,442.679 138,450.5C 139.36,453.023 141.193,455.023 143.5,456.5C 141.943,465.062 139.61,473.395 136.5,481.5C 121.293,472.732 106.96,462.732 93.5,451.5C 95.016,448.467 97.016,445.8 99.5,443.5C 102.445,444.468 105.445,444.634 108.5,444C 112.336,441.916 116.003,439.583 119.5,437C 124.321,433.377 126.321,428.544 125.5,422.5C 130.131,418.37 134.631,414.037 139,409.5C 140.369,413.377 141.202,417.377 141.5,421.5 Z"/></g>
<g><path style="opacity:1" fill="#fe7287" d="M 421.5,419.5 C 421.833,419.5 422.167,419.5 422.5,419.5C 425.549,424.388 429.216,428.888 433.5,433C 440.395,436.558 447.729,438.558 455.5,439C 456.333,439.833 457.167,440.667 458,441.5C 459.471,445.581 461.138,449.581 463,453.5C 466.101,456.352 469.601,458.352 473.5,459.5C 467.085,466.371 459.085,470.037 449.5,470.5C 444.175,470.058 439.175,468.558 434.5,466C 428.43,461.633 422.764,456.8 417.5,451.5C 415.984,448.467 413.984,445.8 411.5,443.5C 410.532,440.555 410.366,437.555 411,434.5C 414.72,429.62 418.22,424.62 421.5,419.5 Z"/></g>
<g><path style="opacity:0.988" fill="#fe7185" d="M 89.5,421.5 C 89.8333,421.5 90.1667,421.5 90.5,421.5C 93.6574,425.804 96.8241,430.137 100,434.5C 100.634,437.555 100.468,440.555 99.5,443.5C 97.016,445.8 95.016,448.467 93.5,451.5C 89.0021,455.83 84.3354,459.997 79.5,464C 66.1278,472.57 53.1278,472.07 40.5,462.5C 41.1335,459.357 42.8002,456.857 45.5,455C 50.1667,452.333 54.8333,449.667 59.5,447C 65.4249,442.992 69.2582,437.492 71,430.5C 75.1139,423.36 81.2805,420.36 89.5,421.5 Z"/></g>
<g><path style="opacity:1" fill="#553e5b" d="M 141.5,421.5 C 156.815,425.692 172.148,429.359 187.5,432.5C 187.649,433.552 187.483,434.552 187,435.5C 177.82,446.544 178.653,456.711 189.5,466C 188.906,466.464 188.239,466.631 187.5,466.5C 172.382,465.053 157.715,461.72 143.5,456.5C 141.193,455.023 139.36,453.023 138,450.5C 135.565,442.679 134.898,434.679 136,426.5C 137.055,423.944 138.888,422.277 141.5,421.5 Z"/></g>
<g><path style="opacity:1" fill="#876c92" d="M 367.5,421.5 C 372.894,424.088 374.894,428.421 373.5,434.5C 374.428,443.293 371.761,450.626 365.5,456.5C 355.684,459.788 345.684,462.454 335.5,464.5C 335.611,463.883 335.944,463.383 336.5,463C 329.707,455.952 327.873,447.785 331,438.5C 332.761,435.589 334.261,432.589 335.5,429.5C 346.153,426.837 356.819,424.17 367.5,421.5 Z"/></g>
<g><path style="opacity:1" fill="#fab236" d="M 254.5,426.5 C 250.161,429.695 249.494,433.528 252.5,438C 258.348,438.173 264.015,438.673 269.5,439.5C 258.828,439.333 248.161,439.5 237.5,440C 236.667,440.833 235.833,441.667 235,442.5C 234.333,450.167 234.333,457.833 235,465.5C 235.5,466.667 236.333,467.5 237.5,468C 248.495,468.5 259.495,468.667 270.5,468.5C 264.681,469.328 258.681,469.828 252.5,470C 249.751,474.092 250.084,477.925 253.5,481.5C 247.158,481.666 240.825,481.5 234.5,481C 233.473,480.487 232.473,479.987 231.5,479.5C 227.472,477.472 224.472,474.472 222.5,470.5C 220.883,458.727 221.217,447.06 223.5,435.5C 225.845,432.823 228.512,430.49 231.5,428.5C 238.989,426.647 246.656,425.981 254.5,426.5 Z"/></g>
<g><path style="opacity:1" fill="#fedc42" d="M 254.5,426.5 C 261.997,426.037 269.331,426.704 276.5,428.5C 276.833,428.5 277.167,428.5 277.5,428.5C 280.139,430.473 282.473,432.806 284.5,435.5C 285.801,436.882 286.634,438.548 287,440.5C 287.758,450.534 287.591,460.534 286.5,470.5C 283.833,473.833 280.833,476.833 277.5,479.5C 270.006,481.353 262.339,482.02 254.5,481.5C 254.167,481.5 253.833,481.5 253.5,481.5C 250.084,477.925 249.751,474.092 252.5,470C 258.681,469.828 264.681,469.328 270.5,468.5C 272.833,468.167 274.167,466.833 274.5,464.5C 275.434,463.432 275.768,462.099 275.5,460.5C 280.713,461.238 283.713,459.072 284.5,454C 283.319,449.32 280.319,447.153 275.5,447.5C 275.768,445.901 275.434,444.568 274.5,443.5C 273.73,441.065 272.063,439.731 269.5,439.5C 264.015,438.673 258.348,438.173 252.5,438C 249.494,433.528 250.161,429.695 254.5,426.5 Z"/></g>
<g><path style="opacity:1" fill="#6d5474" d="M 335.5,429.5 C 334.261,432.589 332.761,435.589 331,438.5C 327.873,447.785 329.707,455.952 336.5,463C 335.944,463.383 335.611,463.883 335.5,464.5C 319.24,467.061 302.907,469.061 286.5,470.5C 287.591,460.534 287.758,450.534 287,440.5C 286.634,438.548 285.801,436.882 284.5,435.5C 301.644,434.698 318.644,432.698 335.5,429.5 Z"/></g>
<g><path style="opacity:1" fill="#6d5474" d="M 187.5,432.5 C 188.833,432.5 190.167,432.5 191.5,432.5C 202.061,434.146 212.727,435.146 223.5,435.5C 221.217,447.06 220.883,458.727 222.5,470.5C 211.833,469.5 201.166,468.5 190.5,467.5C 189.209,467.737 188.209,467.404 187.5,466.5C 188.239,466.631 188.906,466.464 189.5,466C 178.653,456.711 177.82,446.544 187,435.5C 187.483,434.552 187.649,433.552 187.5,432.5 Z"/></g>
<g><path style="opacity:1" fill="#6c5474" d="M 269.5,439.5 C 272.063,439.731 273.73,441.065 274.5,443.5C 274.5,444.833 274.5,446.167 274.5,447.5C 267.492,447.334 260.492,447.5 253.5,448C 248.196,452.098 248.196,456.098 253.5,460C 260.492,460.5 267.492,460.666 274.5,460.5C 274.5,461.833 274.5,463.167 274.5,464.5C 274.167,466.833 272.833,468.167 270.5,468.5C 259.495,468.667 248.495,468.5 237.5,468C 236.333,467.5 235.5,466.667 235,465.5C 234.333,457.833 234.333,450.167 235,442.5C 235.833,441.667 236.667,440.833 237.5,440C 248.161,439.5 258.828,439.333 269.5,439.5 Z"/></g>
<g><path style="opacity:1" fill="#f7e7ac" d="M 274.5,443.5 C 275.434,444.568 275.768,445.901 275.5,447.5C 280.319,447.153 283.319,449.32 284.5,454C 283.713,459.072 280.713,461.238 275.5,460.5C 275.768,462.099 275.434,463.432 274.5,464.5C 274.5,463.167 274.5,461.833 274.5,460.5C 267.492,460.666 260.492,460.5 253.5,460C 248.196,456.098 248.196,452.098 253.5,448C 260.492,447.5 267.492,447.334 274.5,447.5C 274.5,446.167 274.5,444.833 274.5,443.5 Z"/></g>
<g><path style="opacity:0.99" fill="#e70254" d="M 143.5,456.5 C 157.715,461.72 172.382,465.053 187.5,466.5C 188.209,467.404 189.209,467.737 190.5,467.5C 185.451,471.921 181.617,477.255 179,483.5C 178.604,489.351 179.437,495.017 181.5,500.5C 165.919,495.543 150.919,489.209 136.5,481.5C 139.61,473.395 141.943,465.062 143.5,456.5 Z"/></g>
<g><path style="opacity:0.989" fill="#fe4155" d="M 365.5,456.5 C 367.209,465.336 369.542,474.003 372.5,482.5C 345.909,496.919 317.576,505.919 287.5,509.5C 280.389,500.833 277.056,490.833 277.5,479.5C 280.833,476.833 283.833,473.833 286.5,470.5C 302.907,469.061 319.24,467.061 335.5,464.5C 345.684,462.454 355.684,459.788 365.5,456.5 Z"/></g>
<g><path style="opacity:0.992" fill="#fe4155" d="M 190.5,467.5 C 201.166,468.5 211.833,469.5 222.5,470.5C 224.472,474.472 227.472,477.472 231.5,479.5C 231.94,490.846 228.607,500.846 221.5,509.5C 207.857,507.755 194.523,504.755 181.5,500.5C 179.437,495.017 178.604,489.351 179,483.5C 181.617,477.255 185.451,471.921 190.5,467.5 Z"/></g>
<g><path style="opacity:0.988" fill="#d3daf9" d="M 231.5,479.5 C 232.473,479.987 233.473,480.487 234.5,481C 240.825,481.5 247.158,481.666 253.5,481.5C 253.833,481.5 254.167,481.5 254.5,481.5C 254.46,484.881 254.793,488.214 255.5,491.5C 253.592,498.221 251.258,504.887 248.5,511.5C 243.5,511.5 238.5,511.5 233.5,511.5C 229.664,510.622 225.664,509.956 221.5,509.5C 228.607,500.846 231.94,490.846 231.5,479.5 Z"/></g>
<g><path style="opacity:0.987" fill="#e9edfd" d="M 277.5,479.5 C 277.056,490.833 280.389,500.833 287.5,509.5C 284.167,510.167 280.833,510.833 277.5,511.5C 272.167,511.5 266.833,511.5 261.5,511.5C 258.496,505.152 256.496,498.485 255.5,491.5C 254.793,488.214 254.46,484.881 254.5,481.5C 262.339,482.02 270.006,481.353 277.5,479.5 Z"/></g>
<g><path style="opacity:0.994" fill="#e81f5e" d="M 255.5,491.5 C 256.496,498.485 258.496,505.152 261.5,511.5C 257.167,511.5 252.833,511.5 248.5,511.5C 251.258,504.887 253.592,498.221 255.5,491.5 Z"/></g>
</svg>
